<svg width="294" height="82" viewBox="0 0 294 82" fill="none" xmlns="http://www.w3.org/2000/svg">
<path d="M40.6478 39.4789L25.5063 29.8385V41.4358L40.6478 51.0762L76.8931 23.949C75.6111 21.0777 74.0053 18.3856 72.1258 15.918L40.6478 39.4789Z" fill="#333F48"/>
<path d="M80.4254 40.6178C80.4254 38.1475 80.207 35.7281 79.7884 33.3808L71.2253 39.789C71.2332 40.0644 71.2358 40.3397 71.2358 40.6178C71.2358 57.7464 57.5132 71.6829 40.6475 71.6829C23.7819 71.6829 10.0593 57.7464 10.0593 40.6178C10.0593 23.4891 23.7819 9.55259 40.6475 9.55259C47.039 9.55259 52.9802 11.555 57.8923 14.9743L65.6288 9.18365C58.8004 3.58016 50.111 0.219666 40.6475 0.219666C18.6777 0.219666 0.869629 18.3054 0.869629 40.6178C0.869629 62.9301 18.6777 81.0158 40.6475 81.0158C62.6174 81.0158 80.4254 62.9275 80.4254 40.6178Z" fill="#333F48"/>
<path d="M232.485 23.8344L243.299 15.7393H207.106V64.3581H243.299V56.263H217.435V43.8155H239.497V35.7204H217.435V23.8344H232.485Z" fill="#333F48"/>
<path d="M179.785 34.6911H167.215V23.8343H187.282L198.095 15.7392H156.885V64.3554H178.453C190.548 64.3554 197.487 58.7893 197.487 49.0821C197.487 39.8027 191.201 34.6911 179.785 34.6911ZM177.987 56.2629H167.215V42.7862H177.987C184.544 42.7862 187.597 45.0399 187.597 49.5232C187.597 54.1055 184.362 56.2629 177.987 56.2629Z" fill="#333F48"/>
<path d="M272.623 15.7393H252.917V64.3555H263.247V50.5847H272.623C285.198 50.5847 293.011 43.869 293.011 33.1379C293.011 22.4068 285.198 15.7393 272.623 15.7393ZM272.402 42.4895H263.247V23.8344H272.402C279.02 23.8344 282.666 27.1468 282.666 33.162C282.666 39.1772 279.02 42.4895 272.402 42.4895Z" fill="#333F48"/>
<path d="M139.156 53.8302C136.508 55.314 133.423 56.0999 130.241 56.0999C120.927 56.0999 114.17 49.3495 114.17 40.0487C114.17 30.7479 120.93 23.9975 130.241 23.9975C133.763 23.9975 136.921 25.0027 139.635 26.9837L147.043 21.439L146.553 21.0032C142.228 17.1428 136.448 15.103 129.84 15.103C122.672 15.103 116.165 17.5572 111.522 22.0165C106.849 26.4998 104.277 32.8091 104.277 39.7814C104.277 46.7857 106.841 53.1886 111.495 57.8083C116.165 62.444 122.657 64.9971 129.775 64.9971C137.222 64.9971 143.724 62.3611 148.13 57.5623C144.729 55.0172 141.447 52.5603 141.447 52.5603L139.156 53.8302Z" fill="#333F48"/>
</svg>
