<svg width="393" height="179" viewBox="0 0 393 179" fill="none" xmlns="http://www.w3.org/2000/svg">
<path d="M89.0309 88.885L73.773 79.2985V90.831L89.0309 100.417L125.555 73.4418C124.263 70.5866 122.645 67.9095 120.751 65.4557L89.0309 88.885Z" fill="white"/>
<path d="M129.115 90.0175C129.115 87.561 128.895 85.1551 128.473 82.8209L119.844 89.1933C119.852 89.4672 119.854 89.741 119.854 90.0175C119.854 107.05 106.026 120.909 89.0309 120.909C72.0355 120.909 58.2074 107.05 58.2074 90.0175C58.2074 72.9845 72.0355 59.1258 89.0309 59.1258C95.4715 59.1258 101.458 61.117 106.408 64.5173L114.204 58.759C107.323 53.1868 98.5671 49.8451 89.0309 49.8451C66.8921 49.8451 48.947 67.8297 48.947 90.0175C48.947 112.205 66.8921 130.19 89.0309 130.19C111.17 130.19 129.115 112.203 129.115 90.0175Z" fill="white"/>
<path d="M282.344 73.3279L293.241 65.278H256.77V113.625H293.241V105.575H267.179V93.1974H289.41V85.1475H267.179V73.3279H282.344Z" fill="white"/>
<path d="M229.238 84.1239H216.572V73.3278H236.793L247.69 65.2779H206.163V113.623H227.896C240.085 113.623 247.077 108.088 247.077 98.4346C247.077 89.207 240.743 84.1239 229.238 84.1239ZM227.426 105.575H216.572V92.1738H227.426C234.034 92.1738 237.111 94.415 237.111 98.8732C237.111 103.43 233.851 105.575 227.426 105.575Z" fill="white"/>
<path d="M322.791 65.278H302.934V113.623H313.342V99.9287H322.791C335.463 99.9287 343.336 93.2506 343.336 82.5794C343.336 71.9082 335.463 65.278 322.791 65.278ZM322.568 91.8788H313.342V73.3279H322.568C329.237 73.3279 332.911 76.6217 332.911 82.6033C332.911 88.5849 329.237 91.8788 322.568 91.8788Z" fill="white"/>
<path d="M188.297 103.156C185.629 104.632 182.52 105.413 179.313 105.413C169.928 105.413 163.119 98.7005 163.119 89.4516C163.119 80.2027 169.931 73.4901 179.313 73.4901C182.862 73.4901 186.045 74.4896 188.78 76.4596L196.245 70.9459L195.751 70.5125C191.393 66.6737 185.568 64.6453 178.91 64.6453C171.687 64.6453 165.129 67.0858 160.45 71.5201C155.742 75.9784 153.15 82.2524 153.15 89.1858C153.15 96.151 155.734 102.518 160.424 107.112C165.129 111.722 171.671 114.261 178.844 114.261C186.348 114.261 192.9 111.639 197.34 106.867C193.913 104.336 190.605 101.893 190.605 101.893L188.297 103.156Z" fill="white"/>
</svg>
