<svg width="296" height="81" viewBox="0 0 296 81" fill="none" xmlns="http://www.w3.org/2000/svg">
<path d="M234.344 24.3279L245.241 16.278H208.77V64.6253H245.241V56.5754H219.179V44.1974H241.41V36.1475H219.179V24.3279H234.344Z" fill="#21A038"/>
<path d="M181.238 35.124H168.572V24.3279H188.793L199.69 16.278H158.163V64.6226H179.896C192.085 64.6226 199.077 59.0876 199.077 49.4346C199.077 40.207 192.743 35.124 181.238 35.124ZM179.426 56.5753H168.572V43.1739H179.426C186.034 43.1739 189.111 45.415 189.111 49.8733C189.111 54.4299 185.851 56.5753 179.426 56.5753Z" fill="#21A038"/>
<path d="M274.791 16.278H254.934V64.6226H265.342V50.9287H274.791C287.463 50.9287 295.336 44.2506 295.336 33.5795C295.336 22.9083 287.463 16.278 274.791 16.278ZM274.568 42.8788H265.342V24.3279H274.568C281.237 24.3279 284.911 27.6218 284.911 33.6034C284.911 39.585 281.237 42.8788 274.568 42.8788Z" fill="#21A038"/>
<path d="M140.297 54.1561C137.629 55.6316 134.52 56.4132 131.313 56.4132C121.928 56.4132 115.119 49.7005 115.119 40.4516C115.119 31.2027 121.931 24.4901 131.313 24.4901C134.862 24.4901 138.045 25.4896 140.78 27.4596L148.245 21.9459L147.751 21.5125C143.393 17.6737 137.568 15.6453 130.91 15.6453C123.687 15.6453 117.129 18.0858 112.45 22.5201C107.742 26.9784 105.15 33.2524 105.15 40.1858C105.15 47.151 107.734 53.5181 112.424 58.1119C117.129 62.7218 123.671 65.2606 130.843 65.2606C138.348 65.2606 144.9 62.6393 149.34 57.8674C145.913 55.3365 142.605 52.8933 142.605 52.8933L140.297 54.1561Z" fill="#21A038"/>
<path d="M41.0309 39.585L25.773 29.9984V41.531L41.0309 51.1175L77.555 24.1418C76.2632 21.2866 74.6451 18.6095 72.7511 16.1557L41.0309 39.585Z" fill="#21A038"/>
<path d="M81.1148 40.7175C81.1148 38.2611 80.8947 35.8551 80.4729 33.521L71.8439 39.8934C71.8518 40.1672 71.8545 40.441 71.8545 40.7175C71.8545 57.7504 58.0263 71.6091 41.0309 71.6091C24.0355 71.6091 10.2074 57.7504 10.2074 40.7175C10.2074 23.6846 24.0355 9.82588 41.0309 9.82588C47.4715 9.82588 53.4585 11.8171 58.4083 15.2173L66.2044 9.45901C59.3235 3.88682 50.5671 0.545105 41.0309 0.545105C18.8921 0.545105 0.947044 18.5298 0.947044 40.7175C0.947044 62.9052 18.8921 80.8899 41.0309 80.8899C63.1698 80.8899 81.1148 62.9026 81.1148 40.7175Z" fill="#21A038"/>
</svg>
