<svg width="295" height="81" viewBox="0 0 295 81" fill="none" xmlns="http://www.w3.org/2000/svg">
<path d="M127.211 36.2317C121.603 34.9114 116.759 33.7691 116.759 29.864C116.759 24.6279 123.209 24.0621 125.982 24.0621C129.827 24.0621 132.012 24.5908 134.876 25.8898C136.266 24.867 142.604 20.1995 142.604 20.1995C138.428 17.5403 132.153 15.4602 126.051 15.4602C111.511 15.4602 106.329 23.1881 106.329 30.4192C106.329 40.8329 115.393 43.0033 123.387 44.916C129.005 46.2602 133.855 47.4211 133.855 51.39C133.855 53.4276 132.64 56.8439 124.496 56.8439C119.091 56.8439 113.17 54.9471 108.967 51.8841L105.433 59.96C109.716 63.2966 117.145 65.4458 124.43 65.4458C136.492 65.4458 144.287 59.6014 144.287 50.5558C144.287 40.2538 135.216 38.1179 127.211 36.2317Z" fill="#21A038"/>
<path d="M188.464 39.6932L187.964 39.5285L188.427 39.2788C192.407 37.1217 194.598 33.3813 194.598 28.7509C194.598 20.954 187.983 16.2997 176.904 16.2997H154.002V64.6116H178.258C190.323 64.6116 196.967 59.968 196.967 51.5335C196.964 45.79 193.867 41.4758 188.464 39.6932ZM164.435 24.341H175.551C182.559 24.341 184.03 27.5688 184.03 30.2466C184.03 34.1331 181.097 36.1521 175.551 36.1521H164.435V24.341V24.341ZM164.435 36.1521H175.551H164.435ZM177.444 56.565H164.435V44.1961H177.444C183.384 44.1961 186.396 46.2549 186.396 50.3805C186.396 54.5194 183.469 56.565 177.444 56.565Z" fill="#21A038"/>
<path d="M232.314 24.341L243.236 16.297H206.679V64.6089H243.236V56.5649H217.112V44.196H239.397V36.152H217.112V24.341H232.314Z" fill="#21A038"/>
<path d="M294.19 64.6089L283.569 48.9141C289.835 46.1831 293.448 40.7983 293.448 33.5858C293.448 22.9224 285.557 16.297 272.857 16.297H252.954V64.6089H263.386V50.9251H272.857C273.155 50.9251 273.447 50.9171 273.739 50.9091L283.01 64.6089H294.19ZM263.384 24.341H272.631C279.315 24.341 282.997 27.6325 282.997 33.6097C282.997 39.5869 279.315 42.8784 272.631 42.8784H263.384V24.341Z" fill="#21A038"/>
<path d="M40.2977 39.5849L24.9937 29.9984V41.5309L40.2977 51.1174L76.932 24.1417C75.6363 21.2865 74.0133 18.6094 72.1136 16.1556L40.2977 39.5849Z" fill="#21A038"/>
<path d="M80.5026 40.7174C80.5026 38.261 80.2818 35.8551 79.8587 33.5209L71.2037 39.8933C71.2116 40.1671 71.2143 40.441 71.2143 40.7174C71.2143 57.7504 57.3444 71.6091 40.2977 71.6091C23.2509 71.6091 9.38101 57.7504 9.38101 40.7174C9.38101 23.6845 23.2509 9.82582 40.2977 9.82582C46.7577 9.82582 52.7627 11.817 57.7275 15.2172L65.5471 9.45895C58.6454 3.88676 49.8627 0.545044 40.2977 0.545044C18.092 0.545044 0.0927124 18.5297 0.0927124 40.7174C0.0927124 62.9052 18.092 80.8898 40.2977 80.8898C62.5034 80.8898 80.5026 62.9025 80.5026 40.7174Z" fill="#21A038"/>
</svg>
