<svg width="296" height="81" viewBox="0 0 296 81" fill="none" xmlns="http://www.w3.org/2000/svg">
<path d="M72.7496 16.1595C74.6436 18.6106 76.2617 21.2876 77.5536 24.1454L41.0287 51.1201L25.7704 41.5339V30.0018L41.0287 39.588L72.7496 16.1595Z" fill="#21A038"/>
<path d="M10.2049 40.7166C10.2049 40.1982 10.2182 39.6851 10.2447 39.172L0.997438 38.7095C0.965606 39.3741 0.947037 40.044 0.947037 40.7166C0.947037 51.81 5.43274 61.8534 12.6878 69.1214L19.2453 62.5499C13.6614 56.9567 10.2049 49.234 10.2049 40.7166Z" fill="url(#paint0_linear_18_141)"/>
<path d="M41.0287 71.6119C40.5114 71.6119 39.9995 71.5986 39.4875 71.572L39.0259 80.8392C39.6891 80.8711 40.3576 80.8897 41.0287 80.8897C52.0984 80.8897 62.1203 76.3943 69.3727 69.1236L62.8153 62.5521C57.234 68.1454 49.5279 71.6119 41.0287 71.6119Z" fill="url(#paint1_linear_18_141)"/>
<path d="M41.0287 71.6119C40.5114 71.6119 39.9995 71.5986 39.4875 71.572L39.0259 80.8392C39.6891 80.8711 40.3576 80.8897 41.0287 80.8897C52.0984 80.8897 62.1203 76.3943 69.3727 69.1236L62.8153 62.5521C57.234 68.1454 49.5279 71.6119 41.0287 71.6119Z" fill="url(#paint2_linear_18_141)"/>
<path d="M41.0299 9.82634C41.5472 9.82634 42.0592 9.84495 42.5711 9.86888L43.0327 0.596409C42.3695 0.564508 41.7011 0.545898 41.0299 0.545898C29.9602 0.545898 19.9384 5.04123 12.6859 12.3119L19.2434 18.8835C24.8246 13.2902 32.5334 9.82634 41.0299 9.82634Z" fill="url(#paint3_linear_18_141)"/>
<path d="M41.0287 71.6119C40.5114 71.6119 39.9995 71.5986 39.4875 71.572L39.0259 80.8392C39.6891 80.8711 40.3576 80.8897 41.0287 80.8897C52.0984 80.8897 62.1203 76.3943 69.3727 69.1236L62.8153 62.5521C57.234 68.1454 49.5279 71.6119 41.0287 71.6119Z" fill="#A3CD39"/>
<path d="M62.8153 62.5521L69.3727 69.1236C68.0529 70.4468 66.6414 71.678 65.1486 72.8069L61.8914 63.4406C62.2055 63.1508 62.5135 62.8546 62.8153 62.5521Z" fill="#21A038"/>
<mask id="mask0_18_141" style="mask-type:alpha" maskUnits="userSpaceOnUse" x="39" y="62" width="31" height="19">
<path d="M41.0287 71.6119C40.5114 71.6119 39.9995 71.5986 39.4875 71.572L39.0259 80.8392C39.6891 80.8711 40.3576 80.8897 41.0287 80.8897C52.0984 80.8897 62.1203 76.3943 69.3727 69.1236L62.8153 62.5521C57.234 68.1454 49.5279 71.6119 41.0287 71.6119Z" fill="#A3CD39"/>
</mask>
<g mask="url(#mask0_18_141)">
<mask id="mask1_18_141" style="mask-type:alpha" maskUnits="userSpaceOnUse" x="40" y="63" width="26" height="20">
<rect width="12.3448" height="22.8405" transform="matrix(0.328571 0.944479 -0.944028 0.329866 61.8371 63.2668)" fill="url(#paint4_linear_18_141)"/>
</mask>
<g mask="url(#mask1_18_141)">
<rect width="12.3448" height="22.8405" transform="matrix(0.328571 0.944479 -0.944028 0.329866 61.8371 63.2668)" fill="#21A038"/>
</g>
</g>
<path d="M58.4075 15.2175L66.2038 9.45948C59.3227 3.88749 50.5662 0.545898 41.0298 0.545898V9.82634C47.4732 9.82634 53.4576 11.8175 58.4075 15.2175Z" fill="url(#paint5_linear_18_141)"/>
<path d="M81.1139 40.7184C81.1139 38.2621 80.8937 35.8562 80.4719 33.5222L71.8427 39.8943C71.8507 40.1681 71.8533 40.4419 71.8533 40.7184C71.8533 49.7888 67.9326 57.9581 61.6988 63.6151L67.9194 70.5057C76.0234 63.1579 81.1139 52.535 81.1139 40.7184Z" fill="#21A038"/>
<path d="M41.0289 71.607C31.9779 71.607 23.8262 67.6779 18.1813 61.4307L11.3055 67.6646C18.6402 75.7834 29.2404 80.8848 41.0289 80.8848V71.607Z" fill="url(#paint6_linear_18_141)"/>
<path d="M20.3594 17.8238L14.1389 10.9332C6.03755 18.2837 0.947037 28.9066 0.947037 40.7205H10.2076C10.2049 31.6501 14.1256 23.4808 20.3594 17.8238Z" fill="url(#paint7_linear_18_141)"/>
<path d="M234.344 24.3288L245.241 16.2789H208.77V64.6262H245.241V56.5763H219.179V44.1984H241.41V36.1485H219.179V24.3288H234.344Z" fill="#21A038"/>
<path d="M181.238 35.1249H168.572V24.3288H188.793L199.69 16.2789H158.163V64.6235H179.896C192.085 64.6235 199.077 59.0885 199.077 49.4355C199.077 40.2079 192.743 35.1249 181.238 35.1249ZM179.426 56.5762H168.572V43.1748H179.426C186.034 43.1748 189.111 45.4159 189.111 49.8742C189.111 54.4308 185.851 56.5762 179.426 56.5762Z" fill="#21A038"/>
<path d="M274.791 16.2789H254.934V64.6235H265.342V50.9297H274.791C287.463 50.9297 295.336 44.2515 295.336 33.5804C295.336 22.9092 287.463 16.2789 274.791 16.2789ZM274.568 42.8798H265.342V24.3288H274.568C281.237 24.3288 284.911 27.6227 284.911 33.6043C284.911 39.5859 281.237 42.8798 274.568 42.8798Z" fill="#21A038"/>
<path d="M140.297 54.157C137.629 55.6325 134.52 56.4141 131.313 56.4141C121.928 56.4141 115.119 49.7014 115.119 40.4525C115.119 31.2036 121.931 24.491 131.313 24.491C134.862 24.491 138.045 25.4906 140.78 27.4605L148.245 21.9468L147.751 21.5135C143.393 17.6746 137.568 15.6462 130.91 15.6462C123.687 15.6462 117.129 18.0867 112.45 22.521C107.742 26.9793 105.15 33.2533 105.15 40.1867C105.15 47.1519 107.734 53.519 112.424 58.1129C117.129 62.7227 123.671 65.2615 130.843 65.2615C138.348 65.2615 144.9 62.6403 149.34 57.8683C145.913 55.3374 142.605 52.8942 142.605 52.8942L140.297 54.157Z" fill="#21A038"/>
<defs>
<linearGradient id="paint0_linear_18_141" x1="14.5594" y1="67.9613" x2="4.40257" y2="38.665" gradientUnits="userSpaceOnUse">
<stop offset="0.1444" stop-color="#F2E913"/>
<stop offset="0.3037" stop-color="#E7E518"/>
<stop offset="0.5823" stop-color="#CADB26"/>
<stop offset="0.891" stop-color="#A3CD39"/>
</linearGradient>
<linearGradient id="paint1_linear_18_141" x1="38.4159" y1="75.2921" x2="67.891" y2="68.6446" gradientUnits="userSpaceOnUse">
<stop offset="0.1226" stop-color="#A3CD39"/>
<stop offset="0.2846" stop-color="#86C339"/>
<stop offset="0.8693" stop-color="#21A038"/>
</linearGradient>
<linearGradient id="paint2_linear_18_141" x1="38.4159" y1="75.2921" x2="67.891" y2="68.6446" gradientUnits="userSpaceOnUse">
<stop offset="0.1226" stop-color="#A3CD39"/>
<stop offset="0.2846" stop-color="#86C339"/>
<stop offset="0.8693" stop-color="#21A038"/>
</linearGradient>
<linearGradient id="paint3_linear_18_141" x1="15.3311" y1="13.9555" x2="41.405" y2="4.04055" gradientUnits="userSpaceOnUse">
<stop offset="0.0592" stop-color="#0FA8E0"/>
<stop offset="0.5385" stop-color="#0099F9"/>
<stop offset="0.9234" stop-color="#0291EB"/>
</linearGradient>
<linearGradient id="paint4_linear_18_141" x1="6.17239" y1="0" x2="6.17239" y2="22.8405" gradientUnits="userSpaceOnUse">
<stop/>
<stop offset="1" stop-opacity="0"/>
</linearGradient>
<linearGradient id="paint5_linear_18_141" x1="39.0926" y1="3.65696" x2="64.2974" y2="11.4171" gradientUnits="userSpaceOnUse">
<stop offset="0.0566" stop-color="#0291EB"/>
<stop offset="0.79" stop-color="#0C8ACB"/>
</linearGradient>
<linearGradient id="paint6_linear_18_141" x1="13.6276" y1="66.5367" x2="41.0674" y2="76.7672" gradientUnits="userSpaceOnUse">
<stop offset="0.1324" stop-color="#F2E913"/>
<stop offset="0.2977" stop-color="#EBE716"/>
<stop offset="0.5306" stop-color="#D9E01F"/>
<stop offset="0.8023" stop-color="#BBD62D"/>
<stop offset="0.9829" stop-color="#A3CD39"/>
</linearGradient>
<linearGradient id="paint7_linear_18_141" x1="4.394" y1="41.8462" x2="15.444" y2="13.1627" gradientUnits="userSpaceOnUse">
<stop offset="0.0698" stop-color="#A3CD39"/>
<stop offset="0.2599" stop-color="#81C55F"/>
<stop offset="0.9216" stop-color="#0FA8E0"/>
</linearGradient>
</defs>
</svg>
