<svg width="294" height="81" viewBox="0 0 294 81" fill="none" xmlns="http://www.w3.org/2000/svg">
<path d="M41.0309 39.6978L25.773 30.1317V41.6397L41.0309 51.2058L77.555 24.2875C76.2632 21.4383 74.6451 18.7669 72.7511 16.3184L41.0309 39.6978Z" fill="white"/>
<path d="M81.1149 40.8279C81.1149 38.3767 80.8947 35.9759 80.4729 33.6467L71.8439 40.0056C71.8519 40.2788 71.8545 40.552 71.8545 40.8279C71.8545 57.8246 58.0264 71.6539 41.031 71.6539C24.0356 71.6539 10.2074 57.8246 10.2074 40.8279C10.2074 23.8312 24.0356 10.002 41.031 10.002C47.4716 10.002 53.4585 11.989 58.4083 15.382L66.2044 9.63592C59.3235 4.07558 50.5672 0.740967 41.031 0.740967C18.8921 0.740967 0.947083 18.6874 0.947083 40.8279C0.947083 62.9685 18.8921 80.9149 41.031 80.9149C63.1698 80.9149 81.1149 62.9658 81.1149 40.8279Z" fill="white"/>
<path d="M126.862 36.4166C121.272 35.0963 116.442 33.9539 116.442 30.0488C116.442 24.8128 122.873 24.2469 125.637 24.2469C129.47 24.2469 131.649 24.7756 134.504 26.0746C135.89 25.0519 142.209 20.3843 142.209 20.3843C138.045 17.7251 131.79 15.645 125.706 15.645C111.21 15.645 106.043 23.3729 106.043 30.604C106.043 41.0177 115.08 43.1881 123.05 45.1008C128.651 46.445 133.486 47.6059 133.486 51.5748C133.486 53.6124 132.275 57.0287 124.156 57.0287C118.767 57.0287 112.864 55.1319 108.673 52.0689L105.15 60.1448C109.42 63.4815 116.826 65.6306 124.089 65.6306C136.116 65.6306 143.887 59.7862 143.887 50.7407C143.887 40.4386 134.843 38.3027 126.862 36.4166Z" fill="white"/>
<path d="M187.931 39.8784L187.433 39.7137L187.894 39.464C191.862 37.3069 194.046 33.5665 194.046 28.9361C194.046 21.1391 187.452 16.4849 176.406 16.4849H153.573V64.7968H177.755C189.784 64.7968 196.408 60.1532 196.408 51.7186C196.406 45.9752 193.317 41.661 187.931 39.8784ZM163.974 24.5262H175.057C182.044 24.5262 183.51 27.7539 183.51 30.4317C183.51 34.3183 180.586 36.3372 175.057 36.3372H163.974V24.5262V24.5262ZM163.974 36.3372H175.057H163.974ZM176.944 56.7501H163.974V44.3813H176.944C182.866 44.3813 185.869 46.4401 185.869 50.5657C185.869 54.7046 182.951 56.7501 176.944 56.7501Z" fill="white"/>
<path d="M231.649 24.526L242.538 16.4819H206.091V64.7939H242.538V56.7499H216.493V44.381H238.711V36.337H216.493V24.526H231.649Z" fill="white"/>
<path d="M293.339 64.7939L282.749 49.099C288.997 46.3681 292.599 40.9833 292.599 33.7707C292.599 23.1074 284.732 16.4819 272.07 16.4819H252.227V64.7939H262.628V51.11H272.07C272.367 51.11 272.658 51.1021 272.95 51.0941L282.193 64.7939H293.339ZM262.625 24.526H271.844C278.508 24.526 282.179 27.8174 282.179 33.7946C282.179 39.7719 278.508 43.0633 271.844 43.0633H262.625V24.526Z" fill="white"/>
</svg>
