<svg width="295" height="82" viewBox="0 0 295 82" fill="none" xmlns="http://www.w3.org/2000/svg">
<path d="M127.21 36.2327C121.603 34.9124 116.759 33.7701 116.759 29.865C116.759 24.6289 123.209 24.0631 125.982 24.0631C129.827 24.0631 132.012 24.5917 134.875 25.8908C136.266 24.868 142.604 20.2005 142.604 20.2005C138.427 17.5413 132.153 15.4612 126.051 15.4612C111.511 15.4612 106.329 23.1891 106.329 30.4202C106.329 40.8339 115.392 43.0043 123.387 44.917C129.005 46.2612 133.854 47.4221 133.854 51.391C133.854 53.4285 132.639 56.8449 124.496 56.8449C119.091 56.8449 113.17 54.9481 108.966 51.8851L105.433 59.961C109.716 63.2976 117.145 65.4468 124.429 65.4468C136.492 65.4468 144.287 59.6024 144.287 50.5568C144.287 40.2547 135.216 38.1189 127.21 36.2327Z" fill="black"/>
<path d="M188.464 39.6946L187.964 39.5299L188.427 39.2802C192.407 37.123 194.598 33.3826 194.598 28.7523C194.598 20.9553 187.983 16.301 176.904 16.301H154.002V64.613H178.257C190.323 64.613 196.967 59.9693 196.967 51.5348C196.964 45.7913 193.867 41.4771 188.464 39.6946ZM164.435 24.3424H175.551C182.559 24.3424 184.029 27.5701 184.029 30.2479C184.029 34.1344 181.097 36.1534 175.551 36.1534H164.435V24.3424V24.3424ZM164.435 36.1534H175.551H164.435ZM177.444 56.5663H164.435V44.1974H177.444C183.383 44.1974 186.396 46.2562 186.396 50.3819C186.396 54.5208 183.468 56.5663 177.444 56.5663Z" fill="black"/>
<path d="M232.314 24.3424L243.236 16.2983H206.679V64.6103H243.236V56.5663H217.112V44.1974H239.397V36.1534H217.112V24.3424H232.314Z" fill="black"/>
<path d="M294.19 64.6103L283.568 48.9154C289.835 46.1845 293.448 40.7997 293.448 33.5871C293.448 22.9238 285.557 16.2983 272.857 16.2983H252.954V64.6103H263.386V50.9264H272.857C273.154 50.9264 273.447 50.9185 273.739 50.9105L283.01 64.6103H294.19ZM263.384 24.3424H272.631C279.315 24.3424 282.997 27.6338 282.997 33.6111C282.997 39.5883 279.315 42.8797 272.631 42.8797H263.384V24.3424Z" fill="black"/>
<path d="M40.2977 39.886L24.9937 30.2995V41.8321L40.2977 51.4186L76.932 24.4429C75.6363 21.5877 74.0133 18.9106 72.1136 16.4568L40.2977 39.886Z" fill="black"/>
<path d="M80.5026 41.0186C80.5026 38.5622 80.2818 36.1562 79.8587 33.8221L71.2037 40.1945C71.2116 40.4683 71.2143 40.7421 71.2143 41.0186C71.2143 58.0515 57.3444 71.9102 40.2977 71.9102C23.2509 71.9102 9.38101 58.0515 9.38101 41.0186C9.38101 23.9857 23.2509 10.127 40.2977 10.127C46.7577 10.127 52.7627 12.1182 57.7275 15.5184L65.5471 9.7601C58.6454 4.18791 49.8627 0.846191 40.2977 0.846191C18.092 0.846191 0.0927124 18.8309 0.0927124 41.0186C0.0927124 63.2063 18.092 81.191 40.2977 81.191C62.5034 81.191 80.5026 63.2037 80.5026 41.0186Z" fill="black"/>
</svg>
