<svg width="295" height="82" viewBox="0 0 295 82" fill="none" xmlns="http://www.w3.org/2000/svg">
<path d="M127.211 36.2317C121.603 34.9114 116.759 33.7691 116.759 29.864C116.759 24.6279 123.209 24.0621 125.982 24.0621C129.827 24.0621 132.012 24.5908 134.876 25.8898C136.266 24.867 142.604 20.1995 142.604 20.1995C138.428 17.5403 132.153 15.4602 126.051 15.4602C111.511 15.4602 106.329 23.1881 106.329 30.4192C106.329 40.8329 115.393 43.0033 123.387 44.916C129.005 46.2602 133.855 47.4211 133.855 51.39C133.855 53.4276 132.64 56.8439 124.496 56.8439C119.091 56.8439 113.17 54.9471 108.967 51.8841L105.433 59.96C109.716 63.2966 117.145 65.4458 124.43 65.4458C136.492 65.4458 144.287 59.6014 144.287 50.5558C144.287 40.2538 135.216 38.1179 127.211 36.2317Z" fill="#333F48"/>
<path d="M188.464 39.6936L187.964 39.5289L188.427 39.2792C192.407 37.1221 194.598 33.3816 194.598 28.7513C194.598 20.9543 187.983 16.3 176.904 16.3H154.002V64.612H178.258C190.323 64.612 196.967 59.9684 196.967 51.5338C196.964 45.7904 193.867 41.4761 188.464 39.6936ZM164.435 24.3414H175.551C182.559 24.3414 184.03 27.5691 184.03 30.2469C184.03 34.1334 181.097 36.1524 175.551 36.1524H164.435V24.3414V24.3414ZM164.435 36.1524H175.551H164.435ZM177.444 56.5653H164.435V44.1964H177.444C183.384 44.1964 186.396 46.2553 186.396 50.3809C186.396 54.5198 183.469 56.5653 177.444 56.5653Z" fill="#333F48"/>
<path d="M232.314 24.3414L243.236 16.2974H206.679V64.6093H243.236V56.5653H217.112V44.1964H239.397V36.1524H217.112V24.3414H232.314Z" fill="#333F48"/>
<path d="M294.19 64.6093L283.569 48.9144C289.835 46.1835 293.448 40.7987 293.448 33.5862C293.448 22.9228 285.557 16.2974 272.857 16.2974H252.954V64.6093H263.386V50.9255H272.857C273.155 50.9255 273.447 50.9175 273.739 50.9095L283.01 64.6093H294.19ZM263.384 24.3414H272.631C279.315 24.3414 282.997 27.6328 282.997 33.6101C282.997 39.5873 279.315 42.8788 272.631 42.8788H263.384V24.3414Z" fill="#333F48"/>
<path d="M40.2977 39.8851L24.9937 30.2986V41.8311L40.2977 51.4176L76.932 24.4419C75.6363 21.5867 74.0133 18.9096 72.1136 16.4558L40.2977 39.8851Z" fill="#333F48"/>
<path d="M80.5026 41.0176C80.5026 38.5612 80.2818 36.1552 79.8587 33.8211L71.2037 40.1935C71.2116 40.4673 71.2143 40.7411 71.2143 41.0176C71.2143 58.0505 57.3444 71.9092 40.2977 71.9092C23.2509 71.9092 9.38101 58.0505 9.38101 41.0176C9.38101 23.9847 23.2509 10.126 40.2977 10.126C46.7577 10.126 52.7627 12.1172 57.7275 15.5174L65.5471 9.75912C58.6454 4.18693 49.8627 0.845215 40.2977 0.845215C18.092 0.845215 0.0927124 18.8299 0.0927124 41.0176C0.0927124 63.2054 18.092 81.19 40.2977 81.19C62.5034 81.19 80.5026 63.2027 80.5026 41.0176Z" fill="#333F48"/>
</svg>
