<svg width="296" height="82" viewBox="0 0 296 82" fill="none" xmlns="http://www.w3.org/2000/svg">
<path d="M41.0309 39.8849L25.773 30.2984V41.831L41.0309 51.4175L77.555 24.4418C76.2632 21.5866 74.6451 18.9095 72.7511 16.4557L41.0309 39.8849Z" fill="white"/>
<path d="M81.1149 41.0175C81.1149 38.561 80.8947 36.1551 80.4729 33.8209L71.8439 40.1933C71.8519 40.4671 71.8545 40.741 71.8545 41.0175C71.8545 58.0504 58.0264 71.9091 41.031 71.9091C24.0356 71.9091 10.2074 58.0504 10.2074 41.0175C10.2074 23.9845 24.0356 10.1258 41.031 10.1258C47.4716 10.1258 53.4585 12.117 58.4083 15.5172L66.2044 9.75895C59.3235 4.18677 50.5672 0.845047 41.031 0.845047C18.8921 0.845047 0.947083 18.8297 0.947083 41.0175C0.947083 63.2052 18.8921 81.1898 41.031 81.1898C63.1698 81.1898 81.1149 63.2025 81.1149 41.0175Z" fill="white"/>
<path d="M234.344 24.3279L245.241 16.278H208.77V64.6252H245.241V56.5753H219.179V44.1974H241.41V36.1475H219.179V24.3279H234.344Z" fill="white"/>
<path d="M181.238 35.1239H168.572V24.3278H188.793L199.69 16.2779H158.163V64.6225H179.896C192.085 64.6225 199.077 59.0876 199.077 49.4346C199.077 40.207 192.743 35.1239 181.238 35.1239ZM179.426 56.5753H168.572V43.1738H179.426C186.034 43.1738 189.111 45.415 189.111 49.8732C189.111 54.4299 185.851 56.5753 179.426 56.5753Z" fill="white"/>
<path d="M274.791 16.278H254.934V64.6226H265.342V50.9287H274.791C287.463 50.9287 295.336 44.2506 295.336 33.5794C295.336 22.9082 287.463 16.278 274.791 16.278ZM274.568 42.8788H265.342V24.3279H274.568C281.237 24.3279 284.911 27.6217 284.911 33.6033C284.911 39.5849 281.237 42.8788 274.568 42.8788Z" fill="white"/>
<path d="M140.297 54.1561C137.629 55.6316 134.52 56.4132 131.313 56.4132C121.928 56.4132 115.119 49.7005 115.119 40.4516C115.119 31.2027 121.931 24.49 131.313 24.49C134.862 24.49 138.045 25.4896 140.78 27.4596L148.245 21.9459L147.751 21.5125C143.393 17.6737 137.568 15.6452 130.91 15.6452C123.687 15.6452 117.129 18.0857 112.45 22.5201C107.742 26.9784 105.15 33.2524 105.15 40.1857C105.15 47.151 107.734 53.5181 112.424 58.1119C117.129 62.7217 123.671 65.2606 130.843 65.2606C138.348 65.2606 144.9 62.6393 149.34 57.8673C145.913 55.3365 142.605 52.8933 142.605 52.8933L140.297 54.1561Z" fill="white"/>
</svg>
