<svg width="295" height="81" viewBox="0 0 295 81" fill="none" xmlns="http://www.w3.org/2000/svg">
<path d="M72.1121 16.1597C74.0118 18.6107 75.6348 21.2877 76.9306 24.1455L40.2954 51.1202L24.991 41.534V30.0019L40.2954 39.5881L72.1121 16.1597Z" fill="#21A038"/>
<path d="M9.37863 40.7167C9.37863 40.1983 9.39193 39.6852 9.41854 39.1722L0.143327 38.7096C0.111399 39.3742 0.0927734 40.0441 0.0927734 40.7167C0.0927734 51.8101 4.59202 61.8535 11.869 69.1216L18.4463 62.55C12.8455 56.9568 9.37863 49.2342 9.37863 40.7167Z" fill="url(#paint0_linear_18_561)"/>
<path d="M40.2955 71.612C39.7766 71.612 39.2631 71.5987 38.7496 71.5722L38.2866 80.8393C38.9518 80.8712 39.6223 80.8898 40.2955 80.8898C51.3986 80.8898 61.4507 76.3945 68.7251 69.1238L62.1478 62.5522C56.5497 68.1455 48.8204 71.612 40.2955 71.612Z" fill="url(#paint1_linear_18_561)"/>
<path d="M40.2955 71.612C39.7766 71.612 39.2631 71.5987 38.7496 71.5722L38.2866 80.8393C38.9518 80.8712 39.6223 80.8898 40.2955 80.8898C51.3986 80.8898 61.4507 76.3945 68.7251 69.1238L62.1478 62.5522C56.5497 68.1455 48.8204 71.612 40.2955 71.612Z" fill="url(#paint2_linear_18_561)"/>
<path d="M40.2967 9.82646C40.8155 9.82646 41.329 9.84508 41.8426 9.869L42.3055 0.596531C41.6403 0.56463 40.9698 0.546021 40.2967 0.546021C29.1936 0.546021 19.1414 5.04135 11.8671 12.3121L18.4443 18.8836C24.0424 13.2903 31.7745 9.82646 40.2967 9.82646Z" fill="url(#paint3_linear_18_561)"/>
<path d="M40.2955 71.612C39.7767 71.612 39.2632 71.5987 38.7497 71.5722L38.2867 80.8393C38.9519 80.8712 39.6224 80.8898 40.2955 80.8898C51.3986 80.8898 61.4508 76.3945 68.7251 69.1238L62.1479 62.5522C56.5498 68.1455 48.8204 71.612 40.2955 71.612Z" fill="#A3CD39"/>
<path d="M62.148 62.5522L68.7252 69.1238C67.4014 70.4469 65.9856 71.6781 64.4883 72.807L61.2213 63.4408C61.5363 63.1509 61.8452 62.8547 62.148 62.5522Z" fill="#21A038"/>
<mask id="mask0_18_561" style="mask-type:alpha" maskUnits="userSpaceOnUse" x="38" y="62" width="31" height="19">
<path d="M40.2955 71.612C39.7767 71.612 39.2632 71.5987 38.7497 71.5722L38.2867 80.8393C38.9519 80.8712 39.6224 80.8898 40.2955 80.8898C51.3986 80.8898 61.4508 76.3945 68.7251 69.1238L62.1479 62.5522C56.5498 68.1455 48.8204 71.612 40.2955 71.612Z" fill="#A3CD39"/>
</mask>
<g mask="url(#mask0_18_561)">
<mask id="mask1_18_561" style="mask-type:alpha" maskUnits="userSpaceOnUse" x="39" y="63" width="27" height="20">
<rect width="12.3488" height="22.9019" transform="matrix(0.329456 0.944171 -0.944337 0.328981 61.1667 63.267)" fill="url(#paint4_linear_18_561)"/>
</mask>
<g mask="url(#mask1_18_561)">
<rect width="12.3488" height="22.9019" transform="matrix(0.329456 0.944171 -0.944337 0.328981 61.1667 63.267)" fill="#21A038"/>
</g>
</g>
<path d="M57.7268 15.2177L65.5466 9.4596C58.6448 3.88762 49.8618 0.546021 40.2966 0.546021V9.82646C46.7594 9.82646 52.7619 11.8176 57.7268 15.2177Z" fill="url(#paint5_linear_18_561)"/>
<path d="M80.5016 40.7186C80.5016 38.2622 80.2808 35.8564 79.8578 33.5223L71.2025 39.8945C71.2105 40.1683 71.2131 40.4421 71.2131 40.7186C71.2131 49.789 67.2806 57.9583 61.028 63.6153L67.2673 70.5059C75.3958 63.1581 80.5016 52.5351 80.5016 40.7186Z" fill="#21A038"/>
<path d="M40.2957 71.6072C31.2174 71.6072 23.0411 67.6781 17.3791 61.4309L10.4825 67.6648C17.8394 75.7835 28.4716 80.885 40.2957 80.885V71.6072Z" fill="url(#paint6_linear_18_561)"/>
<path d="M19.5638 17.8238L13.3244 10.9332C5.19866 18.2837 0.0927734 28.9066 0.0927734 40.7205H9.38129C9.37863 31.6501 13.3111 23.4808 19.5638 17.8238Z" fill="url(#paint7_linear_18_561)"/>
<path d="M127.211 36.2327C121.603 34.9124 116.759 33.7701 116.759 29.865C116.759 24.6289 123.209 24.0631 125.982 24.0631C129.827 24.0631 132.012 24.5917 134.876 25.8908C136.266 24.868 142.604 20.2005 142.604 20.2005C138.428 17.5413 132.153 15.4612 126.051 15.4612C111.511 15.4612 106.329 23.1891 106.329 30.4202C106.329 40.8339 115.393 43.0043 123.387 44.917C129.005 46.2612 133.855 47.4221 133.855 51.391C133.855 53.4285 132.64 56.8449 124.496 56.8449C119.091 56.8449 113.17 54.9481 108.967 51.8851L105.433 59.961C109.716 63.2976 117.145 65.4468 124.43 65.4468C136.492 65.4468 144.287 59.6024 144.287 50.5568C144.287 40.2547 135.216 38.1189 127.211 36.2327Z" fill="#21A038"/>
<path d="M188.464 39.6942L187.964 39.5295L188.427 39.2798C192.407 37.1227 194.598 33.3823 194.598 28.7519C194.598 20.9549 187.983 16.3007 176.904 16.3007H154.002V64.6126H178.258C190.323 64.6126 196.967 59.969 196.967 51.5344C196.964 45.791 193.867 41.4767 188.464 39.6942ZM164.435 24.342H175.551C182.559 24.342 184.03 27.5697 184.03 30.2475C184.03 34.1341 181.097 36.153 175.551 36.153H164.435V24.342V24.342ZM164.435 36.153H175.551H164.435ZM177.444 56.5659H164.435V44.197H177.444C183.384 44.197 186.396 46.2559 186.396 50.3815C186.396 54.5204 183.469 56.5659 177.444 56.5659Z" fill="#21A038"/>
<path d="M232.314 24.342L243.236 16.298H206.679V64.6099H243.236V56.5659H217.112V44.197H239.397V36.153H217.112V24.342H232.314Z" fill="#21A038"/>
<path d="M294.19 64.6099L283.569 48.915C289.835 46.1841 293.448 40.7993 293.448 33.5868C293.448 22.9234 285.557 16.298 272.857 16.298H252.954V64.6099H263.386V50.9261H272.857C273.155 50.9261 273.447 50.9181 273.739 50.9101L283.01 64.6099H294.19ZM263.384 24.342H272.631C279.315 24.342 282.997 27.6335 282.997 33.6107C282.997 39.5879 279.315 42.8794 272.631 42.8794H263.384V24.342Z" fill="#21A038"/>
<defs>
<linearGradient id="paint0_linear_18_561" x1="13.7463" y1="67.9614" x2="3.61347" y2="38.6462" gradientUnits="userSpaceOnUse">
<stop offset="0.1444" stop-color="#F2E913"/>
<stop offset="0.3037" stop-color="#E7E518"/>
<stop offset="0.5823" stop-color="#CADB26"/>
<stop offset="0.891" stop-color="#A3CD39"/>
</linearGradient>
<linearGradient id="paint1_linear_18_561" x1="37.6747" y1="75.2922" x2="67.2303" y2="68.6065" gradientUnits="userSpaceOnUse">
<stop offset="0.1226" stop-color="#A3CD39"/>
<stop offset="0.2846" stop-color="#86C339"/>
<stop offset="0.8693" stop-color="#21A038"/>
</linearGradient>
<linearGradient id="paint2_linear_18_561" x1="37.6747" y1="75.2922" x2="67.2303" y2="68.6065" gradientUnits="userSpaceOnUse">
<stop offset="0.1226" stop-color="#A3CD39"/>
<stop offset="0.2846" stop-color="#86C339"/>
<stop offset="0.8693" stop-color="#21A038"/>
</linearGradient>
<linearGradient id="paint3_linear_18_561" x1="14.5203" y1="13.9556" x2="40.6529" y2="3.98832" gradientUnits="userSpaceOnUse">
<stop offset="0.0592" stop-color="#0FA8E0"/>
<stop offset="0.5385" stop-color="#0099F9"/>
<stop offset="0.9234" stop-color="#0291EB"/>
</linearGradient>
<linearGradient id="paint4_linear_18_561" x1="6.17441" y1="0" x2="6.17441" y2="22.9019" gradientUnits="userSpaceOnUse">
<stop/>
<stop offset="1" stop-opacity="0"/>
</linearGradient>
<linearGradient id="paint5_linear_18_561" x1="38.3536" y1="3.65708" x2="63.6212" y2="11.46" gradientUnits="userSpaceOnUse">
<stop offset="0.0566" stop-color="#0291EB"/>
<stop offset="0.79" stop-color="#0C8ACB"/>
</linearGradient>
<linearGradient id="paint6_linear_18_561" x1="12.8116" y1="66.5369" x2="40.314" y2="76.8217" gradientUnits="userSpaceOnUse">
<stop offset="0.1324" stop-color="#F2E913"/>
<stop offset="0.2977" stop-color="#EBE716"/>
<stop offset="0.5306" stop-color="#D9E01F"/>
<stop offset="0.8023" stop-color="#BBD62D"/>
<stop offset="0.9829" stop-color="#A3CD39"/>
</linearGradient>
<linearGradient id="paint7_linear_18_561" x1="3.55015" y1="41.8462" x2="14.5754" y2="13.1404" gradientUnits="userSpaceOnUse">
<stop offset="0.0698" stop-color="#A3CD39"/>
<stop offset="0.2599" stop-color="#81C55F"/>
<stop offset="0.9216" stop-color="#0FA8E0"/>
</linearGradient>
</defs>
</svg>
