<svg width="296" height="82" viewBox="0 0 296 82" fill="none" xmlns="http://www.w3.org/2000/svg">
<path d="M234.344 24.3288L245.241 16.2789H208.77V64.6261H245.241V56.5762H219.179V44.1983H241.411V36.1484H219.179V24.3288H234.344Z" fill="black"/>
<path d="M181.238 35.1249H168.572V24.3288H188.793L199.69 16.2789H158.163V64.6235H179.896C192.085 64.6235 199.077 59.0885 199.077 49.4355C199.077 40.2079 192.743 35.1249 181.238 35.1249ZM179.426 56.5762H168.572V43.1748H179.426C186.034 43.1748 189.111 45.4159 189.111 49.8742C189.111 54.4308 185.851 56.5762 179.426 56.5762Z" fill="black"/>
<path d="M274.791 16.2789H254.934V64.6235H265.343V50.9296H274.791C287.463 50.9296 295.336 44.2515 295.336 33.5803C295.336 22.9092 287.463 16.2789 274.791 16.2789ZM274.568 42.8797H265.343V24.3288H274.568C281.237 24.3288 284.911 27.6227 284.911 33.6043C284.911 39.5859 281.237 42.8797 274.568 42.8797Z" fill="black"/>
<path d="M140.298 54.1571C137.629 55.6325 134.52 56.4141 131.313 56.4141C121.928 56.4141 115.119 49.7015 115.119 40.4526C115.119 31.2037 121.931 24.491 131.313 24.491C134.862 24.491 138.045 25.4906 140.78 27.4605L148.245 21.9468L147.751 21.5135C143.393 17.6747 137.568 15.6462 130.91 15.6462C123.687 15.6462 117.129 18.0867 112.45 22.5211C107.742 26.9794 105.15 33.2534 105.15 40.1867C105.15 47.152 107.734 53.519 112.424 58.1129C117.129 62.7227 123.671 65.2616 130.844 65.2616C138.348 65.2616 144.9 62.6403 149.34 57.8683C145.913 55.3374 142.605 52.8943 142.605 52.8943L140.298 54.1571Z" fill="black"/>
<path d="M41.0309 39.8859L25.773 30.2994V41.8319L41.0309 51.4184L77.555 24.4427C76.2631 21.5875 74.645 18.9104 72.751 16.4566L41.0309 39.8859Z" fill="black"/>
<path d="M81.1148 41.0184C81.1148 38.562 80.8946 36.156 80.4728 33.8219L71.8438 40.1943C71.8518 40.4681 71.8544 40.7419 71.8544 41.0184C71.8544 58.0513 58.0263 71.91 41.0309 71.91C24.0355 71.91 10.2073 58.0513 10.2073 41.0184C10.2073 23.9855 24.0355 10.1268 41.0309 10.1268C47.4715 10.1268 53.4584 12.118 58.4083 15.5182L66.2043 9.75992C59.3234 4.18773 50.5671 0.846008 41.0309 0.846008C18.892 0.846008 0.946991 18.8307 0.946991 41.0184C0.946991 63.2061 18.892 81.1908 41.0309 81.1908C63.1697 81.1908 81.1148 63.2035 81.1148 41.0184Z" fill="black"/>
</svg>
