<svg width="285" height="284" viewBox="0 0 285 284" fill="none" xmlns="http://www.w3.org/2000/svg">
<mask id="mask0_26382_27984" style="mask-type:alpha" maskUnits="userSpaceOnUse" x="4" y="3" width="278" height="278">
<path d="M4.65936 145.204C6.43639 221.502 69.7337 281.918 146.032 280.141C222.331 278.364 282.746 215.067 280.969 138.768C279.192 62.47 215.938 2.05309 139.639 3.83012C63.3409 5.60716 2.88233 68.9054 4.65936 145.204Z" fill="white"/>
</mask>
<g mask="url(#mask0_26382_27984)">
<g filter="url(#filter0_f_26382_27984)">
<path d="M4.65936 145.204C6.43639 221.502 69.7337 281.918 146.032 280.141C222.331 278.364 282.746 215.067 280.969 138.768C279.192 62.47 215.938 2.05309 139.639 3.83013C63.3409 5.60716 2.88233 68.9054 4.65936 145.204Z" fill="url(#paint0_radial_26382_27984)"/>
</g>
</g>
<mask id="mask1_26382_27984" style="mask-type:alpha" maskUnits="userSpaceOnUse" x="3" y="104" width="278" height="176">
<path d="M275.805 104.991C281.412 125.441 282.246 146.905 278.242 167.728C274.238 188.55 265.504 208.173 252.712 225.083C239.921 241.992 223.416 255.735 204.47 265.251C185.524 274.767 164.645 279.801 143.444 279.965C122.243 280.129 101.287 275.418 82.1953 266.196C63.1031 256.974 46.3848 243.487 33.331 226.778C20.2772 210.068 11.237 190.582 6.90843 169.824C2.57982 149.066 3.07853 127.591 8.36606 107.057L142.363 141.582L275.805 104.991Z" fill="#D9D9D9"/>
</mask>
<g mask="url(#mask1_26382_27984)">
<ellipse cx="138.376" cy="138.381" rx="138.376" ry="138.381" transform="matrix(0.971671 0.236336 -0.23618 0.971709 40.5903 -25.5879)" fill="#00D900"/>
<g filter="url(#filter1_f_26382_27984)">
<ellipse cx="64.6414" cy="64.5591" rx="64.6414" ry="64.5591" transform="matrix(0.0881269 0.996151 -0.996075 0.0880398 191.158 83.8418)" fill="#42E3B4"/>
</g>
<g filter="url(#filter2_f_26382_27984)">
<ellipse cx="84.5411" cy="86.2737" rx="84.5411" ry="86.2737" transform="matrix(0.0881269 0.996151 -0.996075 0.0880398 69.8186 90.9746)" fill="#21A038"/>
</g>
<g filter="url(#filter3_f_26382_27984)">
<ellipse cx="89.8247" cy="87.4897" rx="89.8247" ry="87.4897" transform="matrix(0.0881269 0.996151 -0.996075 0.0880398 300.406 141.592)" fill="#A0E720"/>
</g>
<g filter="url(#filter4_f_26382_27984)">
<ellipse cx="53.5295" cy="52.138" rx="53.5295" ry="52.138" transform="matrix(0.0881269 0.996151 -0.996075 0.0880398 298.728 154.037)" fill="#FAED00"/>
</g>
<g filter="url(#filter5_f_26382_27984)">
<ellipse cx="67.0709" cy="65.3273" rx="67.0709" ry="65.3273" transform="matrix(0.0881269 0.996151 -0.996075 0.0880398 320.56 23.5059)" fill="white"/>
</g>
<g filter="url(#filter6_f_26382_27984)">
<ellipse cx="67.0709" cy="65.3273" rx="67.0709" ry="65.3273" transform="matrix(0.0881269 0.996151 -0.996075 0.0880398 348.877 89.2598)" fill="white"/>
</g>
<g filter="url(#filter7_f_26382_27984)">
<ellipse cx="55.2356" cy="53.7998" rx="55.2356" ry="53.7998" transform="matrix(0.0881269 0.996151 -0.996075 0.0880398 125.883 52.1387)" fill="#00ADEE"/>
</g>
<g filter="url(#filter8_f_26382_27984)">
<ellipse cx="71.6313" cy="72.6906" rx="71.6313" ry="72.6906" transform="matrix(0.0881269 0.996151 -0.996075 0.0880398 57.1135 28.082)" fill="#0087CD"/>
</g>
<g filter="url(#filter9_f_26382_27984)">
<ellipse cx="73.5387" cy="86.5443" rx="73.5387" ry="86.5443" transform="matrix(0.0881268 0.996151 -0.996075 0.0880399 285.148 42.8926)" fill="white"/>
</g>
</g>
<path d="M142.961 141.727L275.545 105.291" stroke="url(#paint1_linear_26382_27984)" stroke-miterlimit="10" stroke-linecap="round"/>
<defs>
<filter id="filter0_f_26382_27984" x="-15.3789" y="-16.209" width="316.386" height="316.389" filterUnits="userSpaceOnUse" color-interpolation-filters="sRGB">
<feFlood flood-opacity="0" result="BackgroundImageFix"/>
<feBlend mode="normal" in="SourceGraphic" in2="BackgroundImageFix" result="shape"/>
<feGaussianBlur stdDeviation="10" result="effect1_foregroundBlur_26382_27984"/>
</filter>
<filter id="filter1_f_26382_27984" x="-32.0125" y="-10.7285" width="329.123" height="329.293" filterUnits="userSpaceOnUse" color-interpolation-filters="sRGB">
<feFlood flood-opacity="0" result="BackgroundImageFix"/>
<feBlend mode="normal" in="SourceGraphic" in2="BackgroundImageFix" result="shape"/>
<feGaussianBlur stdDeviation="50" result="effect1_foregroundBlur_26382_27984"/>
</filter>
<filter id="filter2_f_26382_27984" x="-154.929" y="38.2227" width="292.525" height="289.125" filterUnits="userSpaceOnUse" color-interpolation-filters="sRGB">
<feFlood flood-opacity="0" result="BackgroundImageFix"/>
<feBlend mode="normal" in="SourceGraphic" in2="BackgroundImageFix" result="shape"/>
<feGaussianBlur stdDeviation="30" result="effect1_foregroundBlur_26382_27984"/>
</filter>
<filter id="filter3_f_26382_27984" x="73.6655" y="88.959" width="295.021" height="299.629" filterUnits="userSpaceOnUse" color-interpolation-filters="sRGB">
<feFlood flood-opacity="0" result="BackgroundImageFix"/>
<feBlend mode="normal" in="SourceGraphic" in2="BackgroundImageFix" result="shape"/>
<feGaussianBlur stdDeviation="30" result="effect1_foregroundBlur_26382_27984"/>
</filter>
<filter id="filter4_f_26382_27984" x="149.362" y="108.428" width="204.301" height="207.047" filterUnits="userSpaceOnUse" color-interpolation-filters="sRGB">
<feFlood flood-opacity="0" result="BackgroundImageFix"/>
<feBlend mode="normal" in="SourceGraphic" in2="BackgroundImageFix" result="shape"/>
<feGaussianBlur stdDeviation="25" result="effect1_foregroundBlur_26382_27984"/>
</filter>
<filter id="filter5_f_26382_27984" x="96.0566" y="-70.9941" width="330.686" height="334.127" filterUnits="userSpaceOnUse" color-interpolation-filters="sRGB">
<feFlood flood-opacity="0" result="BackgroundImageFix"/>
<feBlend mode="normal" in="SourceGraphic" in2="BackgroundImageFix" result="shape"/>
<feGaussianBlur stdDeviation="50" result="effect1_foregroundBlur_26382_27984"/>
</filter>
<filter id="filter6_f_26382_27984" x="184.374" y="54.7598" width="210.686" height="214.127" filterUnits="userSpaceOnUse" color-interpolation-filters="sRGB">
<feFlood flood-opacity="0" result="BackgroundImageFix"/>
<feBlend mode="normal" in="SourceGraphic" in2="BackgroundImageFix" result="shape"/>
<feGaussianBlur stdDeviation="20" result="effect1_foregroundBlur_26382_27984"/>
</filter>
<filter id="filter7_f_26382_27984" x="-66.6504" y="-33.332" width="287.625" height="290.461" filterUnits="userSpaceOnUse" color-interpolation-filters="sRGB">
<feFlood flood-opacity="0" result="BackgroundImageFix"/>
<feBlend mode="normal" in="SourceGraphic" in2="BackgroundImageFix" result="shape"/>
<feGaussianBlur stdDeviation="45" result="effect1_foregroundBlur_26382_27984"/>
</filter>
<filter id="filter8_f_26382_27984" x="-131.664" y="-15.8086" width="245.369" height="243.293" filterUnits="userSpaceOnUse" color-interpolation-filters="sRGB">
<feFlood flood-opacity="0" result="BackgroundImageFix"/>
<feBlend mode="normal" in="SourceGraphic" in2="BackgroundImageFix" result="shape"/>
<feGaussianBlur stdDeviation="25" result="effect1_foregroundBlur_26382_27984"/>
</filter>
<filter id="filter9_f_26382_27984" x="78.9727" y="10.1113" width="252.904" height="227.312" filterUnits="userSpaceOnUse" color-interpolation-filters="sRGB">
<feFlood flood-opacity="0" result="BackgroundImageFix"/>
<feBlend mode="normal" in="SourceGraphic" in2="BackgroundImageFix" result="shape"/>
<feGaussianBlur stdDeviation="20" result="effect1_foregroundBlur_26382_27984"/>
</filter>
<radialGradient id="paint0_radial_26382_27984" cx="0" cy="0" r="1" gradientUnits="userSpaceOnUse" gradientTransform="translate(136.658 134.33) rotate(53.6275) scale(140.853 131.765)">
<stop offset="0.821487" stop-color="#EEF3FF" stop-opacity="0"/>
<stop offset="1" stop-color="#EEF3FF"/>
</radialGradient>
<linearGradient id="paint1_linear_26382_27984" x1="141.087" y1="140.322" x2="275.774" y2="105.673" gradientUnits="userSpaceOnUse">
<stop stop-color="#42E3B4"/>
<stop offset="0.917082" stop-color="white"/>
</linearGradient>
</defs>
</svg>
