<svg width="497" height="89" viewBox="0 0 497 89" fill="none" xmlns="http://www.w3.org/2000/svg">
<path d="M72.3488 16.9436C74.2366 19.3865 75.8493 22.0546 77.1369 24.9029L40.7332 51.7881L25.5256 42.2338V30.7399L40.7332 40.2943L72.3488 16.9436Z" fill="#21A038"/>
<path d="M10.0118 41.4191C10.0118 40.9025 10.025 40.3911 10.0514 39.8797L0.834841 39.4187C0.803115 40.0811 0.784607 40.7488 0.784607 41.4191C0.784607 52.4758 5.25542 62.4858 12.4864 69.7297L19.0221 63.18C13.4568 57.6053 10.0118 49.9083 10.0118 41.4191Z" fill="url(#paint0_linear_21_902)"/>
<path d="M40.7332 72.2118C40.2177 72.2118 39.7074 72.1986 39.1971 72.1721L38.7371 81.4085C39.398 81.4403 40.0643 81.4588 40.7332 81.4588C51.7662 81.4588 61.7548 76.9784 68.9832 69.7318L62.4475 63.1821C56.8847 68.7568 49.2042 72.2118 40.7332 72.2118Z" fill="url(#paint1_linear_21_902)"/>
<path d="M40.7332 72.2118C40.2177 72.2118 39.7074 72.1986 39.1971 72.1721L38.7371 81.4085C39.398 81.4403 40.0643 81.4588 40.7332 81.4588C51.7662 81.4588 61.7548 76.9784 68.9832 69.7318L62.4475 63.1821C56.8847 68.7568 49.2042 72.2118 40.7332 72.2118Z" fill="url(#paint2_linear_21_902)"/>
<path d="M40.7345 10.6312C41.25 10.6312 41.7603 10.6498 42.2706 10.6736L42.7306 1.43193C42.0696 1.40014 41.4034 1.38159 40.7345 1.38159C29.7015 1.38159 19.7129 5.86201 12.4845 13.1086L19.0202 19.6583C24.5829 14.0836 32.2661 10.6312 40.7345 10.6312Z" fill="url(#paint3_linear_21_902)"/>
<path d="M40.7332 72.2121C40.2177 72.2121 39.7074 72.1988 39.1971 72.1723L38.7371 81.4087C39.398 81.4405 40.0643 81.4591 40.7332 81.4591C51.7662 81.4591 61.7548 76.9786 68.9832 69.7321L62.4475 63.1824C56.8847 68.7571 49.2042 72.2121 40.7332 72.2121Z" fill="#A3CD39"/>
<path d="M62.4475 63.1824L68.9832 69.7321C67.6677 71.0508 66.2609 72.2779 64.773 73.4031L61.5267 64.0679C61.8397 63.7791 62.1467 63.4838 62.4475 63.1824Z" fill="#21A038"/>
<mask id="mask0_21_902" style="mask-type:alpha" maskUnits="userSpaceOnUse" x="38" y="63" width="31" height="19">
<path d="M40.7332 72.2121C40.2177 72.2121 39.7074 72.1988 39.1971 72.1723L38.7371 81.4087C39.398 81.4405 40.0643 81.4591 40.7332 81.4591C51.7662 81.4591 61.7548 76.9786 68.9832 69.7321L62.4475 63.1824C56.8847 68.7571 49.2042 72.2121 40.7332 72.2121Z" fill="#A3CD39"/>
</mask>
<g mask="url(#mask0_21_902)">
<mask id="mask1_21_902" style="mask-type:alpha" maskUnits="userSpaceOnUse" x="39" y="63" width="27" height="21">
<rect width="12.3038" height="22.7647" transform="matrix(0.328571 0.944479 -0.944028 0.329866 61.4725 63.8945)" fill="url(#paint4_linear_21_902)"/>
</mask>
<g mask="url(#mask1_21_902)">
<rect width="12.3038" height="22.7647" transform="matrix(0.328571 0.944479 -0.944028 0.329866 61.4725 63.8945)" fill="#21A038"/>
</g>
</g>
<path d="M58.0544 16.0045L65.8248 10.2656C58.9665 4.7121 50.2391 1.38159 40.7343 1.38159V10.6312C47.1563 10.6312 53.1209 12.6158 58.0544 16.0045Z" fill="url(#paint5_linear_21_902)"/>
<path d="M80.6854 41.4209C80.6854 38.9727 80.4659 36.5749 80.0455 34.2485L71.445 40.5995C71.4529 40.8724 71.4555 41.1454 71.4555 41.4209C71.4555 50.4612 67.5479 58.6034 61.3347 64.2416L67.5346 71.1093C75.6117 63.7859 80.6854 53.1982 80.6854 41.4209Z" fill="#21A038"/>
<path d="M40.7335 72.207C31.7125 72.207 23.5879 68.2909 17.9617 62.0645L11.1087 68.2777C18.4191 76.3694 28.984 81.454 40.7335 81.454V72.207Z" fill="url(#paint6_linear_21_902)"/>
<path d="M20.1326 18.6023L13.9327 11.7346C5.85823 19.0607 0.784607 29.6484 0.784607 41.4231H10.0144C10.0118 32.3827 13.9194 24.2406 20.1326 18.6023Z" fill="url(#paint7_linear_21_902)"/>
<path d="M233.407 25.0854L244.268 17.0623H207.918V65.2491H244.268V57.2259H218.292V44.889H240.45V36.8658H218.292V25.0854H233.407Z" fill="#21A038"/>
<path d="M180.477 35.8457H167.853V25.0854H188.007L198.868 17.0623H157.479V65.2464H179.14C191.288 65.2464 198.257 59.7298 198.257 50.1089C198.257 40.9119 191.944 35.8457 180.477 35.8457ZM178.672 57.2259H167.853V43.8689H178.672C185.257 43.8689 188.324 46.1026 188.324 50.5461C188.324 55.0876 185.075 57.2259 178.672 57.2259Z" fill="#21A038"/>
<path d="M273.72 17.0623H253.928V65.2464H264.302V51.598H273.72C286.349 51.598 294.196 44.942 294.196 34.3063C294.196 23.6705 286.349 17.0623 273.72 17.0623ZM273.498 43.5748H264.302V25.0854H273.498C280.144 25.0854 283.806 28.3684 283.806 34.3301C283.806 40.2919 280.144 43.5748 273.498 43.5748Z" fill="#21A038"/>
<path d="M139.672 54.8147C137.013 56.2852 133.914 57.0642 130.718 57.0642C121.364 57.0642 114.577 50.3738 114.577 41.1557C114.577 31.9375 121.367 25.2471 130.718 25.2471C134.255 25.2471 137.428 26.2433 140.154 28.2067L147.593 22.7113L147.102 22.2795C142.758 18.4533 136.952 16.4316 130.316 16.4316C123.117 16.4316 116.581 18.864 111.918 23.2837C107.225 27.7272 104.642 33.9804 104.642 40.8907C104.642 47.8328 107.217 54.1788 111.891 58.7574C116.581 63.3519 123.101 65.8823 130.25 65.8823C137.729 65.8823 144.26 63.2698 148.685 58.5136C145.269 55.9911 141.973 53.5561 141.973 53.5561L139.672 54.8147Z" fill="#21A038"/>
<path d="M356.941 23.0919H327.822V65.572H321.655V17.6106H363.107V65.572H356.941V23.0919ZM375.419 31.3139H380.832V37.8914C381.7 35.8816 383.161 34.1687 385.217 32.7527C387.272 31.3367 390.036 30.6287 393.507 30.6287C398.075 30.6287 401.706 31.9762 404.401 34.6712C407.096 37.3661 408.444 41.7055 408.444 47.6893C408.444 51.0694 408.078 53.9471 407.348 56.3223C406.662 58.6519 405.635 60.5703 404.264 62.0777C402.94 63.5394 401.318 64.6128 399.4 65.298C397.481 65.9831 395.289 66.3257 392.822 66.3257C389.944 66.3257 387.501 65.7319 385.491 64.5443C383.527 63.311 382.065 61.895 381.106 60.2963V77.905H375.419V31.3139ZM381.106 49.8818C381.106 53.4446 382.088 56.231 384.052 58.2408C386.062 60.2049 388.688 61.187 391.931 61.187C395.677 61.187 398.395 60.1821 400.085 58.1723C401.821 56.1624 402.689 52.7823 402.689 48.0318C402.689 45.748 402.437 43.8295 401.935 42.2765C401.432 40.6778 400.702 39.3988 399.742 38.4396C398.829 37.4803 397.71 36.7952 396.385 36.3841C395.06 35.973 393.599 35.7674 392 35.7674C388.437 35.7674 385.742 36.7266 383.915 38.6451C382.134 40.5179 381.197 43.1672 381.106 46.593V49.8818ZM414.032 48.3059C414.032 45.3369 414.466 42.7561 415.334 40.5636C416.202 38.3254 417.39 36.4754 418.897 35.0137C420.404 33.5521 422.186 32.4558 424.241 31.725C426.297 30.9941 428.535 30.6287 430.956 30.6287C436.346 30.6744 440.525 32.1817 443.494 35.1508C446.463 38.1198 447.948 42.5962 447.948 48.58C447.948 51.549 447.514 54.1526 446.646 56.3908C445.778 58.5834 444.591 60.4105 443.083 61.8721C441.576 63.3338 439.794 64.4301 437.739 65.1609C435.683 65.8918 433.445 66.2572 431.024 66.2572C425.589 66.2115 421.386 64.727 418.417 61.8036C415.494 58.8346 414.032 54.3353 414.032 48.3059ZM419.788 48.5115C419.788 52.9422 420.747 56.1853 422.665 58.2408C424.584 60.2963 427.37 61.324 431.024 61.324C434.633 61.324 437.396 60.2734 439.315 58.1723C441.233 56.0254 442.192 52.828 442.192 48.58V48.3744C442.192 43.9894 441.21 40.7691 439.246 38.7136C437.328 36.6581 434.564 35.6075 430.956 35.5619C427.347 35.5619 424.584 36.6353 422.665 38.7821C420.747 40.8833 419.788 44.0579 419.788 48.3059V48.5115Z" fill="#21A038"/>
<defs>
<linearGradient id="paint0_linear_21_902" x1="14.3518" y1="68.5734" x2="4.22868" y2="39.3744" gradientUnits="userSpaceOnUse">
<stop offset="0.1444" stop-color="#F2E913"/>
<stop offset="0.3037" stop-color="#E7E518"/>
<stop offset="0.5823" stop-color="#CADB26"/>
<stop offset="0.891" stop-color="#A3CD39"/>
</linearGradient>
<linearGradient id="paint1_linear_21_902" x1="38.129" y1="75.8798" x2="67.5064" y2="69.2544" gradientUnits="userSpaceOnUse">
<stop offset="0.1226" stop-color="#A3CD39"/>
<stop offset="0.2846" stop-color="#86C339"/>
<stop offset="0.8693" stop-color="#21A038"/>
</linearGradient>
<linearGradient id="paint2_linear_21_902" x1="38.129" y1="75.8798" x2="67.5064" y2="69.2544" gradientUnits="userSpaceOnUse">
<stop offset="0.1226" stop-color="#A3CD39"/>
<stop offset="0.2846" stop-color="#86C339"/>
<stop offset="0.8693" stop-color="#21A038"/>
</linearGradient>
<linearGradient id="paint3_linear_21_902" x1="15.121" y1="14.7467" x2="41.1083" y2="4.86464" gradientUnits="userSpaceOnUse">
<stop offset="0.0592" stop-color="#0FA8E0"/>
<stop offset="0.5385" stop-color="#0099F9"/>
<stop offset="0.9234" stop-color="#0291EB"/>
</linearGradient>
<linearGradient id="paint4_linear_21_902" x1="6.15191" y1="0" x2="6.15191" y2="22.7647" gradientUnits="userSpaceOnUse">
<stop/>
<stop offset="1" stop-opacity="0"/>
</linearGradient>
<linearGradient id="paint5_linear_21_902" x1="38.8036" y1="4.48233" x2="63.9247" y2="12.2167" gradientUnits="userSpaceOnUse">
<stop offset="0.0566" stop-color="#0291EB"/>
<stop offset="0.79" stop-color="#0C8ACB"/>
</linearGradient>
<linearGradient id="paint6_linear_21_902" x1="13.4231" y1="67.1535" x2="40.7718" y2="77.35" gradientUnits="userSpaceOnUse">
<stop offset="0.1324" stop-color="#F2E913"/>
<stop offset="0.2977" stop-color="#EBE716"/>
<stop offset="0.5306" stop-color="#D9E01F"/>
<stop offset="0.8023" stop-color="#BBD62D"/>
<stop offset="0.9829" stop-color="#A3CD39"/>
</linearGradient>
<linearGradient id="paint7_linear_21_902" x1="4.22013" y1="42.545" x2="15.2334" y2="13.9567" gradientUnits="userSpaceOnUse">
<stop offset="0.0698" stop-color="#A3CD39"/>
<stop offset="0.2599" stop-color="#81C55F"/>
<stop offset="0.9216" stop-color="#0FA8E0"/>
</linearGradient>
</defs>
</svg>
