<svg width="479" height="89" viewBox="0 0 479 89" fill="none" xmlns="http://www.w3.org/2000/svg">
<path d="M41.0309 40.886L25.773 31.2995V42.8321L41.0309 52.4186L77.555 25.4429C76.2632 22.5877 74.6451 19.9106 72.7511 17.4568L41.0309 40.886Z" fill="white"/>
<path d="M81.1149 42.0186C81.1149 39.5622 80.8947 37.1562 80.4729 34.8221L71.8439 41.1945C71.8519 41.4683 71.8545 41.7421 71.8545 42.0186C71.8545 59.0515 58.0264 72.9102 41.031 72.9102C24.0356 72.9102 10.2074 59.0515 10.2074 42.0186C10.2074 24.9857 24.0356 11.127 41.031 11.127C47.4716 11.127 53.4585 13.1182 58.4083 16.5184L66.2044 10.7601C59.3235 5.18791 50.5672 1.84619 41.031 1.84619C18.8921 1.84619 0.947083 19.8309 0.947083 42.0186C0.947083 64.2063 18.8921 82.191 41.031 82.191C63.1698 82.191 81.1149 64.2037 81.1149 42.0186Z" fill="white"/>
<path d="M234.344 25.3287L245.241 17.2788H208.77V65.6261H245.241V57.5762H219.179V45.1982H241.41V37.1483H219.179V25.3287H234.344Z" fill="white"/>
<path d="M181.238 36.1248H168.572V25.3287H188.793L199.69 17.2788H158.163V65.6234H179.896C192.085 65.6234 199.077 60.0884 199.077 50.4355C199.077 41.2079 192.743 36.1248 181.238 36.1248ZM179.426 57.5762H168.572V44.1747H179.426C186.034 44.1747 189.111 46.4158 189.111 50.8741C189.111 55.4308 185.851 57.5762 179.426 57.5762Z" fill="white"/>
<path d="M274.791 17.2788H254.934V65.6234H265.343V51.9295H274.791C287.463 51.9295 295.336 45.2514 295.336 34.5802C295.336 23.9091 287.463 17.2788 274.791 17.2788ZM274.568 43.8796H265.343V25.3287H274.568C281.237 25.3287 284.911 28.6226 284.911 34.6042C284.911 40.5858 281.237 43.8796 274.568 43.8796Z" fill="white"/>
<path d="M140.297 55.1568C137.629 56.6323 134.52 57.4139 131.313 57.4139C121.928 57.4139 115.119 50.7012 115.119 41.4523C115.119 32.2035 121.931 25.4908 131.313 25.4908C134.862 25.4908 138.045 26.4904 140.78 28.4603L148.245 22.9466L147.751 22.5133C143.393 18.6744 137.568 16.646 130.91 16.646C123.687 16.646 117.129 19.0865 112.45 23.5208C107.742 27.9791 105.15 34.2532 105.15 41.1865C105.15 48.1517 107.734 54.5188 112.424 59.1127C117.129 63.7225 123.671 66.2613 130.843 66.2613C138.348 66.2613 144.9 63.6401 149.34 58.8681C145.913 56.3372 142.605 53.8941 142.605 53.8941L140.297 55.1568Z" fill="white"/>
<path d="M358.289 22.6409H329.073V65.2625H322.886V17.1413H364.476V65.2625H358.289V22.6409ZM376.829 30.8902H382.26V37.4897C383.131 35.4732 384.597 33.7546 386.659 32.3338C388.722 30.9131 391.494 30.2028 394.978 30.2028C399.56 30.2028 403.204 31.5547 405.908 34.2587C408.612 36.9626 409.964 41.3165 409.964 47.3201C409.964 50.7115 409.597 53.5988 408.864 55.9819C408.176 58.3193 407.145 60.2441 405.77 61.7565C404.441 63.223 402.814 64.3 400.89 64.9875C398.965 65.6749 396.765 66.0186 394.29 66.0186C391.403 66.0186 388.951 65.4229 386.934 64.2313C384.964 62.9939 383.497 61.5732 382.535 59.9691V77.6365H376.829V30.8902ZM382.535 49.52C382.535 53.0947 383.52 55.8903 385.491 57.9068C387.507 59.8775 390.142 60.8628 393.396 60.8628C397.154 60.8628 399.881 59.8546 401.577 57.838C403.319 55.8215 404.189 52.4301 404.189 47.6639C404.189 45.3724 403.937 43.4475 403.433 41.8893C402.929 40.2853 402.196 39.0021 401.233 38.0396C400.317 37.0772 399.194 36.3898 397.865 35.9773C396.536 35.5648 395.069 35.3586 393.465 35.3586C389.89 35.3586 387.186 36.321 385.353 38.2459C383.566 40.1249 382.626 42.783 382.535 46.2202V49.52ZM415.571 47.9388C415.571 44.9599 416.006 42.3705 416.877 40.1707C417.748 37.9251 418.939 36.069 420.452 34.6024C421.964 33.1359 423.751 32.0359 425.814 31.3027C427.876 30.5694 430.122 30.2028 432.551 30.2028C437.959 30.2486 442.152 31.761 445.131 34.7399C448.11 37.7188 449.599 42.2101 449.599 48.2138C449.599 51.1927 449.164 53.805 448.293 56.0507C447.422 58.2505 446.231 60.0837 444.718 61.5502C443.206 63.0168 441.419 64.1167 439.356 64.85C437.294 65.5833 435.048 65.9499 432.619 65.9499C427.166 65.9041 422.949 64.4146 419.97 61.4815C417.037 58.5026 415.571 53.9884 415.571 47.9388ZM421.345 48.1451C421.345 52.5906 422.308 55.8445 424.233 57.9068C426.157 59.9691 428.953 61.0003 432.619 61.0003C436.24 61.0003 439.013 59.9462 440.938 57.838C442.862 55.6841 443.825 52.476 443.825 48.2138V48.0076C443.825 43.6079 442.839 40.3769 440.869 38.3146C438.944 36.2523 436.171 35.1982 432.551 35.1524C428.93 35.1524 426.157 36.2294 424.233 38.3834C422.308 40.4915 421.345 43.6767 421.345 47.9388V48.1451Z" fill="white"/>
</svg>
