<svg width="478" height="89" viewBox="0 0 478 89" fill="none" xmlns="http://www.w3.org/2000/svg">
<path d="M41.0309 40.8863L25.773 31.2998V42.8323L41.0309 52.4188L77.555 25.4431C76.2632 22.5879 74.6451 19.9108 72.7511 17.457L41.0309 40.8863Z" fill="#21A19A"/>
<path d="M81.1149 42.0191C81.1149 39.5626 80.8947 37.1567 80.4729 34.8226L71.8439 41.1949C71.8519 41.4688 71.8545 41.7426 71.8545 42.0191C71.8545 59.052 58.0264 72.9107 41.031 72.9107C24.0356 72.9107 10.2074 59.052 10.2074 42.0191C10.2074 24.9862 24.0356 11.1275 41.031 11.1275C47.4716 11.1275 53.4585 13.1187 58.4083 16.5189L66.2044 10.7606C59.3235 5.1884 50.5672 1.84668 41.031 1.84668C18.8921 1.84668 0.947083 19.8314 0.947083 42.0191C0.947083 64.2068 18.8921 82.1915 41.031 82.1915C63.1698 82.1915 81.1149 64.2042 81.1149 42.0191Z" fill="#21A19A"/>
<path d="M234.344 25.3287L245.241 17.2788H208.77V65.6261H245.241V57.5762H219.179V45.1982H241.41V37.1483H219.179V25.3287H234.344Z" fill="#21A19A"/>
<path d="M181.238 36.1248H168.572V25.3287H188.793L199.69 17.2788H158.163V65.6234H179.896C192.085 65.6234 199.077 60.0884 199.077 50.4355C199.077 41.2079 192.743 36.1248 181.238 36.1248ZM179.426 57.5762H168.572V44.1747H179.426C186.034 44.1747 189.111 46.4158 189.111 50.8741C189.111 55.4308 185.851 57.5762 179.426 57.5762Z" fill="#21A19A"/>
<path d="M274.791 17.2788H254.934V65.6234H265.343V51.9295H274.791C287.463 51.9295 295.336 45.2514 295.336 34.5802C295.336 23.9091 287.463 17.2788 274.791 17.2788ZM274.568 43.8796H265.343V25.3287H274.568C281.237 25.3287 284.911 28.6226 284.911 34.6042C284.911 40.5858 281.237 43.8796 274.568 43.8796Z" fill="#21A19A"/>
<path d="M140.297 55.1573C137.629 56.6328 134.52 57.4144 131.313 57.4144C121.928 57.4144 115.119 50.7017 115.119 41.4528C115.119 32.204 121.931 25.4913 131.313 25.4913C134.862 25.4913 138.045 26.4909 140.78 28.4608L148.245 22.9471L147.751 22.5138C143.393 18.6749 137.568 16.6465 130.91 16.6465C123.687 16.6465 117.129 19.087 112.45 23.5213C107.742 27.9796 105.15 34.2536 105.15 41.187C105.15 48.1522 107.734 54.5193 112.424 59.1132C117.129 63.723 123.671 66.2618 130.843 66.2618C138.348 66.2618 144.9 63.6406 149.34 58.8686C145.913 56.3377 142.605 53.8946 142.605 53.8946L140.297 55.1573Z" fill="#21A19A"/>
<path d="M358.289 22.6411H329.073V65.2627H322.886V17.1416H364.476V65.2627H358.289V22.6411ZM376.829 30.8905H382.26V37.4899C383.131 35.4734 384.597 33.7548 386.659 32.3341C388.722 30.9134 391.494 30.203 394.978 30.203C399.56 30.203 403.204 31.555 405.908 34.2589C408.612 36.9629 409.964 41.3167 409.964 47.3204C409.964 50.7118 409.597 53.599 408.864 55.9822C408.176 58.3195 407.145 60.2443 405.77 61.7567C404.441 63.2233 402.814 64.3003 400.89 64.9877C398.965 65.6752 396.765 66.0189 394.29 66.0189C391.403 66.0189 388.951 65.4231 386.934 64.2315C384.964 62.9941 383.497 61.5734 382.535 59.9694V77.6367H376.829V30.8905ZM382.535 49.5202C382.535 53.0949 383.52 55.8905 385.491 57.907C387.507 59.8777 390.142 60.863 393.396 60.863C397.154 60.863 399.881 59.8548 401.577 57.8383C403.319 55.8218 404.189 52.4304 404.189 47.6641C404.189 45.3726 403.937 43.4478 403.433 41.8896C402.929 40.2855 402.196 39.0023 401.233 38.0399C400.317 37.0775 399.194 36.39 397.865 35.9775C396.536 35.5651 395.069 35.3588 393.465 35.3588C389.89 35.3588 387.186 36.3213 385.353 38.2461C383.566 40.1251 382.626 42.7832 382.535 46.2205V49.5202ZM415.571 47.9391C415.571 44.9602 416.006 42.3708 416.877 40.171C417.748 37.9253 418.939 36.0692 420.452 34.6027C421.964 33.1361 423.751 32.0362 425.814 31.3029C427.876 30.5696 430.122 30.203 432.551 30.203C437.959 30.2488 442.152 31.7612 445.131 34.7401C448.11 37.7191 449.599 42.2104 449.599 48.2141C449.599 51.193 449.164 53.8053 448.293 56.0509C447.422 58.2508 446.231 60.0839 444.718 61.5505C443.206 63.017 441.419 64.117 439.356 64.8502C437.294 65.5835 435.048 65.9501 432.619 65.9501C427.166 65.9043 422.949 64.4148 419.97 61.4817C417.037 58.5028 415.571 53.9886 415.571 47.9391ZM421.345 48.1453C421.345 52.5908 422.308 55.8447 424.233 57.907C426.157 59.9694 428.953 61.0005 432.619 61.0005C436.24 61.0005 439.013 59.9465 440.938 57.8383C442.862 55.6843 443.825 52.4762 443.825 48.2141V48.0078C443.825 43.6082 442.839 40.3772 440.869 38.3149C438.944 36.2525 436.171 35.1984 432.551 35.1526C428.93 35.1526 426.157 36.2296 424.233 38.3836C422.308 40.4918 421.345 43.6769 421.345 47.9391V48.1453Z" fill="#21A19A"/>
</svg>
