<svg width="644" height="98" viewBox="0 0 644 98" fill="none" xmlns="http://www.w3.org/2000/svg">
<path fill-rule="evenodd" clip-rule="evenodd" d="M644 0H378V98H644L622 49L644 0ZM520.23 68.0001V38.5001H527.074V58.5011L541.234 38.5001H547.783V68.0001H540.939V47.7631L526.779 68.0001H520.23ZM537.93 23.8091H544.302C544.302 30.4761 539.346 32.9541 534.272 32.9541C528.431 32.9541 523.652 30.4761 523.652 23.8091H530.024C530.024 26.2871 531.263 27.8211 534.154 27.8211C536.514 27.8211 537.93 26.7591 537.93 23.8091ZM438.751 68.0001V33.4851H416.744V68.0001H409.369V26.7001H446.126V68.0001H438.751ZM454.485 79.3871V38.5001H460.975V44.6361C462.037 41.3321 465.164 37.9101 471.418 37.9101C478.911 37.9101 484.162 42.2761 484.162 52.6011C484.162 64.2241 478.911 68.6491 470.828 68.6491C466.108 68.6491 462.863 66.2891 461.388 63.5161V79.3871H454.485ZM461.388 52.0111V54.2531C461.388 59.5631 464.456 62.5721 469.294 62.5721C474.84 62.5721 477.259 59.8581 477.259 52.8961C477.259 46.4061 474.132 44.0461 469.412 44.0461C463.984 44.0461 461.506 47.0551 461.388 52.0111ZM489.967 40.5651V49.1791C491.973 46.0521 495.1 43.9281 500.528 43.9281C504.481 43.9281 506.487 45.2261 506.487 49.4151V50.7131H499.82C492.563 50.7131 487.666 52.6011 487.666 59.3271C487.666 65.1091 491.206 68.4721 497.165 68.4721C501.885 68.4721 505.484 66.1121 506.9 62.6901V68.0001H513.39V48.5301C513.39 40.8601 509.142 37.9101 500.528 37.9101C495.454 37.9101 491.914 39.0901 489.967 40.5651ZM506.487 57.6161C506.192 59.6221 504.009 62.2771 499.348 62.2771C496.28 62.2771 494.628 60.8611 494.628 58.6191C494.628 55.9641 496.575 55.1971 500.646 55.1971H506.487V57.6161ZM581.139 48.1761V68.0001H588.042V38.5001H581.08L571.758 52.3061L562.141 38.5001H555.002V68.0001H561.905V48.1171L570.46 60.6841H572.643L581.139 48.1761Z" fill="white"/>
<path d="M280.209 29.4237L293.356 19.6001H249.356V78.6001H293.356V68.7765H261.913V53.6713H288.734V43.8477H261.913V29.4237H280.209Z" fill="white"/>
<path d="M216.161 42.5999H200.91V29.4242H225.257L238.378 19.6001H188.378V78.6001H214.545C229.221 78.6001 237.64 71.8452 237.64 60.0647C237.64 48.8032 230.013 42.5999 216.161 42.5999ZM213.98 68.7792H200.91V52.424H213.98C221.936 52.424 225.641 55.1591 225.641 60.6C225.641 66.1609 221.715 68.7792 213.98 68.7792Z" fill="white"/>
<path d="M328.972 19.6001H304.889V78.6001H317.513V61.888H328.972C344.34 61.888 353.889 53.738 353.889 40.7149C353.889 27.6917 344.34 19.6001 328.972 19.6001ZM328.702 52.0639H317.513V29.4242H328.702C336.79 29.4242 341.246 33.4441 341.246 40.7441C341.246 48.044 336.79 52.0639 328.702 52.0639Z" fill="white"/>
<path d="M167.083 65.8587C163.822 67.6727 160.023 68.6337 156.104 68.6337C144.636 68.6337 136.315 60.3807 136.315 49.0096C136.315 37.6385 144.639 29.3855 156.104 29.3855C160.441 29.3855 164.331 30.6145 167.673 33.0364L176.795 26.2576L176.192 25.7248C170.866 21.0051 163.748 18.5112 155.611 18.5112C146.785 18.5112 138.772 21.5117 133.054 26.9636C127.3 32.4448 124.133 40.1585 124.133 48.6827C124.133 57.2462 127.291 65.0743 133.021 70.7222C138.772 76.3898 146.765 79.5112 155.53 79.5112C164.701 79.5112 172.707 76.2885 178.133 70.4215C173.945 67.3099 169.903 64.3062 169.903 64.3062L167.083 65.8587Z" fill="white"/>
<path d="M48.8581 47.816L30 36.0254V50.2094L48.8581 62L94 28.8222C92.4034 25.3105 90.4034 22.0179 88.0626 19L48.8581 47.816Z" fill="white"/>
<path d="M98 49C98 46.0038 97.7309 43.0692 97.2153 40.2221L86.6669 47.9948C86.6766 48.3288 86.6798 48.6628 86.6798 49C86.6798 69.7758 69.7758 86.6798 49 86.6798C28.2242 86.6798 11.3202 69.7758 11.3202 49C11.3202 28.2242 28.2242 11.3202 49 11.3202C56.8732 11.3202 64.1919 13.7489 70.2427 17.8963L79.7729 10.8727C71.3615 4.07604 60.6574 0 49 0C21.9367 0 0 21.9367 0 49C0 76.0633 21.9367 98 49 98C76.0633 98 98 76.0601 98 49Z" fill="white"/>
</svg>
