<svg width="644" height="98" viewBox="0 0 644 98" fill="none" xmlns="http://www.w3.org/2000/svg">
<path d="M378 0L644 0L622 49L644 98H378V0Z" fill="#0C9C0C"/>
<path d="M378 0L644 0L622 49L644 98H378V0Z" fill="url(#paint0_radial_21_96)"/>
<path d="M378 0L644 0L622 49L644 98H378V0Z" fill="url(#paint1_radial_21_96)"/>
<path d="M378 0L644 0L622 49L644 98H378V0Z" fill="url(#paint2_radial_21_96)"/>
<path d="M378 0L644 0L622 49L644 98H378V0Z" fill="url(#paint3_radial_21_96)"/>
<path d="M438.751 68.0001V33.4851H416.744V68.0001H409.369V26.7001H446.126V68.0001H438.751Z" fill="white"/>
<path d="M454.486 79.3871V38.5001H460.976V44.6361C462.038 41.3321 465.165 37.9101 471.419 37.9101C478.912 37.9101 484.163 42.2761 484.163 52.6011C484.163 64.2241 478.912 68.6491 470.829 68.6491C466.109 68.6491 462.864 66.2891 461.389 63.5161V79.3871H454.486ZM461.389 52.0111V54.2531C461.389 59.5631 464.457 62.5721 469.295 62.5721C474.841 62.5721 477.26 59.8581 477.26 52.8961C477.26 46.4061 474.133 44.0461 469.413 44.0461C463.985 44.0461 461.507 47.0551 461.389 52.0111Z" fill="white"/>
<path d="M489.967 49.1791V40.5651C491.914 39.0901 495.454 37.9101 500.528 37.9101C509.142 37.9101 513.39 40.8601 513.39 48.5301V68.0001H506.9V62.6901C505.484 66.1121 501.885 68.4721 497.165 68.4721C491.206 68.4721 487.666 65.1091 487.666 59.3271C487.666 52.6011 492.563 50.7131 499.82 50.7131H506.487V49.4151C506.487 45.2261 504.481 43.9281 500.528 43.9281C495.1 43.9281 491.973 46.0521 489.967 49.1791ZM499.348 62.2771C504.009 62.2771 506.192 59.6221 506.487 57.6161V55.1971H500.646C496.575 55.1971 494.628 55.9641 494.628 58.6191C494.628 60.8611 496.28 62.2771 499.348 62.2771Z" fill="white"/>
<path d="M520.23 68.0001V38.5001H527.074V58.5011L541.234 38.5001H547.783V68.0001H540.939V47.7631L526.779 68.0001H520.23ZM537.93 23.8091H544.302C544.302 30.4761 539.346 32.9541 534.272 32.9541C528.431 32.9541 523.652 30.4761 523.652 23.8091H530.024C530.024 26.2871 531.263 27.8211 534.154 27.8211C536.514 27.8211 537.93 26.7591 537.93 23.8091Z" fill="white"/>
<path d="M581.139 68.0001V48.1761L572.643 60.6841H570.46L561.905 48.1171V68.0001H555.002V38.5001H562.141L571.758 52.3061L581.08 38.5001H588.042V68.0001H581.139Z" fill="white"/>
<path d="M280.209 29.4237L293.356 19.6001H249.356V78.6001H293.356V68.7765H261.913V53.6713H288.734V43.8477H261.913V29.4237H280.209Z" fill="#21A038"/>
<path d="M216.161 42.5999H200.91V29.4242H225.257L238.378 19.6001H188.378V78.6001H214.545C229.221 78.6001 237.64 71.8452 237.64 60.0647C237.64 48.8032 230.013 42.5999 216.161 42.5999ZM213.98 68.7792H200.91V52.424H213.98C221.936 52.424 225.641 55.1591 225.641 60.6C225.641 66.1609 221.715 68.7792 213.98 68.7792Z" fill="#21A038"/>
<path d="M328.972 19.6001H304.889V78.6001H317.513V61.888H328.972C344.34 61.888 353.889 53.738 353.889 40.7149C353.889 27.6917 344.34 19.6001 328.972 19.6001ZM328.702 52.0639H317.513V29.4242H328.702C336.79 29.4242 341.246 33.4441 341.246 40.7441C341.246 48.044 336.79 52.0639 328.702 52.0639Z" fill="#21A038"/>
<path d="M167.083 65.8587C163.822 67.6727 160.023 68.6337 156.104 68.6337C144.636 68.6337 136.315 60.3807 136.315 49.0096C136.315 37.6385 144.639 29.3855 156.104 29.3855C160.441 29.3855 164.331 30.6145 167.673 33.0364L176.795 26.2576L176.192 25.7248C170.866 21.0051 163.748 18.5112 155.611 18.5112C146.785 18.5112 138.772 21.5117 133.054 26.9636C127.3 32.4448 124.133 40.1585 124.133 48.6827C124.133 57.2462 127.291 65.0743 133.021 70.7222C138.772 76.3898 146.765 79.5112 155.53 79.5112C164.701 79.5112 172.707 76.2885 178.133 70.4215C173.945 67.3099 169.903 64.3062 169.903 64.3062L167.083 65.8587Z" fill="#21A038"/>
<path d="M87.7751 19.0449C90.0905 22.0346 92.0686 25.2999 93.6478 28.7857L48.998 61.6883L30.3455 49.9955V35.9291L48.998 47.6219L87.7751 19.0449Z" fill="#21A038"/>
<path d="M11.3173 48.9985C11.3173 48.3662 11.3335 47.7403 11.366 47.1145L0.0616137 46.5503C0.0227003 47.3609 0 48.1781 0 48.9985C0 62.5298 5.48355 74.7803 14.3526 83.6456L22.3687 75.6299C15.5427 68.8075 11.3173 59.3877 11.3173 48.9985Z" fill="url(#paint4_linear_21_96)"/>
<path d="M48.9978 86.6833C48.3654 86.6833 47.7396 86.6671 47.1137 86.6347L46.5494 97.9383C47.3601 97.9773 48.1773 98 48.9978 98C62.5299 98 74.7811 92.5167 83.6469 83.6482L75.6308 75.6326C68.8079 82.455 59.3876 86.6833 48.9978 86.6833Z" fill="url(#paint5_linear_21_96)"/>
<path d="M48.9978 86.6833C48.3654 86.6833 47.7396 86.6671 47.1137 86.6347L46.5494 97.9383C47.3601 97.9773 48.1773 98 48.9978 98C62.5299 98 74.7811 92.5167 83.6469 83.6482L75.6308 75.6326C68.8079 82.455 59.3876 86.6833 48.9978 86.6833Z" fill="url(#paint6_linear_21_96)"/>
<path d="M48.9993 11.3199C49.6317 11.3199 50.2575 11.3426 50.8834 11.3718L51.4476 0.0616101C50.6369 0.022699 49.8198 0 48.9993 0C35.4672 0 23.2159 5.48322 14.3502 14.3517L22.3663 22.3674C29.1891 15.545 38.6127 11.3199 48.9993 11.3199Z" fill="url(#paint7_linear_21_96)"/>
<path d="M48.9981 86.6835C48.3657 86.6835 47.7399 86.6673 47.114 86.6349L46.5497 97.9386C47.3604 97.9775 48.1776 98.0002 48.9981 98.0002C62.5302 98.0002 74.7815 92.517 83.6472 83.6485L75.6311 75.6328C68.8082 82.4552 59.388 86.6835 48.9981 86.6835Z" fill="#A3CD39"/>
<path d="M75.6311 75.6328L83.6473 83.6485C82.0339 85.2624 80.3084 86.7642 78.4834 88.1412L74.5018 76.7166C74.8857 76.3631 75.2622 76.0017 75.6311 75.6328Z" fill="#21A038"/>
<mask id="mask0_21_96" style="mask-type:alpha" maskUnits="userSpaceOnUse" x="46" y="75" width="38" height="24">
<path d="M48.9981 86.6835C48.3657 86.6835 47.7399 86.6673 47.114 86.6349L46.5497 97.9386C47.3604 97.9775 48.1776 98.0002 48.9981 98.0002C62.5302 98.0002 74.7815 92.517 83.6472 83.6485L75.6311 75.6328C68.8082 82.4552 59.388 86.6835 48.9981 86.6835Z" fill="#A3CD39"/>
</mask>
<g mask="url(#mask0_21_96)">
<mask id="mask1_21_96" style="mask-type:alpha" maskUnits="userSpaceOnUse" x="48" y="76" width="32" height="24">
<rect width="15.0613" height="27.9147" transform="matrix(0.329218 0.944254 -0.944254 0.329219 74.4355 76.5049)" fill="url(#paint8_linear_21_96)"/>
</mask>
<g mask="url(#mask1_21_96)">
<rect width="15.0613" height="27.9147" transform="matrix(0.329218 0.944254 -0.944254 0.329219 74.4355 76.5049)" fill="#21A038"/>
</g>
</g>
<path d="M70.2428 17.8959L79.7733 10.8724C71.3615 4.07594 60.6571 0 48.9993 0V11.3199C56.876 11.3199 64.1917 13.7486 70.2428 17.8959Z" fill="url(#paint9_linear_21_96)"/>
<path d="M98 49.0009C98 46.0047 97.7308 43.0701 97.2152 40.2231L86.6664 47.9956C86.6761 48.3296 86.6794 48.6636 86.6794 49.0009C86.6794 60.0646 81.8865 70.0291 74.266 76.9293L81.8703 85.3341C91.777 76.3716 98 63.4142 98 49.0009Z" fill="#21A038"/>
<path d="M48.9981 86.6775C37.9337 86.6775 27.9687 81.885 21.068 74.2649L12.6627 81.8688C21.629 91.7716 34.5872 97.9942 48.9981 97.9942V86.6775Z" fill="url(#paint10_linear_21_96)"/>
<path d="M23.7307 21.0747L16.1264 12.6699C6.22291 21.6357 0 34.5931 0 49.0033H11.3206C11.3173 37.9395 16.1102 27.975 23.7307 21.0747Z" fill="url(#paint11_linear_21_96)"/>
<defs>
<radialGradient id="paint0_radial_21_96" cx="0" cy="0" r="1" gradientUnits="userSpaceOnUse" gradientTransform="translate(378) scale(142.791 99.0567)">
<stop stop-color="#15D015"/>
<stop offset="1" stop-color="#15D015" stop-opacity="0"/>
</radialGradient>
<radialGradient id="paint1_radial_21_96" cx="0" cy="0" r="1" gradientUnits="userSpaceOnUse" gradientTransform="translate(346.205) scale(189.872 227.15)">
<stop stop-color="#FAED05"/>
<stop offset="1" stop-color="#0C9C0C" stop-opacity="0"/>
</radialGradient>
<radialGradient id="paint2_radial_21_96" cx="0" cy="0" r="1" gradientUnits="userSpaceOnUse" gradientTransform="translate(654.199) rotate(180) scale(102.81 67.2346)">
<stop stop-color="#42E3B4"/>
<stop offset="1" stop-color="#15D015" stop-opacity="0"/>
</radialGradient>
<radialGradient id="paint3_radial_21_96" cx="0" cy="0" r="1" gradientUnits="userSpaceOnUse" gradientTransform="translate(644 98) rotate(180) scale(261.104 180.413)">
<stop stop-color="#129DFA"/>
<stop offset="1" stop-color="#15D015" stop-opacity="0"/>
</radialGradient>
<linearGradient id="paint4_linear_21_96" x1="16.6405" y1="82.2305" x2="4.273" y2="46.4792" gradientUnits="userSpaceOnUse">
<stop offset="0.1444" stop-color="#F2E913"/>
<stop offset="0.3037" stop-color="#E7E518"/>
<stop offset="0.5823" stop-color="#CADB26"/>
<stop offset="0.891" stop-color="#A3CD39"/>
</linearGradient>
<linearGradient id="paint5_linear_21_96" x1="45.8037" y1="91.1723" x2="81.8279" y2="83.0299" gradientUnits="userSpaceOnUse">
<stop offset="0.1226" stop-color="#A3CD39"/>
<stop offset="0.2846" stop-color="#86C339"/>
<stop offset="0.8693" stop-color="#21A038"/>
</linearGradient>
<linearGradient id="paint6_linear_21_96" x1="45.8037" y1="91.1723" x2="81.8279" y2="83.0299" gradientUnits="userSpaceOnUse">
<stop offset="0.1226" stop-color="#A3CD39"/>
<stop offset="0.2846" stop-color="#86C339"/>
<stop offset="0.8693" stop-color="#21A038"/>
</linearGradient>
<linearGradient id="paint7_linear_21_96" x1="17.5838" y1="16.3565" x2="49.4401" y2="4.21597" gradientUnits="userSpaceOnUse">
<stop offset="0.0592" stop-color="#0FA8E0"/>
<stop offset="0.5385" stop-color="#0099F9"/>
<stop offset="0.9234" stop-color="#0291EB"/>
</linearGradient>
<linearGradient id="paint8_linear_21_96" x1="7.53063" y1="0" x2="7.53063" y2="27.9147" gradientUnits="userSpaceOnUse">
<stop/>
<stop offset="1" stop-opacity="0"/>
</linearGradient>
<linearGradient id="paint9_linear_21_96" x1="46.6313" y1="3.79474" x2="77.4311" y2="13.2984" gradientUnits="userSpaceOnUse">
<stop offset="0.0566" stop-color="#0291EB"/>
<stop offset="0.79" stop-color="#0C8ACB"/>
</linearGradient>
<linearGradient id="paint10_linear_21_96" x1="15.5014" y1="80.493" x2="49.027" y2="93.0201" gradientUnits="userSpaceOnUse">
<stop offset="0.1324" stop-color="#F2E913"/>
<stop offset="0.2977" stop-color="#EBE716"/>
<stop offset="0.5306" stop-color="#D9E01F"/>
<stop offset="0.8023" stop-color="#BBD62D"/>
<stop offset="0.9829" stop-color="#A3CD39"/>
</linearGradient>
<linearGradient id="paint11_linear_21_96" x1="4.21374" y1="50.3763" x2="17.67" y2="15.3695" gradientUnits="userSpaceOnUse">
<stop offset="0.0698" stop-color="#A3CD39"/>
<stop offset="0.2599" stop-color="#81C55F"/>
<stop offset="0.9216" stop-color="#0FA8E0"/>
</linearGradient>
</defs>
</svg>
