<svg width="619" height="89" viewBox="0 0 619 89" fill="none" xmlns="http://www.w3.org/2000/svg">
<path d="M72.3489 16.9436C74.2366 19.3865 75.8494 22.0546 77.137 24.9029L40.7333 51.7881L25.5256 42.2338V30.7399L40.7333 40.2943L72.3489 16.9436Z" fill="white"/>
<path d="M10.0118 41.4191C10.0118 40.9025 10.0251 40.3911 10.0515 39.8797L0.834902 39.4187C0.803176 40.0811 0.784668 40.7488 0.784668 41.4191C0.784668 52.4758 5.25548 62.4858 12.4865 69.7297L19.0222 63.18C13.4568 57.6053 10.0118 49.9083 10.0118 41.4191Z" fill="white"/>
<path d="M40.7333 72.2118C40.2178 72.2118 39.7075 72.1986 39.1972 72.1721L38.7372 81.4085C39.3982 81.4403 40.0644 81.4588 40.7333 81.4588C51.7663 81.4588 61.7549 76.9784 68.9833 69.7318L62.4476 63.1821C56.8849 68.7568 49.2044 72.2118 40.7333 72.2118Z" fill="white"/>
<path d="M40.7333 72.2118C40.2178 72.2118 39.7075 72.1986 39.1972 72.1721L38.7372 81.4085C39.3982 81.4403 40.0644 81.4588 40.7333 81.4588C51.7663 81.4588 61.7549 76.9784 68.9833 69.7318L62.4476 63.1821C56.8849 68.7568 49.2044 72.2118 40.7333 72.2118Z" fill="white"/>
<path d="M40.7345 10.6312C41.25 10.6312 41.7603 10.6498 42.2706 10.6736L42.7306 1.43193C42.0696 1.40014 41.4034 1.38159 40.7345 1.38159C29.7015 1.38159 19.7129 5.86201 12.4845 13.1086L19.0202 19.6583C24.5829 14.0836 32.2661 10.6312 40.7345 10.6312Z" fill="white"/>
<path d="M40.7332 72.2118C40.2177 72.2118 39.7074 72.1986 39.1971 72.1721L38.7371 81.4085C39.398 81.4403 40.0643 81.4588 40.7332 81.4588C51.7662 81.4588 61.7548 76.9784 68.9832 69.7318L62.4475 63.1821C56.8847 68.7568 49.2042 72.2118 40.7332 72.2118Z" fill="white"/>
<path d="M62.4474 63.1821L68.9831 69.7318C67.6677 71.0506 66.2608 72.2777 64.7729 73.4029L61.5266 64.0677C61.8396 63.7788 62.1466 63.4836 62.4474 63.1821Z" fill="white"/>
<mask id="mask0_21_364" style="mask-type:alpha" maskUnits="userSpaceOnUse" x="38" y="63" width="31" height="19">
<path d="M40.7332 72.2118C40.2177 72.2118 39.7074 72.1986 39.1971 72.1721L38.7371 81.4085C39.398 81.4403 40.0643 81.4588 40.7332 81.4588C51.7662 81.4588 61.7548 76.9784 68.9832 69.7318L62.4475 63.1821C56.8847 68.7568 49.2042 72.2118 40.7332 72.2118Z" fill="#A3CD39"/>
</mask>
<g mask="url(#mask0_21_364)">
<mask id="mask1_21_364" style="mask-type:alpha" maskUnits="userSpaceOnUse" x="39" y="63" width="27" height="21">
<rect width="12.3038" height="22.7647" transform="matrix(0.328571 0.944479 -0.944028 0.329866 61.4725 63.8943)" fill="url(#paint0_linear_21_364)"/>
</mask>
<g mask="url(#mask1_21_364)">
<rect width="12.3038" height="22.7647" transform="matrix(0.328571 0.944479 -0.944028 0.329866 61.4725 63.8943)" fill="white"/>
</g>
</g>
<path d="M58.0545 16.0045L65.8248 10.2656C58.9666 4.7121 50.2391 1.38159 40.7344 1.38159V10.6312C47.1564 10.6312 53.121 12.6158 58.0545 16.0045Z" fill="white"/>
<path d="M80.6855 41.4209C80.6855 38.9727 80.466 36.5749 80.0457 34.2485L71.4451 40.5995C71.453 40.8724 71.4556 41.1454 71.4556 41.4209C71.4556 50.4612 67.548 58.6034 61.3348 64.2416L67.5348 71.1093C75.6119 63.7859 80.6855 53.1982 80.6855 41.4209Z" fill="white"/>
<path d="M40.7335 72.207C31.7126 72.207 23.5879 68.2909 17.9617 62.0645L11.1088 68.2777C18.4191 76.3694 28.9841 81.454 40.7335 81.454V72.207Z" fill="white"/>
<path d="M20.1326 18.6023L13.9327 11.7346C5.85829 19.0607 0.784668 29.6484 0.784668 41.4231H10.0145C10.0118 32.3827 13.9195 24.2406 20.1326 18.6023Z" fill="white"/>
<path d="M233.407 25.0854L244.268 17.0623H207.918V65.2491H244.268V57.2259H218.292V44.889H240.45V36.8658H218.292V25.0854H233.407Z" fill="white"/>
<path d="M180.477 35.8457H167.853V25.0854H188.007L198.868 17.0623H157.479V65.2464H179.14C191.288 65.2464 198.257 59.7298 198.257 50.1089C198.257 40.9119 191.944 35.8457 180.477 35.8457ZM178.672 57.2259H167.853V43.8689H178.672C185.257 43.8689 188.324 46.1026 188.324 50.5461C188.324 55.0876 185.075 57.2259 178.672 57.2259Z" fill="white"/>
<path d="M273.72 17.0623H253.928V65.2464H264.303V51.598H273.72C286.349 51.598 294.196 44.942 294.196 34.3063C294.196 23.6705 286.349 17.0623 273.72 17.0623ZM273.498 43.5748H264.303V25.0854H273.498C280.144 25.0854 283.806 28.3684 283.806 34.3301C283.806 40.2919 280.144 43.5748 273.498 43.5748Z" fill="white"/>
<path d="M139.673 54.8147C137.013 56.2852 133.914 57.0642 130.718 57.0642C121.364 57.0642 114.577 50.3738 114.577 41.1557C114.577 31.9375 121.367 25.2471 130.718 25.2471C134.255 25.2471 137.428 26.2433 140.154 28.2067L147.594 22.7113L147.102 22.2795C142.758 18.4533 136.952 16.4316 130.316 16.4316C123.117 16.4316 116.581 18.864 111.918 23.2837C107.225 27.7272 104.642 33.9804 104.642 40.8907C104.642 47.8328 107.217 54.1788 111.891 58.7574C116.581 63.3519 123.101 65.8823 130.25 65.8823C137.729 65.8823 144.26 63.2698 148.685 58.5136C145.27 55.9911 141.973 53.5561 141.973 53.5561L139.673 54.8147Z" fill="white"/>
<path d="M356.941 23.0919H327.822V65.572H321.655V17.6106H363.107V65.572H356.941V23.0919ZM389.739 30.6287C394.489 30.6287 398.189 32.0447 400.839 34.8767C403.534 37.7087 404.881 41.6827 404.881 46.7985V50.4984H378.639C378.913 54.1983 380.01 56.939 381.928 58.7204C383.847 60.4561 386.496 61.324 389.876 61.324C393.165 61.324 395.86 60.753 397.961 59.6111C400.062 58.4692 401.569 57.076 402.483 55.4316V62.0777C401.615 63.1283 400.131 64.0875 398.029 64.9554C395.974 65.8232 393.256 66.2572 389.876 66.2572C384.44 66.2572 380.238 64.7727 377.269 61.8036C374.3 58.8346 372.815 54.3353 372.815 48.3059C372.815 45.3369 373.249 42.7561 374.117 40.5636C374.985 38.3254 376.173 36.4754 377.68 35.0137C379.187 33.5521 380.969 32.4558 383.024 31.725C385.08 30.9941 387.318 30.6287 389.739 30.6287ZM389.739 35.5619C386.496 35.5619 383.938 36.4069 382.065 38.097C380.192 39.787 379.073 42.2993 378.708 45.6338H399.194V45.5653C399.194 42.2765 398.303 39.787 396.522 38.097C394.741 36.4069 392.48 35.5619 389.739 35.5619ZM413.223 31.3139H418.636V37.8914C419.504 35.8816 420.966 34.1687 423.021 32.7527C425.077 31.3367 427.84 30.6287 431.312 30.6287C435.88 30.6287 439.511 31.9762 442.206 34.6712C444.901 37.3661 446.248 41.7055 446.248 47.6893C446.248 51.0694 445.883 53.9471 445.152 56.3223C444.467 58.6519 443.439 60.5703 442.069 62.0777C440.744 63.5394 439.123 64.6128 437.204 65.298C435.286 65.9831 433.093 66.3257 430.627 66.3257C427.749 66.3257 425.305 65.7319 423.295 64.5443C421.331 63.311 419.87 61.895 418.91 60.2963V77.905H413.223V31.3139ZM418.91 49.8818C418.91 53.4446 419.892 56.231 421.856 58.2408C423.866 60.2049 426.493 61.187 429.736 61.187C433.481 61.187 436.199 60.1821 437.889 58.1723C439.625 56.1624 440.493 52.7823 440.493 48.0318C440.493 45.748 440.242 43.8295 439.739 42.2765C439.237 40.6778 438.506 39.3988 437.547 38.4396C436.633 37.4803 435.514 36.7952 434.189 36.3841C432.865 35.973 431.403 35.7674 429.804 35.7674C426.242 35.7674 423.547 36.7266 421.719 38.6451C419.938 40.5179 419.002 43.1672 418.91 46.593V49.8818ZM454.44 31.3139H469.719C474.059 31.3139 477.074 31.999 478.764 33.3693C480.499 34.694 481.367 36.5896 481.367 39.0562C481.367 41.2487 480.842 43.0301 479.791 44.4005C478.786 45.7251 477.348 46.6158 475.475 47.0726C476.571 47.2096 477.576 47.438 478.49 47.7578C479.449 48.0775 480.248 48.5571 480.888 49.1966C481.573 49.8361 482.098 50.6583 482.463 51.6632C482.875 52.6681 483.08 53.9242 483.08 55.4316C483.08 58.8574 481.984 61.4154 479.791 63.1054C477.599 64.7498 474.15 65.572 469.445 65.572H454.44V31.3139ZM469.377 60.6388C472.209 60.6388 474.242 60.2277 475.475 59.4056C476.754 58.5377 477.393 57.2359 477.393 55.5001C477.393 53.4446 476.777 52.0743 475.543 51.3891C474.31 50.6583 472.597 50.2929 470.405 50.2929H460.127V60.6388H469.377ZM468.555 45.4282C470.702 45.4282 472.414 45.0628 473.693 44.332C474.972 43.6011 475.612 42.2765 475.612 40.358C475.612 38.6679 475.064 37.5717 473.967 37.0692C472.871 36.5211 471.227 36.247 469.034 36.247L460.127 36.3155V45.4282H468.555ZM491.643 31.3139H497.329V42.345H504.25C506.579 42.345 508.612 42.5049 510.347 42.8246C512.129 43.1443 513.613 43.7153 514.801 44.5375C515.989 45.3597 516.879 46.5016 517.473 47.9633C518.113 49.3793 518.432 51.2064 518.432 53.4446C518.432 55.6828 518.158 57.5784 517.61 59.1315C517.062 60.6388 516.171 61.8721 514.938 62.8314C513.75 63.7906 512.197 64.4986 510.279 64.9554C508.361 65.3665 506.054 65.572 503.359 65.572H491.643V31.3139ZM523.16 31.3139H528.847V65.572H523.16V31.3139ZM512.746 53.4446C512.7 52.1657 512.517 51.1379 512.197 50.3614C511.923 49.5849 511.421 48.9911 510.69 48.58C510.005 48.1232 509.069 47.8263 507.881 47.6893C506.739 47.5065 505.323 47.4152 503.633 47.4152H497.329V60.5018H503.29C504.935 60.5018 506.351 60.4105 507.538 60.2277C508.726 59.9994 509.708 59.6339 510.485 59.1315C511.261 58.5834 511.832 57.8525 512.197 56.939C512.563 56.0254 512.746 54.8606 512.746 53.4446ZM539.818 65.572V31.3139H545.505V56.8019L564.827 31.3139H569.828V65.572H564.141V39.8784L545.505 64.7498L544.888 65.572H539.818ZM565.649 14.2533C565.649 15.989 565.352 17.4736 564.758 18.7068C564.164 19.8945 563.388 20.8994 562.428 21.7216C561.469 22.4981 560.35 23.0691 559.071 23.4345C557.838 23.7999 556.559 23.9826 555.234 23.9826C553.681 23.9826 552.22 23.7999 550.849 23.4345C549.525 23.0691 548.36 22.4981 547.355 21.7216C546.35 20.8994 545.551 19.8945 544.957 18.7068C544.363 17.4736 544.066 15.989 544.066 14.2533H549.547C549.547 15.9434 549.981 17.2452 550.849 18.1587C551.763 19.0723 553.179 19.529 555.097 19.529C555.828 19.529 556.513 19.4605 557.153 19.3235C557.792 19.1408 558.34 18.8667 558.797 18.5013C559.254 18.0902 559.596 17.5421 559.825 16.8569C560.099 16.1717 560.236 15.3039 560.236 14.2533H565.649Z" fill="white"/>
<defs>
<linearGradient id="paint0_linear_21_364" x1="6.15191" y1="0" x2="6.15191" y2="22.7647" gradientUnits="userSpaceOnUse">
<stop/>
<stop offset="1" stop-opacity="0"/>
</linearGradient>
</defs>
</svg>
