<svg width="571" height="89" viewBox="0 0 571 89" fill="none" xmlns="http://www.w3.org/2000/svg">
<path d="M41.0311 40.8857L25.7732 31.2992V42.8317L41.0311 52.4182L77.5552 25.4425C76.2634 22.5873 74.6452 19.9102 72.7513 17.4564L41.0311 40.8857Z" fill="#21A19A"/>
<path d="M81.1148 42.0182C81.1148 39.5618 80.8946 37.1559 80.4729 34.8217L71.8439 41.1941C71.8518 41.4679 71.8545 41.7417 71.8545 42.0182C71.8545 59.0512 58.0263 72.9099 41.0309 72.9099C24.0355 72.9099 10.2074 59.0512 10.2074 42.0182C10.2074 24.9853 24.0355 11.1266 41.0309 11.1266C47.4715 11.1266 53.4585 13.1178 58.4083 16.518L66.2044 10.7597C59.3234 5.18754 50.5671 1.84583 41.0309 1.84583C18.8921 1.84583 0.947021 19.8305 0.947021 42.0182C0.947021 64.206 18.8921 82.1906 41.0309 82.1906C63.1698 82.1906 81.1148 64.2033 81.1148 42.0182Z" fill="#21A19A"/>
<path d="M234.344 25.3286L245.241 17.2787H208.77V65.6259H245.241V57.576H219.179V45.1981H241.41V37.1482H219.179V25.3286H234.344Z" fill="#21A19A"/>
<path d="M181.238 36.1247H168.572V25.3286H188.793L199.69 17.2787H158.163V65.6233H179.896C192.085 65.6233 199.077 60.0883 199.077 50.4353C199.077 41.2077 192.743 36.1247 181.238 36.1247ZM179.427 57.576H168.572V44.1746H179.427C186.034 44.1746 189.111 46.4157 189.111 50.874C189.111 55.4306 185.851 57.576 179.427 57.576Z" fill="#21A19A"/>
<path d="M274.791 17.2787H254.934V65.6233H265.343V51.9294H274.791C287.463 51.9294 295.336 45.2513 295.336 34.5801C295.336 23.909 287.463 17.2787 274.791 17.2787ZM274.568 43.8795H265.343V25.3286H274.568C281.237 25.3286 284.911 28.6225 284.911 34.6041C284.911 40.5856 281.237 43.8795 274.568 43.8795Z" fill="#21A19A"/>
<path d="M140.298 55.157C137.629 56.6324 134.52 57.414 131.313 57.414C121.928 57.414 115.119 50.7013 115.119 41.4525C115.119 32.2036 121.931 25.4909 131.313 25.4909C134.862 25.4909 138.045 26.4905 140.78 28.4604L148.245 22.9467L147.751 22.5134C143.393 18.6745 137.568 16.6461 130.91 16.6461C123.687 16.6461 117.129 19.0866 112.45 23.521C107.742 27.9793 105.15 34.2533 105.15 41.1866C105.15 48.1519 107.734 54.5189 112.424 59.1128C117.129 63.7226 123.671 66.2615 130.844 66.2615C138.348 66.2615 144.9 63.6402 149.34 58.8682C145.913 56.3373 142.605 53.8942 142.605 53.8942L140.298 55.157Z" fill="#21A19A"/>
<path d="M322.886 17.1413H355.815V22.6409H329.073V33.64H338.491C345.274 33.64 350.361 34.9003 353.752 37.4209C357.144 39.8957 358.839 43.8371 358.839 49.245C358.839 54.5612 357.098 58.5713 353.615 61.2753C350.132 63.9334 345.09 65.2625 338.491 65.2625H322.886V17.1413ZM329.073 39.1395V59.7629H338.285C342.868 59.7629 346.351 58.9609 348.734 57.3568C351.163 55.707 352.377 52.8655 352.377 48.8325C352.377 45.212 351.232 42.6913 348.94 41.2706C346.649 39.8499 343.028 39.1395 338.078 39.1395H329.073ZM368.102 65.2625V30.8902H373.807V56.4632L393.193 30.8902H398.212V65.2625H392.506V39.4833L373.807 64.4375L373.189 65.2625H368.102ZM407.125 55.0883C408.087 56.7381 409.622 58.1359 411.731 59.2817C413.885 60.4274 416.543 61.0003 419.705 61.0003C422.088 60.9545 424.036 60.4503 425.548 59.4879C427.107 58.5255 427.886 57.0819 427.886 55.157C427.886 53.3238 427.198 52.0406 425.823 51.3073C424.448 50.574 422.409 50.2074 419.705 50.2074H414.549V45.6703H418.674C420.874 45.6703 422.661 45.2349 424.036 44.3641C425.411 43.4934 426.098 42.0956 426.098 40.1707C426.098 38.5667 425.64 37.3522 424.723 36.5273C423.807 35.7023 422.249 35.244 420.049 35.1524C417.345 35.1524 414.893 35.7482 412.693 36.9397C410.539 38.1313 408.798 39.6895 407.468 41.6143V33.5025C408.798 32.6317 410.562 31.8755 412.762 31.2339C414.962 30.5465 417.391 30.2028 420.049 30.2028H420.186C422.386 30.2028 424.219 30.409 425.686 30.8215C427.198 31.2339 428.413 31.8297 429.329 32.6088C430.246 33.3879 430.887 34.3274 431.254 35.4273C431.667 36.5273 431.873 37.7647 431.873 39.1395C431.873 41.2935 431.414 42.9434 430.498 44.0891C429.581 45.2349 428.275 46.1973 426.579 46.9764C428.871 47.4347 430.612 48.2826 431.804 49.52C432.996 50.7574 433.591 52.5218 433.591 54.8133C433.591 56.7381 433.225 58.4109 432.491 59.8316C431.758 61.2524 430.75 62.421 429.467 63.3376C428.229 64.2084 426.763 64.85 425.067 65.2625C423.417 65.7207 421.63 65.9499 419.705 65.9499C416.497 65.9499 413.816 65.5145 411.662 64.6438C409.554 63.773 408.041 62.8106 407.125 61.7565V55.0883ZM466.071 50.4136H447.922V65.2625H442.217V30.8902H447.922V45.2578H466.071V30.8902H471.777V65.2625H466.071V50.4136ZM497.133 30.2028C501.899 30.2028 505.611 31.6235 508.269 34.4649C510.973 37.3064 512.325 41.2935 512.325 46.4265V50.1387H485.996C486.271 53.8509 487.371 56.6006 489.296 58.388C491.221 60.1295 493.879 61.0003 497.27 61.0003C500.57 61.0003 503.274 60.4274 505.382 59.2817C507.49 58.1359 509.003 56.7381 509.919 55.0883V61.7565C509.048 62.8106 507.559 63.773 505.451 64.6438C503.389 65.5145 500.662 65.9499 497.27 65.9499C491.817 65.9499 487.6 64.4604 484.621 61.4815C481.642 58.5026 480.153 53.9884 480.153 47.9388C480.153 44.9599 480.588 42.3705 481.459 40.1707C482.33 37.9251 483.521 36.069 485.034 34.6024C486.546 33.1359 488.333 32.0359 490.396 31.3027C492.458 30.5694 494.704 30.2028 497.133 30.2028ZM497.133 35.1524C493.879 35.1524 491.312 36.0002 489.433 37.6959C487.554 39.3916 486.432 41.9122 486.065 45.2578H506.62V45.1891C506.62 41.8893 505.726 39.3916 503.938 37.6959C502.151 36.0002 499.883 35.1524 497.133 35.1524ZM546.406 61.7565C545.627 62.8106 544.298 63.773 542.419 64.6438C540.54 65.5145 538.134 65.9499 535.201 65.9499C529.747 65.9499 525.531 64.4604 522.552 61.4815C519.573 58.5026 518.083 53.9884 518.083 47.9388C518.083 44.9599 518.519 42.3705 519.389 40.1707C520.26 37.9251 521.452 36.069 522.964 34.6024C524.476 33.1359 526.264 32.0359 528.326 31.3027C530.388 30.5694 532.634 30.2028 535.063 30.2028C537.4 30.2028 539.531 30.5465 541.456 31.2339C543.381 31.8755 544.916 32.6317 546.062 33.5025V41.6143C544.871 39.6895 543.312 38.1313 541.388 36.9397C539.509 35.7482 537.4 35.1524 535.063 35.1524C531.443 35.1524 528.67 36.2294 526.745 38.3834C524.82 40.4915 523.858 43.6767 523.858 47.9388V48.1451C523.858 52.5906 524.82 55.8445 526.745 57.9068C528.716 59.9691 531.534 61.0003 535.201 61.0003C538.088 61.0003 540.448 60.4274 542.281 59.2817C544.16 58.1359 545.535 56.7381 546.406 55.0883V61.7565Z" fill="#21A19A"/>
</svg>
