<svg width="594" height="89" viewBox="0 0 594 89" fill="none" xmlns="http://www.w3.org/2000/svg">
<path d="M72.3486 16.9431C74.2364 19.386 75.8492 22.0541 77.1367 24.9024L40.733 51.7876L25.5254 42.2333V30.7394L40.733 40.2938L72.3486 16.9431Z" fill="#21A038"/>
<path d="M10.0116 41.4188C10.0116 40.9021 10.0248 40.3907 10.0512 39.8794L0.834658 39.4183C0.802932 40.0807 0.784424 40.7484 0.784424 41.4188C0.784424 52.4754 5.25524 62.4855 12.4863 69.7294L19.022 63.1797C13.4566 57.605 10.0116 49.908 10.0116 41.4188Z" fill="url(#paint0_linear_19_739)"/>
<path d="M40.733 72.2115C40.2174 72.2115 39.7071 72.1982 39.1969 72.1717L38.7368 81.4081C39.3978 81.4399 40.0641 81.4585 40.733 81.4585C51.7659 81.4585 61.7545 76.978 68.9829 69.7315L62.4472 63.1818C56.8845 68.7564 49.204 72.2115 40.733 72.2115Z" fill="url(#paint1_linear_19_739)"/>
<path d="M40.733 72.2115C40.2174 72.2115 39.7071 72.1982 39.1969 72.1717L38.7368 81.4081C39.3978 81.4399 40.0641 81.4585 40.733 81.4585C51.7659 81.4585 61.7545 76.978 68.9829 69.7315L62.4472 63.1818C56.8845 68.7564 49.204 72.2115 40.733 72.2115Z" fill="url(#paint2_linear_19_739)"/>
<path d="M40.7343 10.6311C41.2499 10.6311 41.7602 10.6497 42.2704 10.6735L42.7305 1.43181C42.0695 1.40002 41.4032 1.38147 40.7343 1.38147C29.7014 1.38147 19.7128 5.86188 12.4844 13.1085L19.0201 19.6582C24.5828 14.0835 32.266 10.6311 40.7343 10.6311Z" fill="url(#paint3_linear_19_739)"/>
<path d="M40.733 72.2115C40.2174 72.2115 39.7071 72.1982 39.1969 72.1717L38.7368 81.4081C39.3978 81.4399 40.0641 81.4585 40.733 81.4585C51.7659 81.4585 61.7545 76.978 68.9829 69.7315L62.4472 63.1818C56.8845 68.7564 49.204 72.2115 40.733 72.2115Z" fill="#A3CD39"/>
<path d="M62.4474 63.1818L68.9831 69.7315C67.6677 71.0502 66.2608 72.2773 64.7729 73.4025L61.5266 64.0673C61.8396 63.7785 62.1466 63.4832 62.4474 63.1818Z" fill="#21A038"/>
<mask id="mask0_19_739" style="mask-type:alpha" maskUnits="userSpaceOnUse" x="38" y="63" width="31" height="19">
<path d="M40.733 72.2115C40.2174 72.2115 39.7071 72.1982 39.1969 72.1717L38.7368 81.4081C39.3978 81.4399 40.0641 81.4585 40.733 81.4585C51.7659 81.4585 61.7545 76.978 68.9829 69.7315L62.4472 63.1818C56.8845 68.7564 49.204 72.2115 40.733 72.2115Z" fill="#A3CD39"/>
</mask>
<g mask="url(#mask0_19_739)">
<mask id="mask1_19_739" style="mask-type:alpha" maskUnits="userSpaceOnUse" x="39" y="63" width="27" height="21">
<rect width="12.3038" height="22.7647" transform="matrix(0.328571 0.944479 -0.944028 0.329866 61.4724 63.8942)" fill="url(#paint4_linear_19_739)"/>
</mask>
<g mask="url(#mask1_19_739)">
<rect width="12.3038" height="22.7647" transform="matrix(0.328571 0.944479 -0.944028 0.329866 61.4724 63.8942)" fill="#21A038"/>
</g>
</g>
<path d="M58.0542 16.0044L65.8246 10.2655C58.9664 4.71197 50.2389 1.38147 40.7341 1.38147V10.6311C47.1561 10.6311 53.1207 12.6156 58.0542 16.0044Z" fill="url(#paint5_linear_19_739)"/>
<path d="M80.6854 41.4205C80.6854 38.9723 80.4659 36.5745 80.0455 34.2482L71.445 40.5992C71.4529 40.8721 71.4555 41.145 71.4555 41.4205C71.4555 50.4609 67.5479 58.603 61.3347 64.2413L67.5346 71.1089C75.6117 63.7855 80.6854 53.1979 80.6854 41.4205Z" fill="#21A038"/>
<path d="M40.7332 72.2067C31.7122 72.2067 23.5875 68.2907 17.9614 62.0642L11.1084 68.2774C18.4188 76.3692 28.9837 81.4537 40.7332 81.4537V72.2067Z" fill="url(#paint6_linear_19_739)"/>
<path d="M20.1324 18.6018L13.9325 11.7341C5.85805 19.0602 0.784424 29.6479 0.784424 41.4226H10.0142C10.0116 32.3823 13.9193 24.2401 20.1324 18.6018Z" fill="url(#paint7_linear_19_739)"/>
<path d="M233.407 25.0853L244.267 17.0621H207.917V65.2489H244.267V57.2257H218.292V44.8889H240.45V36.8657H218.292V25.0853H233.407Z" fill="#21A038"/>
<path d="M180.477 35.8456H167.853V25.0853H188.007L198.868 17.0621H157.479V65.2463H179.139C191.288 65.2463 198.257 59.7297 198.257 50.1087C198.257 40.9118 191.943 35.8456 180.477 35.8456ZM178.671 57.2257H167.853V43.8688H178.671C185.257 43.8688 188.324 46.1025 188.324 50.5459C188.324 55.0875 185.075 57.2257 178.671 57.2257Z" fill="#21A038"/>
<path d="M273.72 17.0621H253.928V65.2463H264.303V51.5979H273.72C286.349 51.5979 294.196 44.9419 294.196 34.3062C294.196 23.6704 286.349 17.0621 273.72 17.0621ZM273.498 43.5747H264.303V25.0853H273.498C280.144 25.0853 283.806 28.3683 283.806 34.33C283.806 40.2917 280.144 43.5747 273.498 43.5747Z" fill="#21A038"/>
<path d="M139.672 54.8146C137.013 56.2851 133.914 57.0641 130.718 57.0641C121.364 57.0641 114.577 50.3737 114.577 41.1555C114.577 31.9374 121.366 25.247 130.718 25.247C134.255 25.247 137.428 26.2432 140.153 28.2066L147.593 22.7112L147.101 22.2793C142.758 18.4532 136.952 16.4315 130.316 16.4315C123.117 16.4315 116.581 18.8639 111.917 23.2836C107.225 27.727 104.642 33.9802 104.642 40.8906C104.642 47.8327 107.217 54.1786 111.891 58.7573C116.581 63.3518 123.101 65.8822 130.25 65.8822C137.729 65.8822 144.259 63.2696 148.685 58.5135C145.269 55.991 141.972 53.556 141.972 53.556L139.672 54.8146Z" fill="#21A038"/>
<path d="M321.655 17.6106H354.474V23.0919H327.822V34.0545H337.208C343.969 34.0545 349.039 35.3106 352.419 37.8229C355.799 40.2895 357.489 44.2178 357.489 49.6077C357.489 54.9063 355.753 58.9031 352.282 61.5981C348.81 64.2474 343.786 65.572 337.208 65.572H321.655V17.6106ZM327.822 39.5358V60.0907H337.003C341.571 60.0907 345.042 59.2914 347.417 57.6926C349.838 56.0483 351.049 53.2162 351.049 49.1966C351.049 45.5881 349.907 43.0758 347.623 41.6598C345.339 40.2438 341.73 39.5358 336.797 39.5358H327.822ZM366.721 65.572V31.3139H372.408V56.8019L391.729 31.3139H396.731V65.572H391.044V39.8784L372.408 64.7498L371.791 65.572H366.721ZM405.614 55.4316C406.574 57.076 408.104 58.4692 410.205 59.6111C412.352 60.753 415.001 61.324 418.153 61.324C420.528 61.2783 422.469 60.7759 423.977 59.8166C425.53 58.8574 426.306 57.4186 426.306 55.5001C426.306 53.673 425.621 52.394 424.251 51.6632C422.88 50.9324 420.848 50.5669 418.153 50.5669H413.014V46.0449H417.125C419.318 46.0449 421.099 45.6109 422.469 44.7431C423.84 43.8752 424.525 42.482 424.525 40.5636C424.525 38.9648 424.068 37.7544 423.155 36.9322C422.241 36.11 420.688 35.6532 418.495 35.5619C415.8 35.5619 413.357 36.1557 411.164 37.3433C409.017 38.5309 407.282 40.0839 405.957 42.0024V33.9175C407.282 33.0496 409.04 32.2959 411.233 31.6564C413.425 30.9713 415.846 30.6287 418.495 30.6287H418.632C420.825 30.6287 422.652 30.8342 424.114 31.2453C425.621 31.6564 426.832 32.2502 427.745 33.0268C428.659 33.8033 429.298 34.7397 429.664 35.8359C430.075 36.9322 430.28 38.1655 430.28 39.5358C430.28 41.6827 429.823 43.3271 428.91 44.469C427.996 45.6109 426.695 46.5702 425.004 47.3467C427.288 47.8035 429.024 48.6485 430.212 49.8818C431.399 51.1151 431.993 52.8737 431.993 55.1575C431.993 57.076 431.628 58.7432 430.897 60.1592C430.166 61.5752 429.161 62.74 427.882 63.6536C426.649 64.5214 425.187 65.1609 423.497 65.572C421.853 66.0288 420.071 66.2572 418.153 66.2572C414.955 66.2572 412.283 65.8232 410.136 64.9554C408.035 64.0875 406.528 63.1283 405.614 62.0777V55.4316ZM464.365 50.7725H446.277V65.572H440.59V31.3139H446.277V45.6338H464.365V31.3139H470.052V65.572H464.365V50.7725ZM495.324 30.6287C500.074 30.6287 503.774 32.0447 506.423 34.8767C509.118 37.7087 510.466 41.6827 510.466 46.7985V50.4984H484.224C484.498 54.1983 485.594 56.939 487.513 58.7204C489.431 60.4561 492.081 61.324 495.461 61.324C498.749 61.324 501.444 60.753 503.546 59.6111C505.647 58.4692 507.154 57.076 508.068 55.4316V62.0777C507.2 63.1283 505.715 64.0875 503.614 64.9554C501.559 65.8232 498.841 66.2572 495.461 66.2572C490.025 66.2572 485.823 64.7727 482.854 61.8036C479.885 58.8346 478.4 54.3353 478.4 48.3059C478.4 45.3369 478.834 42.7561 479.702 40.5636C480.57 38.3254 481.757 36.4754 483.265 35.0137C484.772 33.5521 486.554 32.4558 488.609 31.725C490.665 30.9941 492.903 30.6287 495.324 30.6287ZM495.324 35.5619C492.081 35.5619 489.523 36.4069 487.65 38.097C485.777 39.787 484.658 42.2993 484.293 45.6338H504.779V45.5653C504.779 42.2765 503.888 39.787 502.107 38.097C500.325 36.4069 498.064 35.5619 495.324 35.5619ZM544.433 62.0777C543.657 63.1283 542.332 64.0875 540.459 64.9554C538.587 65.8232 536.188 66.2572 533.265 66.2572C527.829 66.2572 523.627 64.7727 520.658 61.8036C517.689 58.8346 516.205 54.3353 516.205 48.3059C516.205 45.3369 516.638 42.7561 517.506 40.5636C518.374 38.3254 519.562 36.4754 521.069 35.0137C522.577 33.5521 524.358 32.4558 526.413 31.725C528.469 30.9941 530.707 30.6287 533.128 30.6287C535.458 30.6287 537.582 30.9713 539.5 31.6564C541.419 32.2959 542.949 33.0496 544.091 33.9175V42.0024C542.903 40.0839 541.35 38.5309 539.432 37.3433C537.559 36.1557 535.458 35.5619 533.128 35.5619C529.52 35.5619 526.756 36.6353 524.838 38.7821C522.919 40.8833 521.96 44.0579 521.96 48.3059V48.5115C521.96 52.9422 522.919 56.1853 524.838 58.2408C526.802 60.2963 529.611 61.324 533.265 61.324C536.143 61.324 538.495 60.753 540.322 59.6111C542.195 58.4692 543.565 57.076 544.433 55.4316V62.0777Z" fill="#21A038"/>
<defs>
<linearGradient id="paint0_linear_19_739" x1="14.3516" y1="68.5731" x2="4.22849" y2="39.374" gradientUnits="userSpaceOnUse">
<stop offset="0.1444" stop-color="#F2E913"/>
<stop offset="0.3037" stop-color="#E7E518"/>
<stop offset="0.5823" stop-color="#CADB26"/>
<stop offset="0.891" stop-color="#A3CD39"/>
</linearGradient>
<linearGradient id="paint1_linear_19_739" x1="38.1288" y1="75.8795" x2="67.5061" y2="69.2541" gradientUnits="userSpaceOnUse">
<stop offset="0.1226" stop-color="#A3CD39"/>
<stop offset="0.2846" stop-color="#86C339"/>
<stop offset="0.8693" stop-color="#21A038"/>
</linearGradient>
<linearGradient id="paint2_linear_19_739" x1="38.1288" y1="75.8795" x2="67.5061" y2="69.2541" gradientUnits="userSpaceOnUse">
<stop offset="0.1226" stop-color="#A3CD39"/>
<stop offset="0.2846" stop-color="#86C339"/>
<stop offset="0.8693" stop-color="#21A038"/>
</linearGradient>
<linearGradient id="paint3_linear_19_739" x1="15.1208" y1="14.7466" x2="41.1082" y2="4.86452" gradientUnits="userSpaceOnUse">
<stop offset="0.0592" stop-color="#0FA8E0"/>
<stop offset="0.5385" stop-color="#0099F9"/>
<stop offset="0.9234" stop-color="#0291EB"/>
</linearGradient>
<linearGradient id="paint4_linear_19_739" x1="6.15191" y1="0" x2="6.15191" y2="22.7647" gradientUnits="userSpaceOnUse">
<stop/>
<stop offset="1" stop-opacity="0"/>
</linearGradient>
<linearGradient id="paint5_linear_19_739" x1="38.8034" y1="4.4822" x2="63.9245" y2="12.2166" gradientUnits="userSpaceOnUse">
<stop offset="0.0566" stop-color="#0291EB"/>
<stop offset="0.79" stop-color="#0C8ACB"/>
</linearGradient>
<linearGradient id="paint6_linear_19_739" x1="13.4228" y1="67.1533" x2="40.7715" y2="77.3498" gradientUnits="userSpaceOnUse">
<stop offset="0.1324" stop-color="#F2E913"/>
<stop offset="0.2977" stop-color="#EBE716"/>
<stop offset="0.5306" stop-color="#D9E01F"/>
<stop offset="0.8023" stop-color="#BBD62D"/>
<stop offset="0.9829" stop-color="#A3CD39"/>
</linearGradient>
<linearGradient id="paint7_linear_19_739" x1="4.21995" y1="42.5445" x2="15.2332" y2="13.9562" gradientUnits="userSpaceOnUse">
<stop offset="0.0698" stop-color="#A3CD39"/>
<stop offset="0.2599" stop-color="#81C55F"/>
<stop offset="0.9216" stop-color="#0FA8E0"/>
</linearGradient>
</defs>
</svg>
