<svg width="673" height="98" viewBox="0 0 673 98" fill="none" xmlns="http://www.w3.org/2000/svg">
<path fill-rule="evenodd" clip-rule="evenodd" d="M383.341 26.7545C378 37.2361 378 50.9574 378 78.4V98H624C651.062 98 673 76.062 673 49C673 21.938 651.062 0 624 0H456.4C428.957 0 415.236 0 404.754 5.34068C395.534 10.0385 388.038 17.5345 383.341 26.7545ZM602.945 22.2754V29.3554C601.765 30.0044 598.402 30.5354 593.564 30.9484C584.124 31.8334 582 35.5504 581.233 43.9874C583.534 40.6834 587.133 38.5004 592.443 38.5004C599.7 38.5004 605.718 42.1584 605.718 52.8374C605.718 63.2804 600.172 68.5904 590.85 68.5904C580.82 68.5904 575.215 62.6314 575.215 49.0024C575.215 32.7184 579.699 26.1694 589.847 24.5174C591.359 24.2621 593.048 24.0656 594.717 23.8713C598.063 23.4821 601.331 23.1019 602.945 22.2754ZM582.295 52.8964C582.295 58.3834 585.009 62.3364 590.378 62.3364C595.039 62.3364 598.52 59.8584 598.52 53.4274C598.52 47.2914 595.629 44.6364 590.673 44.6364C585.481 44.6364 582.295 47.4094 582.295 52.8964ZM443.47 54.3714V63.4574C441.405 65.9354 435.977 68.6494 428.838 68.6494C415.386 68.5904 406.418 60.6254 406.418 47.2914C406.418 34.8424 415.268 26.0514 428.956 26.0514C435.446 26.0514 440.225 28.0574 442.644 29.7684V40.0344C440.166 36.3764 435.151 32.8364 428.956 32.8364C419.929 32.8364 414.383 38.6774 414.383 47.3504C414.383 55.3744 419.28 61.6874 428.779 61.8644C435.977 61.8644 441.051 58.5604 443.47 54.3714ZM468.488 68.0004V44.5774H455.626V68.0004H448.723V38.5004H475.391V68.0004H468.488ZM483.282 40.5654V49.1794C485.288 46.0524 488.415 43.9284 493.843 43.9284C497.796 43.9284 499.802 45.2264 499.802 49.4154V50.7134H493.135C485.878 50.7134 480.981 52.6014 480.981 59.3274C480.981 65.1094 484.521 68.4724 490.48 68.4724C495.2 68.4724 498.799 66.1124 500.215 62.6904V68.0004H506.705V48.5304C506.705 40.8604 502.457 37.9104 493.843 37.9104C488.769 37.9104 485.229 39.0904 483.282 40.5654ZM499.802 57.6164C499.507 59.6224 497.324 62.2774 492.663 62.2774C489.595 62.2774 487.943 60.8614 487.943 58.6194C487.943 55.9644 489.89 55.1974 493.961 55.1974H499.802V57.6164ZM536.969 65.0504C535.671 66.7024 531.954 68.6494 527.175 68.6494C517.735 68.6494 511.481 63.4574 511.481 53.1324C511.481 42.9844 517.853 37.9104 527.234 37.8514C531.187 37.9104 534.727 39.0904 536.674 40.5654V49.1794C534.668 46.0524 531.541 43.9284 527.234 43.8694C521.57 43.8694 518.502 46.8784 518.502 52.8374V53.7224C518.502 59.7994 521.806 62.6314 527.352 62.6314C532.249 62.6314 535.494 60.5664 536.969 57.9704V65.0504ZM542.154 38.5004V68.0004H548.703L562.863 47.7634V68.0004H569.707V38.5004H563.158L548.998 58.5014V38.5004H542.154ZM608.828 53.1324C608.828 63.4574 614.787 68.6494 623.991 68.6494C633.136 68.5904 639.331 63.5754 639.331 53.3684C639.331 43.1024 633.372 37.9104 624.227 37.8514C615.023 37.8514 608.828 42.9254 608.828 53.1324ZM615.849 53.3094V53.1324C615.849 46.9374 618.74 43.9284 623.991 43.8694C629.183 43.8694 632.31 46.7014 632.31 53.1914V53.3684C632.31 59.6224 629.36 62.6314 624.109 62.6314C618.917 62.6314 615.849 59.7994 615.849 53.3094Z" fill="white"/>
<path d="M280.209 29.4252L293.355 19.6016H249.355V78.6016H293.355V68.778H261.913V53.6727H288.734V43.8491H261.913V29.4252H280.209Z" fill="white"/>
<path d="M216.16 42.6013H200.91V29.4257H225.257L238.377 19.6016H188.377V78.6016H214.544C229.22 78.6016 237.639 71.8467 237.639 60.0661C237.639 48.8047 230.012 42.6013 216.16 42.6013ZM213.979 68.7807H200.91V52.4255H213.979C221.935 52.4255 225.64 55.1605 225.64 60.6015C225.64 66.1624 221.715 68.7807 213.979 68.7807Z" fill="white"/>
<path d="M328.972 19.6016H304.889V78.6016H317.513V61.8895H328.972C344.34 61.8895 353.889 53.7395 353.889 40.7163C353.889 27.6932 344.34 19.6016 328.972 19.6016ZM328.702 52.0654H317.513V29.4257H328.702C336.79 29.4257 341.245 33.4456 341.245 40.7455C341.245 48.0455 336.79 52.0654 328.702 52.0654Z" fill="white"/>
<path d="M167.083 65.8592C163.822 67.6732 160.023 68.6342 156.104 68.6342C144.635 68.6342 136.314 60.3812 136.314 49.0101C136.314 37.639 144.638 29.386 156.104 29.386C160.441 29.386 164.331 30.615 167.673 33.0369L176.794 26.2581L176.191 25.7253C170.865 21.0056 163.747 18.5117 155.611 18.5117C146.784 18.5117 138.771 21.5122 133.053 26.9641C127.3 32.4453 124.133 40.159 124.133 48.6832C124.133 57.2467 127.29 65.0748 133.021 70.7227C138.771 76.3903 146.765 79.5117 155.53 79.5117C164.7 79.5117 172.707 76.289 178.133 70.422C173.945 67.3104 169.903 64.3067 169.903 64.3067L167.083 65.8592Z" fill="white"/>
<path d="M87.7751 19.0449C90.0905 22.0346 92.0686 25.2999 93.6478 28.7857L48.998 61.6883L30.3455 49.9955V35.9291L48.998 47.6219L87.7751 19.0449Z" fill="white"/>
<path fill-rule="evenodd" clip-rule="evenodd" d="M50.8829 11.3718C50.257 11.3426 49.6311 11.3199 48.9988 11.3199C39.2867 11.3199 30.4167 15.014 23.7276 21.0714L23.7307 21.0749C16.1102 27.9751 11.3173 37.9396 11.3206 49.0034H11.3173C11.3185 59.3909 15.5436 68.8089 22.3687 75.6304L22.3675 75.6316C29.1911 82.454 38.6098 86.6782 48.9975 86.6782V86.6835C58.7117 86.6835 67.5783 82.9871 74.2669 76.9302L74.2656 76.9288C81.8862 70.0286 86.679 60.0641 86.679 49.0004C86.679 48.6631 86.6758 48.3291 86.666 47.9951L97.2148 40.2227C97.7304 43.0697 97.9996 46.0042 97.9996 49.0004C97.9996 62.5329 92.514 74.7821 83.6442 83.6464L83.6463 83.6485C74.7805 92.517 62.5293 98.0002 48.9971 98.0002C48.1767 98.0002 47.3595 97.9775 46.5488 97.9386L46.549 97.9348C33.9944 97.3168 22.6819 91.9728 14.3527 83.6459L14.3526 83.6461C5.48452 74.7818 0.00119747 62.533 5.81189e-08 49.0034C-7.26486e-08 49.0019 5.81189e-08 49.0004 5.81189e-08 48.999C5.81189e-08 48.9763 1.73363e-05 48.9537 5.17565e-05 48.9311C0.0195643 35.4294 5.50204 23.2076 14.3542 14.3563L14.3496 14.3517C23.2154 5.48322 35.4666 0 48.9988 0H49C60.6578 0 71.3622 4.07594 79.774 10.8724L70.2434 17.8959C64.6775 14.0811 58.0415 11.7203 50.8831 11.3664L50.8829 11.3718Z" fill="white"/>
</svg>
