<svg width="673" height="98" viewBox="0 0 673 98" fill="none" xmlns="http://www.w3.org/2000/svg">
<path d="M378 78.4C378 50.9574 378 37.2361 383.341 26.7545C388.038 17.5345 395.535 10.0385 404.754 5.34068C415.236 0 428.957 0 456.4 0H624C651.062 0 673 21.938 673 49V49C673 76.062 651.062 98 624 98H378V78.4Z" fill="#0C9C0C"/>
<path d="M378 78.4C378 50.9574 378 37.2361 383.341 26.7545C388.038 17.5345 395.535 10.0385 404.754 5.34068C415.236 0 428.957 0 456.4 0H624C651.062 0 673 21.938 673 49V49C673 76.062 651.062 98 624 98H378V78.4Z" fill="url(#paint0_radial_22_319)"/>
<path d="M378 78.4C378 50.9574 378 37.2361 383.341 26.7545C388.038 17.5345 395.535 10.0385 404.754 5.34068C415.236 0 428.957 0 456.4 0H624C651.062 0 673 21.938 673 49V49C673 76.062 651.062 98 624 98H378V78.4Z" fill="url(#paint1_radial_22_319)"/>
<path d="M378 78.4C378 50.9574 378 37.2361 383.341 26.7545C388.038 17.5345 395.535 10.0385 404.754 5.34068C415.236 0 428.957 0 456.4 0H624C651.062 0 673 21.938 673 49V49C673 76.062 651.062 98 624 98H378V78.4Z" fill="url(#paint2_radial_22_319)"/>
<path d="M378 78.4C378 50.9574 378 37.2361 383.341 26.7545C388.038 17.5345 395.535 10.0385 404.754 5.34068C415.236 0 428.957 0 456.4 0H624C651.062 0 673 21.938 673 49V49C673 76.062 651.062 98 624 98H378V78.4Z" fill="url(#paint3_radial_22_319)"/>
<path d="M443.47 54.3714V63.4574C441.405 65.9354 435.977 68.6494 428.838 68.6494C415.386 68.5904 406.418 60.6254 406.418 47.2914C406.418 34.8424 415.268 26.0514 428.956 26.0514C435.446 26.0514 440.225 28.0574 442.644 29.7684V40.0344C440.166 36.3764 435.151 32.8364 428.956 32.8364C419.929 32.8364 414.383 38.6774 414.383 47.3504C414.383 55.3744 419.28 61.6874 428.779 61.8644C435.977 61.8644 441.051 58.5604 443.47 54.3714Z" fill="white"/>
<path d="M468.488 68.0004V44.5774H455.626V68.0004H448.723V38.5004H475.391V68.0004H468.488Z" fill="white"/>
<path d="M483.282 49.1794V40.5654C485.229 39.0904 488.769 37.9104 493.843 37.9104C502.457 37.9104 506.705 40.8604 506.705 48.5304V68.0004H500.215V62.6904C498.799 66.1124 495.2 68.4724 490.48 68.4724C484.521 68.4724 480.981 65.1094 480.981 59.3274C480.981 52.6014 485.878 50.7134 493.135 50.7134H499.802V49.4154C499.802 45.2264 497.796 43.9284 493.843 43.9284C488.415 43.9284 485.288 46.0524 483.282 49.1794ZM492.663 62.2774C497.324 62.2774 499.507 59.6224 499.802 57.6164V55.1974H493.961C489.89 55.1974 487.943 55.9644 487.943 58.6194C487.943 60.8614 489.595 62.2774 492.663 62.2774Z" fill="white"/>
<path d="M536.969 65.0504C535.671 66.7024 531.954 68.6494 527.175 68.6494C517.735 68.6494 511.481 63.4574 511.481 53.1324C511.481 42.9844 517.853 37.9104 527.234 37.8514C531.187 37.9104 534.727 39.0904 536.674 40.5654V49.1794C534.668 46.0524 531.541 43.9284 527.234 43.8694C521.57 43.8694 518.502 46.8784 518.502 52.8374V53.7224C518.502 59.7994 521.806 62.6314 527.352 62.6314C532.249 62.6314 535.494 60.5664 536.969 57.9704V65.0504Z" fill="white"/>
<path d="M542.154 68.0004V38.5004H548.998V58.5014L563.158 38.5004H569.707V68.0004H562.863V47.7634L548.703 68.0004H542.154Z" fill="white"/>
<path d="M602.945 22.2754V29.3554C601.765 30.0044 598.402 30.5354 593.564 30.9484C584.124 31.8334 582 35.5504 581.233 43.9874C583.534 40.6834 587.133 38.5004 592.443 38.5004C599.7 38.5004 605.718 42.1584 605.718 52.8374C605.718 63.2804 600.172 68.5904 590.85 68.5904C580.82 68.5904 575.215 62.6314 575.215 49.0024C575.215 32.7184 579.699 26.1694 589.847 24.5174C594.39 23.7504 600.526 23.5144 602.945 22.2754ZM582.295 52.8964C582.295 58.3834 585.009 62.3364 590.378 62.3364C595.039 62.3364 598.52 59.8584 598.52 53.4274C598.52 47.2914 595.629 44.6364 590.673 44.6364C585.481 44.6364 582.295 47.4094 582.295 52.8964Z" fill="white"/>
<path d="M623.991 68.6494C614.787 68.6494 608.828 63.4574 608.828 53.1324C608.828 42.9254 615.023 37.8514 624.227 37.8514C633.372 37.9104 639.331 43.1024 639.331 53.3684C639.331 63.5754 633.136 68.5904 623.991 68.6494ZM615.849 53.1324V53.3094C615.849 59.7994 618.917 62.6314 624.109 62.6314C629.36 62.6314 632.31 59.6224 632.31 53.3684V53.1914C632.31 46.7014 629.183 43.8694 623.991 43.8694C618.74 43.9284 615.849 46.9374 615.849 53.1324Z" fill="white"/>
<path d="M280.209 29.4252L293.355 19.6016H249.355V78.6016H293.355V68.778H261.913V53.6727H288.734V43.8491H261.913V29.4252H280.209Z" fill="#21A038"/>
<path d="M216.16 42.6013H200.91V29.4257H225.257L238.377 19.6016H188.377V78.6016H214.544C229.22 78.6016 237.639 71.8467 237.639 60.0661C237.639 48.8047 230.012 42.6013 216.16 42.6013ZM213.979 68.7807H200.91V52.4255H213.979C221.935 52.4255 225.64 55.1605 225.64 60.6015C225.64 66.1624 221.715 68.7807 213.979 68.7807Z" fill="#21A038"/>
<path d="M328.972 19.6016H304.889V78.6016H317.513V61.8895H328.972C344.34 61.8895 353.889 53.7395 353.889 40.7163C353.889 27.6932 344.34 19.6016 328.972 19.6016ZM328.702 52.0654H317.513V29.4257H328.702C336.79 29.4257 341.245 33.4456 341.245 40.7455C341.245 48.0455 336.79 52.0654 328.702 52.0654Z" fill="#21A038"/>
<path d="M167.083 65.8592C163.822 67.6732 160.023 68.6342 156.104 68.6342C144.635 68.6342 136.314 60.3812 136.314 49.0101C136.314 37.639 144.638 29.386 156.104 29.386C160.441 29.386 164.331 30.615 167.673 33.0369L176.794 26.2581L176.191 25.7253C170.865 21.0056 163.747 18.5117 155.611 18.5117C146.784 18.5117 138.771 21.5122 133.053 26.9641C127.3 32.4453 124.133 40.159 124.133 48.6832C124.133 57.2467 127.29 65.0748 133.021 70.7227C138.771 76.3903 146.765 79.5117 155.53 79.5117C164.7 79.5117 172.707 76.289 178.133 70.422C173.945 67.3104 169.903 64.3067 169.903 64.3067L167.083 65.8592Z" fill="#21A038"/>
<path d="M87.7751 19.0449C90.0905 22.0346 92.0686 25.2999 93.6478 28.7857L48.998 61.6883L30.3455 49.9955V35.9291L48.998 47.6219L87.7751 19.0449Z" fill="#21A038"/>
<path d="M11.3173 48.999C11.3173 48.3666 11.3335 47.7408 11.366 47.115L0.0616137 46.5508C0.0227003 47.3614 0 48.1786 0 48.999C0 62.5303 5.48355 74.7808 14.3526 83.6461L22.3687 75.6304C15.5427 68.808 11.3173 59.3882 11.3173 48.999Z" fill="url(#paint4_linear_22_319)"/>
<path d="M48.9971 86.6835C48.3648 86.6835 47.7389 86.6673 47.1131 86.6349L46.5488 97.9386C47.3595 97.9775 48.1767 98.0002 48.9971 98.0002C62.5293 98.0002 74.7805 92.517 83.6463 83.6485L75.6302 75.6328C68.8073 82.4552 59.387 86.6835 48.9971 86.6835Z" fill="url(#paint5_linear_22_319)"/>
<path d="M48.9971 86.6835C48.3648 86.6835 47.7389 86.6673 47.1131 86.6349L46.5488 97.9386C47.3595 97.9775 48.1767 98.0002 48.9971 98.0002C62.5293 98.0002 74.7805 92.517 83.6463 83.6485L75.6302 75.6328C68.8073 82.4552 59.387 86.6835 48.9971 86.6835Z" fill="url(#paint6_linear_22_319)"/>
<path d="M48.9988 11.3199C49.6311 11.3199 50.257 11.3426 50.8829 11.3718L51.4471 0.0616101C50.6364 0.022699 49.8192 0 48.9988 0C35.4666 0 23.2154 5.48322 14.3496 14.3517L22.3658 22.3674C29.1886 15.545 38.6122 11.3199 48.9988 11.3199Z" fill="url(#paint7_linear_22_319)"/>
<path d="M48.9971 86.6835C48.3648 86.6835 47.7389 86.6673 47.1131 86.6349L46.5488 97.9386C47.3595 97.9775 48.1767 98.0002 48.9971 98.0002C62.5293 98.0002 74.7805 92.517 83.6463 83.6485L75.6302 75.6328C68.8073 82.4552 59.387 86.6835 48.9971 86.6835Z" fill="#A3CD39"/>
<path d="M75.6294 75.6328L83.6455 83.6485C82.0321 85.2624 80.3066 86.7642 78.4817 88.1412L74.5 76.7166C74.8839 76.3631 75.2604 76.0017 75.6294 75.6328Z" fill="#21A038"/>
<mask id="mask0_22_319" style="mask-type:alpha" maskUnits="userSpaceOnUse" x="46" y="75" width="38" height="24">
<path d="M48.9971 86.6835C48.3648 86.6835 47.7389 86.6673 47.1131 86.6349L46.5488 97.9386C47.3595 97.9775 48.1767 98.0002 48.9971 98.0002C62.5293 98.0002 74.7805 92.517 83.6463 83.6485L75.6302 75.6328C68.8073 82.4552 59.387 86.6835 48.9971 86.6835Z" fill="#A3CD39"/>
</mask>
<g mask="url(#mask0_22_319)">
<mask id="mask1_22_319" style="mask-type:alpha" maskUnits="userSpaceOnUse" x="48" y="76" width="32" height="24">
<rect width="15.0613" height="27.9147" transform="matrix(0.329218 0.944254 -0.944254 0.329219 74.4336 76.5039)" fill="url(#paint8_linear_22_319)"/>
</mask>
<g mask="url(#mask1_22_319)">
<rect width="15.0613" height="27.9147" transform="matrix(0.329218 0.944254 -0.944254 0.329219 74.4336 76.5039)" fill="#21A038"/>
</g>
</g>
<path d="M70.2434 17.8959L79.774 10.8724C71.3622 4.07594 60.6578 0 49 0V11.3199C56.8767 11.3199 64.1924 13.7486 70.2434 17.8959Z" fill="url(#paint9_linear_22_319)"/>
<path d="M97.9996 49.0004C97.9996 46.0042 97.7304 43.0697 97.2148 40.2227L86.666 47.9951C86.6758 48.3291 86.679 48.6631 86.679 49.0004C86.679 60.0641 81.8862 70.0286 74.2656 76.9288L81.87 85.3336C91.7767 76.3711 97.9996 63.4137 97.9996 49.0004Z" fill="#21A038"/>
<path d="M48.9975 86.6782C37.9331 86.6782 27.968 81.8857 21.0674 74.2656L12.6621 81.8695C21.6284 91.7724 34.5866 97.9949 48.9975 97.9949V86.6782Z" fill="url(#paint10_linear_22_319)"/>
<path d="M23.7307 21.0747L16.1264 12.6699C6.22291 21.6357 0 34.5931 0 49.0033H11.3206C11.3173 37.9395 16.1102 27.975 23.7307 21.0747Z" fill="url(#paint11_linear_22_319)"/>
<defs>
<radialGradient id="paint0_radial_22_319" cx="0" cy="0" r="1" gradientUnits="userSpaceOnUse" gradientTransform="translate(378) scale(158.359 99.0567)">
<stop stop-color="#15D015"/>
<stop offset="1" stop-color="#15D015" stop-opacity="0"/>
</radialGradient>
<radialGradient id="paint1_radial_22_319" cx="0" cy="0" r="1" gradientUnits="userSpaceOnUse" gradientTransform="translate(365.331) scale(160.169 172.778)">
<stop stop-color="#FAED05"/>
<stop offset="1" stop-color="#0C9C0C" stop-opacity="0"/>
</radialGradient>
<radialGradient id="paint2_radial_22_319" cx="0" cy="0" r="1" gradientUnits="userSpaceOnUse" gradientTransform="translate(684.311) rotate(180) scale(114.018 67.2346)">
<stop stop-color="#42E3B4"/>
<stop offset="1" stop-color="#15D015" stop-opacity="0"/>
</radialGradient>
<radialGradient id="paint3_radial_22_319" cx="0" cy="0" r="1" gradientUnits="userSpaceOnUse" gradientTransform="translate(673 98) rotate(180) scale(289.571 180.413)">
<stop stop-color="#129DFA"/>
<stop offset="1" stop-color="#15D015" stop-opacity="0"/>
</radialGradient>
<linearGradient id="paint4_linear_22_319" x1="16.6405" y1="82.231" x2="4.273" y2="46.4797" gradientUnits="userSpaceOnUse">
<stop offset="0.1444" stop-color="#F2E913"/>
<stop offset="0.3037" stop-color="#E7E518"/>
<stop offset="0.5823" stop-color="#CADB26"/>
<stop offset="0.891" stop-color="#A3CD39"/>
</linearGradient>
<linearGradient id="paint5_linear_22_319" x1="45.8031" y1="91.1725" x2="81.8273" y2="83.0301" gradientUnits="userSpaceOnUse">
<stop offset="0.1226" stop-color="#A3CD39"/>
<stop offset="0.2846" stop-color="#86C339"/>
<stop offset="0.8693" stop-color="#21A038"/>
</linearGradient>
<linearGradient id="paint6_linear_22_319" x1="45.8031" y1="91.1725" x2="81.8273" y2="83.0301" gradientUnits="userSpaceOnUse">
<stop offset="0.1226" stop-color="#A3CD39"/>
<stop offset="0.2846" stop-color="#86C339"/>
<stop offset="0.8693" stop-color="#21A038"/>
</linearGradient>
<linearGradient id="paint7_linear_22_319" x1="17.5833" y1="16.3565" x2="49.4395" y2="4.21597" gradientUnits="userSpaceOnUse">
<stop offset="0.0592" stop-color="#0FA8E0"/>
<stop offset="0.5385" stop-color="#0099F9"/>
<stop offset="0.9234" stop-color="#0291EB"/>
</linearGradient>
<linearGradient id="paint8_linear_22_319" x1="7.53063" y1="0" x2="7.53063" y2="27.9147" gradientUnits="userSpaceOnUse">
<stop/>
<stop offset="1" stop-opacity="0"/>
</linearGradient>
<linearGradient id="paint9_linear_22_319" x1="46.6319" y1="3.79474" x2="77.4317" y2="13.2984" gradientUnits="userSpaceOnUse">
<stop offset="0.0566" stop-color="#0291EB"/>
<stop offset="0.79" stop-color="#0C8ACB"/>
</linearGradient>
<linearGradient id="paint10_linear_22_319" x1="15.5007" y1="80.4937" x2="49.0264" y2="93.0208" gradientUnits="userSpaceOnUse">
<stop offset="0.1324" stop-color="#F2E913"/>
<stop offset="0.2977" stop-color="#EBE716"/>
<stop offset="0.5306" stop-color="#D9E01F"/>
<stop offset="0.8023" stop-color="#BBD62D"/>
<stop offset="0.9829" stop-color="#A3CD39"/>
</linearGradient>
<linearGradient id="paint11_linear_22_319" x1="4.21374" y1="50.3763" x2="17.67" y2="15.3695" gradientUnits="userSpaceOnUse">
<stop offset="0.0698" stop-color="#A3CD39"/>
<stop offset="0.2599" stop-color="#81C55F"/>
<stop offset="0.9216" stop-color="#0FA8E0"/>
</linearGradient>
</defs>
</svg>
