<svg width="659" height="89" viewBox="0 0 659 89" fill="none" xmlns="http://www.w3.org/2000/svg">
<path d="M72.3486 16.9436C74.2364 19.3865 75.8492 22.0546 77.1367 24.9029L40.733 51.7881L25.5254 42.2338V30.7399L40.733 40.2943L72.3486 16.9436Z" fill="#21A038"/>
<path d="M10.0116 41.4191C10.0116 40.9025 10.0248 40.3911 10.0512 39.8797L0.834658 39.4187C0.802932 40.0811 0.784424 40.7488 0.784424 41.4191C0.784424 52.4758 5.25524 62.4858 12.4863 69.7297L19.022 63.18C13.4566 57.6053 10.0116 49.9083 10.0116 41.4191Z" fill="url(#paint0_linear_21_720)"/>
<path d="M40.733 72.2118C40.2174 72.2118 39.7071 72.1986 39.1969 72.1721L38.7368 81.4085C39.3978 81.4403 40.0641 81.4588 40.733 81.4588C51.7659 81.4588 61.7545 76.9784 68.9829 69.7318L62.4472 63.1821C56.8845 68.7568 49.204 72.2118 40.733 72.2118Z" fill="url(#paint1_linear_21_720)"/>
<path d="M40.733 72.2118C40.2174 72.2118 39.7071 72.1986 39.1969 72.1721L38.7368 81.4085C39.3978 81.4403 40.0641 81.4588 40.733 81.4588C51.7659 81.4588 61.7545 76.9784 68.9829 69.7318L62.4472 63.1821C56.8845 68.7568 49.204 72.2118 40.733 72.2118Z" fill="url(#paint2_linear_21_720)"/>
<path d="M40.7343 10.6312C41.2499 10.6312 41.7602 10.6498 42.2704 10.6736L42.7305 1.43193C42.0695 1.40014 41.4032 1.38159 40.7343 1.38159C29.7014 1.38159 19.7128 5.86201 12.4844 13.1086L19.0201 19.6583C24.5828 14.0836 32.266 10.6312 40.7343 10.6312Z" fill="url(#paint3_linear_21_720)"/>
<path d="M40.733 72.2118C40.2174 72.2118 39.7071 72.1986 39.1969 72.1721L38.7368 81.4085C39.3978 81.4403 40.0641 81.4588 40.733 81.4588C51.7659 81.4588 61.7545 76.9784 68.9829 69.7318L62.4472 63.1821C56.8845 68.7568 49.204 72.2118 40.733 72.2118Z" fill="#A3CD39"/>
<path d="M62.4474 63.1821L68.9831 69.7318C67.6677 71.0506 66.2608 72.2777 64.7729 73.4029L61.5266 64.0677C61.8396 63.7788 62.1466 63.4836 62.4474 63.1821Z" fill="#21A038"/>
<mask id="mask0_21_720" style="mask-type:alpha" maskUnits="userSpaceOnUse" x="38" y="63" width="31" height="19">
<path d="M40.733 72.2118C40.2174 72.2118 39.7071 72.1986 39.1969 72.1721L38.7368 81.4085C39.3978 81.4403 40.0641 81.4588 40.733 81.4588C51.7659 81.4588 61.7545 76.9784 68.9829 69.7318L62.4472 63.1821C56.8845 68.7568 49.204 72.2118 40.733 72.2118Z" fill="#A3CD39"/>
</mask>
<g mask="url(#mask0_21_720)">
<mask id="mask1_21_720" style="mask-type:alpha" maskUnits="userSpaceOnUse" x="39" y="63" width="27" height="21">
<rect width="12.3038" height="22.7647" transform="matrix(0.328571 0.944479 -0.944028 0.329866 61.4724 63.8943)" fill="url(#paint4_linear_21_720)"/>
</mask>
<g mask="url(#mask1_21_720)">
<rect width="12.3038" height="22.7647" transform="matrix(0.328571 0.944479 -0.944028 0.329866 61.4724 63.8943)" fill="#21A038"/>
</g>
</g>
<path d="M58.0542 16.0045L65.8246 10.2656C58.9664 4.7121 50.2389 1.38159 40.7341 1.38159V10.6312C47.1561 10.6312 53.1207 12.6158 58.0542 16.0045Z" fill="url(#paint5_linear_21_720)"/>
<path d="M80.6854 41.4209C80.6854 38.9727 80.4659 36.5749 80.0455 34.2485L71.445 40.5995C71.4529 40.8724 71.4555 41.1454 71.4555 41.4209C71.4555 50.4612 67.5479 58.6034 61.3347 64.2416L67.5346 71.1093C75.6117 63.7859 80.6854 53.1982 80.6854 41.4209Z" fill="#21A038"/>
<path d="M40.7332 72.207C31.7122 72.207 23.5875 68.2909 17.9614 62.0645L11.1084 68.2777C18.4188 76.3694 28.9837 81.454 40.7332 81.454V72.207Z" fill="url(#paint6_linear_21_720)"/>
<path d="M20.1324 18.6023L13.9325 11.7346C5.85805 19.0607 0.784424 29.6484 0.784424 41.4231H10.0142C10.0116 32.3827 13.9193 24.2406 20.1324 18.6023Z" fill="url(#paint7_linear_21_720)"/>
<path d="M233.407 25.0854L244.267 17.0623H207.917V65.2491H244.267V57.2259H218.292V44.889H240.45V36.8658H218.292V25.0854H233.407Z" fill="#21A038"/>
<path d="M180.477 35.8457H167.853V25.0854H188.007L198.868 17.0623H157.479V65.2464H179.139C191.288 65.2464 198.257 59.7298 198.257 50.1089C198.257 40.9119 191.943 35.8457 180.477 35.8457ZM178.671 57.2259H167.853V43.8689H178.671C185.257 43.8689 188.324 46.1026 188.324 50.5461C188.324 55.0876 185.075 57.2259 178.671 57.2259Z" fill="#21A038"/>
<path d="M273.72 17.0623H253.928V65.2464H264.303V51.598H273.72C286.349 51.598 294.196 44.942 294.196 34.3063C294.196 23.6705 286.349 17.0623 273.72 17.0623ZM273.498 43.5748H264.303V25.0854H273.498C280.144 25.0854 283.806 28.3684 283.806 34.3301C283.806 40.2919 280.144 43.5748 273.498 43.5748Z" fill="#21A038"/>
<path d="M139.672 54.8147C137.013 56.2852 133.914 57.0642 130.718 57.0642C121.364 57.0642 114.577 50.3738 114.577 41.1557C114.577 31.9375 121.366 25.2471 130.718 25.2471C134.255 25.2471 137.428 26.2433 140.153 28.2067L147.593 22.7113L147.101 22.2795C142.758 18.4533 136.952 16.4316 130.316 16.4316C123.117 16.4316 116.581 18.864 111.917 23.2837C107.225 27.7272 104.642 33.9804 104.642 40.8907C104.642 47.8328 107.217 54.1788 111.891 58.7574C116.581 63.3519 123.101 65.8823 130.25 65.8823C137.729 65.8823 144.259 63.2698 148.685 58.5136C145.269 55.9911 141.972 53.5561 141.972 53.5561L139.672 54.8147Z" fill="#21A038"/>
<path d="M356.941 23.0919H327.822V65.572H321.655V17.6106H363.107V65.572H356.941V23.0919ZM375.419 31.3139H380.832V37.8914C381.7 35.8816 383.161 34.1687 385.217 32.7527C387.272 31.3367 390.036 30.6287 393.507 30.6287C398.075 30.6287 401.706 31.9762 404.401 34.6712C407.096 37.3661 408.444 41.7055 408.444 47.6893C408.444 51.0694 408.078 53.9471 407.348 56.3223C406.662 58.6519 405.635 60.5703 404.264 62.0777C402.94 63.5394 401.318 64.6128 399.4 65.298C397.481 65.9831 395.289 66.3257 392.822 66.3257C389.944 66.3257 387.501 65.7319 385.491 64.5443C383.527 63.311 382.065 61.895 381.106 60.2963V77.905H375.419V31.3139ZM381.106 49.8818C381.106 53.4446 382.088 56.231 384.052 58.2408C386.062 60.2049 388.688 61.187 391.931 61.187C395.677 61.187 398.395 60.1821 400.085 58.1723C401.821 56.1624 402.689 52.7823 402.689 48.0318C402.689 45.748 402.437 43.8295 401.935 42.2765C401.432 40.6778 400.702 39.3988 399.742 38.4396C398.829 37.4803 397.71 36.7952 396.385 36.3841C395.06 35.973 393.599 35.7674 392 35.7674C388.437 35.7674 385.742 36.7266 383.915 38.6451C382.134 40.5179 381.197 43.1672 381.106 46.593V49.8818ZM430.956 30.6287C435.706 30.6287 439.406 32.0447 442.055 34.8767C444.75 37.7087 446.098 41.6827 446.098 46.7985V50.4984H419.856C420.13 54.1983 421.226 56.939 423.145 58.7204C425.063 60.4561 427.713 61.324 431.093 61.324C434.382 61.324 437.077 60.753 439.178 59.6111C441.279 58.4692 442.786 57.076 443.7 55.4316V62.0777C442.832 63.1283 441.347 64.0875 439.246 64.9554C437.191 65.8232 434.473 66.2572 431.093 66.2572C425.657 66.2572 421.455 64.7727 418.486 61.8036C415.517 58.8346 414.032 54.3353 414.032 48.3059C414.032 45.3369 414.466 42.7561 415.334 40.5636C416.202 38.3254 417.39 36.4754 418.897 35.0137C420.404 33.5521 422.186 32.4558 424.241 31.725C426.297 30.9941 428.535 30.6287 430.956 30.6287ZM430.956 35.5619C427.713 35.5619 425.155 36.4069 423.282 38.097C421.409 39.787 420.29 42.2993 419.925 45.6338H440.411V45.5653C440.411 42.2765 439.52 39.787 437.739 38.097C435.957 36.4069 433.696 35.5619 430.956 35.5619ZM486.026 39.6728L474.379 56.8019H471.843L460.127 39.6728V65.572H454.44V31.3139H460.607L473.351 49.4707L485.889 31.3139H491.713V65.572H486.026V39.6728ZM530.432 53.5131C530.432 55.7057 530.135 57.5784 529.541 59.1315C528.993 60.6388 528.102 61.8721 526.869 62.8314C525.681 63.7906 524.128 64.4986 522.21 64.9554C520.337 65.3665 518.053 65.572 515.358 65.572H502.683V31.3139H508.37V42.345H516.249C518.579 42.345 520.611 42.5049 522.347 42.8246C524.128 43.1443 525.613 43.7381 526.801 44.606C528.034 45.4282 528.947 46.5702 529.541 48.0318C530.135 49.4478 530.432 51.2749 530.432 53.5131ZM524.745 53.4446C524.699 52.1657 524.517 51.1379 524.197 50.3614C523.923 49.5849 523.42 48.9911 522.69 48.58C522.004 48.1232 521.068 47.8263 519.88 47.6893C518.738 47.5065 517.322 47.4152 515.632 47.4152H508.37V60.5018H515.29C516.934 60.5018 518.35 60.4105 519.538 60.2277C520.725 59.9994 521.707 59.6339 522.484 59.1315C523.26 58.5834 523.831 57.8525 524.197 56.939C524.562 56.0254 524.745 54.8606 524.745 53.4446ZM553.001 30.6287C557.751 30.6287 561.451 32.0447 564.1 34.8767C566.795 37.7087 568.143 41.6827 568.143 46.7985V50.4984H541.901C542.175 54.1983 543.271 56.939 545.19 58.7204C547.108 60.4561 549.757 61.324 553.138 61.324C556.426 61.324 559.121 60.753 561.222 59.6111C563.324 58.4692 564.831 57.076 565.745 55.4316V62.0777C564.877 63.1283 563.392 64.0875 561.291 64.9554C559.235 65.8232 556.518 66.2572 553.138 66.2572C547.702 66.2572 543.5 64.7727 540.531 61.8036C537.561 58.8346 536.077 54.3353 536.077 48.3059C536.077 45.3369 536.511 42.7561 537.379 40.5636C538.247 38.3254 539.434 36.4754 540.942 35.0137C542.449 33.5521 544.23 32.4558 546.286 31.725C548.341 30.9941 550.58 30.6287 553.001 30.6287ZM553.001 35.5619C549.757 35.5619 547.199 36.4069 545.327 38.097C543.454 39.787 542.335 42.2993 541.969 45.6338H562.456V45.5653C562.456 42.2765 561.565 39.787 559.784 38.097C558.002 36.4069 555.741 35.5619 553.001 35.5619ZM576.485 31.3139H581.898V37.8914C582.766 35.8816 584.227 34.1687 586.283 32.7527C588.338 31.3367 591.102 30.6287 594.573 30.6287C599.141 30.6287 602.772 31.9762 605.467 34.6712C608.162 37.3661 609.51 41.7055 609.51 47.6893C609.51 51.0694 609.144 53.9471 608.414 56.3223C607.728 58.6519 606.701 60.5703 605.33 62.0777C604.006 63.5394 602.384 64.6128 600.466 65.298C598.547 65.9831 596.355 66.3257 593.888 66.3257C591.01 66.3257 588.567 65.7319 586.557 64.5443C584.593 63.311 583.131 61.895 582.172 60.2963V77.905H576.485V31.3139ZM582.172 49.8818C582.172 53.4446 583.154 56.231 585.118 58.2408C587.128 60.2049 589.754 61.187 592.997 61.187C596.743 61.187 599.461 60.1821 601.151 58.1723C602.887 56.1624 603.755 52.7823 603.755 48.0318C603.755 45.748 603.503 43.8295 603.001 42.2765C602.498 40.6778 601.768 39.3988 600.808 38.4396C599.895 37.4803 598.776 36.7952 597.451 36.3841C596.126 35.973 594.665 35.7674 593.066 35.7674C589.503 35.7674 586.808 36.7266 584.981 38.6451C583.2 40.5179 582.263 43.1672 582.172 46.593V49.8818Z" fill="#21A038"/>
<defs>
<linearGradient id="paint0_linear_21_720" x1="14.3516" y1="68.5734" x2="4.22849" y2="39.3744" gradientUnits="userSpaceOnUse">
<stop offset="0.1444" stop-color="#F2E913"/>
<stop offset="0.3037" stop-color="#E7E518"/>
<stop offset="0.5823" stop-color="#CADB26"/>
<stop offset="0.891" stop-color="#A3CD39"/>
</linearGradient>
<linearGradient id="paint1_linear_21_720" x1="38.1288" y1="75.8798" x2="67.5061" y2="69.2544" gradientUnits="userSpaceOnUse">
<stop offset="0.1226" stop-color="#A3CD39"/>
<stop offset="0.2846" stop-color="#86C339"/>
<stop offset="0.8693" stop-color="#21A038"/>
</linearGradient>
<linearGradient id="paint2_linear_21_720" x1="38.1288" y1="75.8798" x2="67.5061" y2="69.2544" gradientUnits="userSpaceOnUse">
<stop offset="0.1226" stop-color="#A3CD39"/>
<stop offset="0.2846" stop-color="#86C339"/>
<stop offset="0.8693" stop-color="#21A038"/>
</linearGradient>
<linearGradient id="paint3_linear_21_720" x1="15.1208" y1="14.7467" x2="41.1082" y2="4.86464" gradientUnits="userSpaceOnUse">
<stop offset="0.0592" stop-color="#0FA8E0"/>
<stop offset="0.5385" stop-color="#0099F9"/>
<stop offset="0.9234" stop-color="#0291EB"/>
</linearGradient>
<linearGradient id="paint4_linear_21_720" x1="6.15191" y1="0" x2="6.15191" y2="22.7647" gradientUnits="userSpaceOnUse">
<stop/>
<stop offset="1" stop-opacity="0"/>
</linearGradient>
<linearGradient id="paint5_linear_21_720" x1="38.8034" y1="4.48233" x2="63.9245" y2="12.2167" gradientUnits="userSpaceOnUse">
<stop offset="0.0566" stop-color="#0291EB"/>
<stop offset="0.79" stop-color="#0C8ACB"/>
</linearGradient>
<linearGradient id="paint6_linear_21_720" x1="13.4228" y1="67.1535" x2="40.7715" y2="77.35" gradientUnits="userSpaceOnUse">
<stop offset="0.1324" stop-color="#F2E913"/>
<stop offset="0.2977" stop-color="#EBE716"/>
<stop offset="0.5306" stop-color="#D9E01F"/>
<stop offset="0.8023" stop-color="#BBD62D"/>
<stop offset="0.9829" stop-color="#A3CD39"/>
</linearGradient>
<linearGradient id="paint7_linear_21_720" x1="4.21995" y1="42.545" x2="15.2332" y2="13.9567" gradientUnits="userSpaceOnUse">
<stop offset="0.0698" stop-color="#A3CD39"/>
<stop offset="0.2599" stop-color="#81C55F"/>
<stop offset="0.9216" stop-color="#0FA8E0"/>
</linearGradient>
</defs>
</svg>
