<svg width="635" height="89" viewBox="0 0 635 89" fill="none" xmlns="http://www.w3.org/2000/svg">
<path d="M41.0311 40.886L25.7732 31.2995V42.8321L41.0311 52.4186L77.5552 25.4429C76.2634 22.5877 74.6452 19.9106 72.7513 17.4568L41.0311 40.886Z" fill="white"/>
<path d="M81.1148 42.0186C81.1148 39.5622 80.8946 37.1562 80.4729 34.8221L71.8439 41.1945C71.8518 41.4683 71.8545 41.7421 71.8545 42.0186C71.8545 59.0515 58.0263 72.9102 41.0309 72.9102C24.0355 72.9102 10.2074 59.0515 10.2074 42.0186C10.2074 24.9857 24.0355 11.127 41.0309 11.127C47.4715 11.127 53.4585 13.1182 58.4083 16.5184L66.2044 10.7601C59.3234 5.18791 50.5671 1.84619 41.0309 1.84619C18.8921 1.84619 0.947021 19.8309 0.947021 42.0186C0.947021 64.2063 18.8921 82.191 41.0309 82.191C63.1698 82.191 81.1148 64.2037 81.1148 42.0186Z" fill="white"/>
<path d="M234.344 25.3287L245.241 17.2788H208.77V65.6261H245.241V57.5762H219.179V45.1982H241.41V37.1483H219.179V25.3287H234.344Z" fill="white"/>
<path d="M181.238 36.1248H168.572V25.3287H188.793L199.69 17.2788H158.163V65.6234H179.896C192.085 65.6234 199.077 60.0884 199.077 50.4355C199.077 41.2079 192.743 36.1248 181.238 36.1248ZM179.427 57.5762H168.572V44.1747H179.427C186.034 44.1747 189.111 46.4158 189.111 50.8741C189.111 55.4308 185.851 57.5762 179.427 57.5762Z" fill="white"/>
<path d="M274.791 17.2788H254.934V65.6234H265.343V51.9295H274.791C287.463 51.9295 295.336 45.2514 295.336 34.5802C295.336 23.9091 287.463 17.2788 274.791 17.2788ZM274.568 43.8796H265.343V25.3287H274.568C281.237 25.3287 284.911 28.6226 284.911 34.6042C284.911 40.5858 281.237 43.8796 274.568 43.8796Z" fill="white"/>
<path d="M140.298 55.1568C137.629 56.6323 134.52 57.4139 131.313 57.4139C121.928 57.4139 115.119 50.7012 115.119 41.4523C115.119 32.2035 121.931 25.4908 131.313 25.4908C134.862 25.4908 138.045 26.4904 140.78 28.4603L148.245 22.9466L147.751 22.5133C143.393 18.6744 137.568 16.646 130.91 16.646C123.687 16.646 117.129 19.0865 112.45 23.5208C107.742 27.9791 105.15 34.2532 105.15 41.1865C105.15 48.1517 107.734 54.5188 112.424 59.1127C117.129 63.7225 123.671 66.2613 130.844 66.2613C138.348 66.2613 144.9 63.6401 149.34 58.8681C145.913 56.3372 142.605 53.8941 142.605 53.8941L140.298 55.1568Z" fill="white"/>
<path d="M358.289 22.6409H329.073V65.2625H322.886V17.1413H364.476V65.2625H358.289V22.6409ZM376.829 30.8902H382.26V37.4897C383.13 35.4732 384.597 33.7546 386.659 32.3338C388.722 30.9131 391.494 30.2028 394.977 30.2028C399.56 30.2028 403.204 31.5547 405.908 34.2587C408.612 36.9626 409.964 41.3165 409.964 47.3201C409.964 50.7115 409.597 53.5988 408.864 55.9819C408.176 58.3193 407.145 60.2441 405.77 61.7565C404.441 63.223 402.814 64.3 400.889 64.9875C398.965 65.6749 396.765 66.0186 394.29 66.0186C391.403 66.0186 388.951 65.4229 386.934 64.2313C384.964 62.9939 383.497 61.5732 382.535 59.9691V77.6365H376.829V30.8902ZM382.535 49.52C382.535 53.0947 383.52 55.8903 385.491 57.9068C387.507 59.8775 390.142 60.8628 393.396 60.8628C397.154 60.8628 399.881 59.8546 401.577 57.838C403.318 55.8215 404.189 52.4301 404.189 47.6639C404.189 45.3724 403.937 43.4475 403.433 41.8893C402.929 40.2853 402.196 39.0021 401.233 38.0396C400.317 37.0772 399.194 36.3898 397.865 35.9773C396.536 35.5648 395.069 35.3586 393.465 35.3586C389.89 35.3586 387.186 36.321 385.353 38.2459C383.566 40.1249 382.626 42.783 382.535 46.2202V49.52ZM432.551 30.2028C437.317 30.2028 441.029 31.6235 443.687 34.4649C446.391 37.3064 447.743 41.2935 447.743 46.4265V50.1387H421.414C421.689 53.8509 422.789 56.6006 424.714 58.388C426.639 60.1295 429.297 61.0003 432.688 61.0003C435.988 61.0003 438.692 60.4274 440.8 59.2817C442.908 58.1359 444.42 56.7381 445.337 55.0883V61.7565C444.466 62.8106 442.977 63.773 440.869 64.6438C438.806 65.5145 436.079 65.9499 432.688 65.9499C427.234 65.9499 423.018 64.4604 420.039 61.4815C417.06 58.5026 415.571 53.9884 415.571 47.9388C415.571 44.9599 416.006 42.3705 416.877 40.1707C417.748 37.9251 418.939 36.069 420.452 34.6024C421.964 33.1359 423.751 32.0359 425.814 31.3027C427.876 30.5694 430.122 30.2028 432.551 30.2028ZM432.551 35.1524C429.297 35.1524 426.73 36.0002 424.851 37.6959C422.972 39.3916 421.849 41.9122 421.483 45.2578H442.037V45.1891C442.037 41.8893 441.144 39.3916 439.356 37.6959C437.569 36.0002 435.3 35.1524 432.551 35.1524ZM487.804 39.277L476.118 56.4632H473.574L461.819 39.277V65.2625H456.113V30.8902H462.3L475.087 49.1075L487.667 30.8902H493.51V65.2625H487.804V39.277ZM532.358 53.1634C532.358 55.3632 532.06 57.2423 531.464 58.8005C530.914 60.3128 530.021 61.5502 528.783 62.5127C527.592 63.4751 526.033 64.1855 524.109 64.6438C522.23 65.0562 519.938 65.2625 517.234 65.2625H504.516V30.8902H510.222V41.9581H518.128C520.465 41.9581 522.505 42.1185 524.246 42.4393C526.033 42.7601 527.523 43.3559 528.714 44.2266C529.952 45.0516 530.868 46.1973 531.464 47.6639C532.06 49.0846 532.358 50.9178 532.358 53.1634ZM526.652 53.0947C526.606 51.8114 526.423 50.7803 526.102 50.0012C525.827 49.2221 525.323 48.6263 524.59 48.2138C523.902 47.7555 522.963 47.4576 521.771 47.3201C520.625 47.1368 519.205 47.0452 517.509 47.0452H510.222V60.1754H517.165C518.815 60.1754 520.236 60.0837 521.428 59.9004C522.619 59.6712 523.604 59.3046 524.384 58.8005C525.163 58.2505 525.736 57.5172 526.102 56.6006C526.469 55.6841 526.652 54.5154 526.652 53.0947ZM555.002 30.2028C559.768 30.2028 563.48 31.6235 566.138 34.4649C568.842 37.3064 570.194 41.2935 570.194 46.4265V50.1387H543.865C544.14 53.8509 545.24 56.6006 547.165 58.388C549.09 60.1295 551.748 61.0003 555.139 61.0003C558.439 61.0003 561.143 60.4274 563.251 59.2817C565.359 58.1359 566.872 56.7381 567.788 55.0883V61.7565C566.917 62.8106 565.428 63.773 563.32 64.6438C561.257 65.5145 558.531 65.9499 555.139 65.9499C549.685 65.9499 545.469 64.4604 542.49 61.4815C539.511 58.5026 538.022 53.9884 538.022 47.9388C538.022 44.9599 538.457 42.3705 539.328 40.1707C540.199 37.9251 541.39 36.069 542.903 34.6024C544.415 33.1359 546.202 32.0359 548.265 31.3027C550.327 30.5694 552.573 30.2028 555.002 30.2028ZM555.002 35.1524C551.748 35.1524 549.181 36.0002 547.302 37.6959C545.423 39.3916 544.3 41.9122 543.934 45.2578H564.488V45.1891C564.488 41.8893 563.595 39.3916 561.807 37.6959C560.02 36.0002 557.751 35.1524 555.002 35.1524ZM578.564 30.8902H583.995V37.4897C584.866 35.4732 586.333 33.7546 588.395 32.3338C590.457 30.9131 593.23 30.2028 596.713 30.2028C601.296 30.2028 604.939 31.5547 607.643 34.2587C610.347 36.9626 611.699 41.3165 611.699 47.3201C611.699 50.7115 611.333 53.5988 610.599 55.9819C609.912 58.3193 608.881 60.2441 607.506 61.7565C606.177 63.223 604.55 64.3 602.625 64.9875C600.7 65.6749 598.5 66.0186 596.025 66.0186C593.138 66.0186 590.686 65.4229 588.67 64.2313C586.699 62.9939 585.233 61.5732 584.27 59.9691V77.6365H578.564V30.8902ZM584.27 49.52C584.27 53.0947 585.256 55.8903 587.226 57.9068C589.243 59.8775 591.878 60.8628 595.132 60.8628C598.89 60.8628 601.617 59.8546 603.312 57.838C605.054 55.8215 605.925 52.4301 605.925 47.6639C605.925 45.3724 605.673 43.4475 605.168 41.8893C604.664 40.2853 603.931 39.0021 602.969 38.0396C602.052 37.0772 600.929 36.3898 599.6 35.9773C598.271 35.5648 596.805 35.3586 595.201 35.3586C591.626 35.3586 588.922 36.321 587.089 38.2459C585.301 40.1249 584.362 42.783 584.27 46.2202V49.52Z" fill="white"/>
</svg>
