<svg width="532" height="81" viewBox="0 0 532 81" fill="none" xmlns="http://www.w3.org/2000/svg">
<path d="M428.571 15.8623V64.5999H439.089V44.6868H461.513V64.5999H472.03V15.8623H461.513V35.8472H439.089V15.8623H428.571ZM410.489 64.5999H421.565L401.017 15.8623H390.292L369.256 64.5999H379.91L384.155 54.779H406.515L410.489 64.5999ZM387.299 46.6335L395.447 27.0714L403.107 46.6335H387.299ZM495.715 44.9421H502.259L518.402 64.5999H532L510.478 39.3974L529.279 15.8623H517.189L501.516 36.7487H495.707V15.8623H485.181V64.5999H495.707V44.9421H495.715ZM334.472 34.8579V23.9759H361.979L362.003 15.8623H323.946V64.5999H345.907C358.228 64.5999 365.29 59.0233 365.29 49.2901C365.29 39.9878 358.89 34.8579 347.264 34.8579H334.472V34.8579ZM334.472 56.4863V42.9795H345.444C352.123 42.9795 355.228 45.2373 355.228 49.7369C355.228 54.3322 351.932 56.4943 345.444 56.4943H334.472V56.4863Z" fill="#21A038"/>
<path d="M181.809 34.8623H169.036V23.978H189.427L200.416 15.8623H158.539V64.6018H180.455C192.746 64.6018 199.798 59.0216 199.798 49.2898C199.798 39.9868 193.41 34.8623 181.809 34.8623ZM179.982 56.4888H169.036V42.9779H179.982C186.645 42.9779 189.748 45.2373 189.748 49.732C189.748 54.3259 186.46 56.4888 179.982 56.4888Z" fill="#21A038"/>
<path d="M235.361 23.978L246.35 15.8623H209.572V64.6044H246.35V56.4888H220.068V44.0098H242.487V35.8941H220.068V23.978H235.361Z" fill="#21A038"/>
<path d="M276.149 15.8623H256.124V64.6018H266.621V50.7961H276.149C288.927 50.7961 296.867 44.0634 296.867 33.3051C296.867 22.5467 288.927 15.8623 276.149 15.8623ZM275.924 42.6804H266.621V23.978H275.924C282.649 23.978 286.354 27.2987 286.354 33.3292C286.354 39.3596 282.649 42.6804 275.924 42.6804Z" fill="#21A038"/>
<path d="M140.523 54.049C137.832 55.5366 134.697 56.3245 131.463 56.3245C121.999 56.3245 115.132 49.557 115.132 40.2326C115.132 30.9082 122.002 24.1407 131.463 24.1407C135.042 24.1407 138.252 25.1484 141.01 27.1345L148.537 21.5757L148.04 21.1388C143.645 17.2686 137.771 15.2236 131.056 15.2236C123.773 15.2236 117.16 17.6841 112.441 22.1546C107.693 26.6493 105.08 32.9746 105.08 39.9646C105.08 46.9867 107.685 53.4058 112.415 58.0372C117.16 62.6847 123.757 65.2443 130.99 65.2443C138.557 65.2443 145.164 62.6016 149.642 57.7906C146.186 55.2391 142.85 52.776 142.85 52.776L140.523 54.049Z" fill="#21A038"/>
<path d="M72.4069 15.7413C74.3169 18.2124 75.9487 20.9113 77.2514 23.7924L40.4191 50.9874L25.0323 41.323V29.6966L40.4191 39.3611L72.4069 15.7413Z" fill="#21A038"/>
<path d="M9.33582 40.4986C9.33582 39.976 9.34919 39.4587 9.37594 38.9414L0.050826 38.4751C0.0187258 39.1451 0 39.8205 0 40.4986C0 51.6827 4.52346 61.8081 11.8396 69.1355L18.4523 62.5103C12.8214 56.8713 9.33582 49.0856 9.33582 40.4986Z" fill="url(#paint0_linear_19_229)"/>
<path d="M40.4191 71.6461C39.8974 71.6461 39.3812 71.6327 38.8649 71.6059L38.3994 80.9487C39.0682 80.9809 39.7423 80.9996 40.4191 80.9996C51.5819 80.9996 61.6882 76.4676 69.0017 69.1375L62.389 62.5123C56.7608 68.1513 48.9898 71.6461 40.4191 71.6461Z" fill="url(#paint1_linear_19_229)"/>
<path d="M40.4191 71.6461C39.8974 71.6461 39.3812 71.6327 38.8649 71.6059L38.3994 80.9487C39.0682 80.9809 39.7423 80.9996 40.4191 80.9996C51.5819 80.9996 61.6882 76.4676 69.0017 69.1375L62.389 62.5123C56.7608 68.1513 48.9898 71.6461 40.4191 71.6461Z" fill="url(#paint2_linear_19_229)"/>
<path d="M40.4203 9.35612C40.9419 9.35612 41.4582 9.37489 41.9744 9.39901L42.4399 0.0508006C41.7711 0.0186393 41.097 -0.00012207 40.4203 -0.00012207C29.2574 -0.00012207 19.1512 4.53193 11.8376 11.862L18.4503 18.4872C24.0785 12.8483 31.8522 9.35612 40.4203 9.35612Z" fill="url(#paint3_linear_19_229)"/>
<path d="M40.4189 71.6462C39.8973 71.6462 39.381 71.6328 38.8648 71.606L38.3993 80.9488C39.068 80.981 39.7422 80.9998 40.4189 80.9998C51.5818 80.9998 61.688 76.4677 69.0015 69.1376L62.3889 62.5125C56.7606 68.1514 48.9897 71.6462 40.4189 71.6462Z" fill="#A3CD39"/>
<path d="M62.3889 62.5125L69.0016 69.1377C67.6706 70.4716 66.2472 71.7128 64.7418 72.851L61.4573 63.4082C61.7739 63.116 62.0846 62.8174 62.3889 62.5125Z" fill="#21A038"/>
<mask id="mask0_19_229" style="mask-type:alpha" maskUnits="userSpaceOnUse" x="38" y="62" width="32" height="19">
<path d="M40.4189 71.6462C39.8973 71.6462 39.381 71.6328 38.8648 71.606L38.3993 80.9488C39.068 80.981 39.7422 80.9998 40.4189 80.9998C51.5818 80.9998 61.688 76.4677 69.0015 69.1376L62.3889 62.5125C56.7606 68.1514 48.9897 71.6462 40.4189 71.6462Z" fill="#A3CD39"/>
</mask>
<g mask="url(#mask0_19_229)">
<mask id="mask1_19_229" style="mask-type:alpha" maskUnits="userSpaceOnUse" x="39" y="63" width="27" height="20">
<rect width="12.446" height="23.0321" transform="matrix(0.328643 0.944454 -0.944053 0.329794 61.4025 63.2332)" fill="url(#paint4_linear_19_229)"/>
</mask>
<g mask="url(#mask1_19_229)">
<rect width="12.446" height="23.0321" transform="matrix(0.328643 0.944454 -0.944053 0.329794 61.4025 63.2332)" fill="#21A038"/>
</g>
</g>
<path d="M57.9442 14.7914L65.8061 8.98626C58.8671 3.36877 50.0369 -0.00012207 40.4202 -0.00012207V9.35612C46.9178 9.35612 52.9526 11.3635 57.9442 14.7914Z" fill="url(#paint5_linear_19_229)"/>
<path d="M80.8415 40.5004C80.8415 38.024 80.6195 35.5985 80.1942 33.2454L71.4923 39.6696C71.5004 39.9456 71.503 40.2217 71.503 40.5004C71.503 49.6449 67.5494 57.8809 61.2631 63.5841L67.536 70.531C75.7082 63.1232 80.8415 52.4135 80.8415 40.5004Z" fill="#21A038"/>
<path d="M40.4193 71.6417C31.2921 71.6417 23.0718 67.6806 17.3793 61.3823L10.4457 67.6672C17.8421 75.8522 28.5315 80.9953 40.4193 80.9953V71.6417Z" fill="url(#paint6_linear_19_229)"/>
<path d="M19.5758 17.4191L13.3029 10.4723C5.13336 17.8828 0 28.5925 0 40.5029H9.33849C9.33582 31.3584 13.2895 23.1224 19.5758 17.4191Z" fill="url(#paint7_linear_19_229)"/>
<defs>
<linearGradient id="paint0_linear_19_229" x1="13.727" y1="67.9659" x2="3.48913" y2="38.4287" gradientUnits="userSpaceOnUse">
<stop offset="0.1444" stop-color="#F2E913"/>
<stop offset="0.3037" stop-color="#E7E518"/>
<stop offset="0.5823" stop-color="#CADB26"/>
<stop offset="0.891" stop-color="#A3CD39"/>
</linearGradient>
<linearGradient id="paint1_linear_19_229" x1="37.7842" y1="75.3564" x2="67.5068" y2="68.6515" gradientUnits="userSpaceOnUse">
<stop offset="0.1226" stop-color="#A3CD39"/>
<stop offset="0.2846" stop-color="#86C339"/>
<stop offset="0.8693" stop-color="#21A038"/>
</linearGradient>
<linearGradient id="paint2_linear_19_229" x1="37.7842" y1="75.3564" x2="67.5068" y2="68.6515" gradientUnits="userSpaceOnUse">
<stop offset="0.1226" stop-color="#A3CD39"/>
<stop offset="0.2846" stop-color="#86C339"/>
<stop offset="0.8693" stop-color="#21A038"/>
</linearGradient>
<linearGradient id="paint3_linear_19_229" x1="14.5052" y1="13.519" x2="40.7968" y2="3.51876" gradientUnits="userSpaceOnUse">
<stop offset="0.0592" stop-color="#0FA8E0"/>
<stop offset="0.5385" stop-color="#0099F9"/>
<stop offset="0.9234" stop-color="#0291EB"/>
</linearGradient>
<linearGradient id="paint4_linear_19_229" x1="6.22298" y1="0" x2="6.22298" y2="23.0321" gradientUnits="userSpaceOnUse">
<stop/>
<stop offset="1" stop-opacity="0"/>
</linearGradient>
<linearGradient id="paint5_linear_19_229" x1="38.4667" y1="3.13635" x2="63.8825" y2="10.9634" gradientUnits="userSpaceOnUse">
<stop offset="0.0566" stop-color="#0291EB"/>
<stop offset="0.79" stop-color="#0C8ACB"/>
</linearGradient>
<linearGradient id="paint6_linear_19_229" x1="12.7873" y1="66.53" x2="40.4564" y2="76.8486" gradientUnits="userSpaceOnUse">
<stop offset="0.1324" stop-color="#F2E913"/>
<stop offset="0.2977" stop-color="#EBE716"/>
<stop offset="0.5306" stop-color="#D9E01F"/>
<stop offset="0.8023" stop-color="#BBD62D"/>
<stop offset="0.9829" stop-color="#A3CD39"/>
</linearGradient>
<linearGradient id="paint7_linear_19_229" x1="3.47597" y1="41.6378" x2="14.6142" y2="12.7182" gradientUnits="userSpaceOnUse">
<stop offset="0.0698" stop-color="#A3CD39"/>
<stop offset="0.2599" stop-color="#81C55F"/>
<stop offset="0.9216" stop-color="#0FA8E0"/>
</linearGradient>
</defs>
</svg>
