<svg width="527" height="81" viewBox="0 0 527 81" fill="none" xmlns="http://www.w3.org/2000/svg">
<path d="M72.71 15.9432C74.6034 18.3861 76.2211 21.0543 77.5126 23.9025L40.9989 50.7877L25.7454 41.2334V29.7395L40.9989 39.2939L72.71 15.9432Z" fill="white"/>
<path d="M10.1847 40.4189C10.1847 39.9022 10.198 39.3909 10.2245 38.8795L0.980074 38.4185C0.948251 39.0808 0.929688 39.7486 0.929688 40.4189C0.929688 51.4755 5.414 61.4856 12.6669 68.7295L19.2223 62.1798C13.6401 56.6051 10.1847 48.9081 10.1847 40.4189Z" fill="white"/>
<path d="M40.999 71.2116C40.4819 71.2116 39.9701 71.1984 39.4583 71.1719L38.9968 80.4082C39.6598 80.44 40.3281 80.4586 40.999 80.4586C52.0653 80.4586 62.084 75.9782 69.3343 68.7316L62.7788 62.1819C57.1993 67.7566 49.4956 71.2116 40.999 71.2116Z" fill="white"/>
<path d="M40.999 71.2116C40.4819 71.2116 39.9701 71.1984 39.4583 71.1719L38.9968 80.4082C39.6598 80.44 40.3281 80.4586 40.999 80.4586C52.0653 80.4586 62.084 75.9782 69.3343 68.7316L62.7788 62.1819C57.1993 67.7566 49.4956 71.2116 40.999 71.2116Z" fill="white"/>
<path d="M41.0002 9.63124C41.5173 9.63124 42.0291 9.64979 42.5409 9.67363L43.0023 0.431934C42.3394 0.400139 41.6711 0.381592 41.0002 0.381592C29.9339 0.381592 19.9151 4.86201 12.6649 12.1086L19.2203 18.6583C24.7999 13.0836 32.5062 9.63124 41.0002 9.63124Z" fill="white"/>
<path d="M40.9991 71.2116C40.482 71.2116 39.9702 71.1984 39.4584 71.1719L38.9969 80.4082C39.6599 80.44 40.3282 80.4586 40.9991 80.4586C52.0654 80.4586 62.0842 75.9782 69.3344 68.7316L62.779 62.1819C57.1994 67.7566 49.4957 71.2116 40.9991 71.2116Z" fill="white"/>
<path d="M62.7789 62.1819L69.3344 68.7316C68.015 70.0503 66.6039 71.2775 65.1115 72.4026L61.8553 63.0674C62.1693 62.7786 62.4772 62.4833 62.7789 62.1819Z" fill="white"/>
<mask id="mask0_19_363" style="mask-type:alpha" maskUnits="userSpaceOnUse" x="38" y="62" width="32" height="19">
<path d="M40.9991 71.2116C40.482 71.2116 39.9702 71.1984 39.4584 71.1719L38.9969 80.4082C39.6599 80.44 40.3282 80.4586 40.9991 80.4586C52.0654 80.4586 62.0842 75.9782 69.3344 68.7316L62.779 62.1819C57.1994 67.7566 49.4957 71.2116 40.9991 71.2116Z" fill="#A3CD39"/>
</mask>
<g mask="url(#mask0_19_363)">
<mask id="mask1_19_363" style="mask-type:alpha" maskUnits="userSpaceOnUse" x="40" y="62" width="26" height="21">
<rect width="12.3078" height="22.8259" transform="matrix(0.329456 0.944171 -0.944337 0.328981 61.801 62.8942)" fill="url(#paint0_linear_19_363)"/>
</mask>
<g mask="url(#mask1_19_363)">
<rect width="12.3078" height="22.8259" transform="matrix(0.329456 0.944171 -0.944337 0.328981 61.801 62.8942)" fill="white"/>
</g>
</g>
<path d="M58.3725 15.0045L66.1664 9.26559C59.2874 3.7121 50.5336 0.381592 41.0001 0.381592V9.63123C47.4415 9.63123 53.4241 11.6158 58.3725 15.0045Z" fill="white"/>
<path d="M81.0718 40.4207C81.0718 37.9725 80.8517 35.5746 80.43 33.2483L71.8035 39.5993C71.8114 39.8722 71.8141 40.1451 71.8141 40.4207C71.8141 49.461 67.8946 57.6031 61.6627 63.2414L67.8814 70.1091C75.9828 62.7857 81.0718 52.198 81.0718 40.4207Z" fill="white"/>
<path d="M40.9993 71.2068C31.9511 71.2068 23.8019 67.2908 18.1587 61.0643L11.285 67.2776C18.6175 75.3693 29.2143 80.4538 40.9993 80.4538V71.2068Z" fill="white"/>
<path d="M20.3361 17.6019L14.1175 10.7343C6.01863 18.0603 0.929688 28.648 0.929688 40.4227H10.1874C10.1847 31.3824 14.1042 23.2402 20.3361 17.6019Z" fill="white"/>
<path d="M127.626 35.9495C122.037 34.6336 117.209 33.4951 117.209 29.6029C117.209 24.3843 123.638 23.8203 126.401 23.8203C130.233 23.8203 132.411 24.3472 135.265 25.6419C136.651 24.6226 142.968 19.9705 142.968 19.9705C138.805 17.3201 132.552 15.2469 126.47 15.2469C111.978 15.2469 106.814 22.9492 106.814 30.1563C106.814 40.5354 115.847 42.6986 123.815 44.605C129.414 45.9447 134.248 47.1018 134.248 51.0575C134.248 53.0883 133.037 56.4933 124.92 56.4933C119.533 56.4933 113.632 54.6028 109.442 51.55L105.921 59.5991C110.189 62.9246 117.593 65.0666 124.854 65.0666C136.876 65.0666 144.646 59.2416 144.646 50.2261C144.646 39.9582 135.604 37.8294 127.626 35.9495Z" fill="white"/>
<path d="M188.676 39.3996L188.178 39.2355L188.639 38.9866C192.606 36.8366 194.789 33.1086 194.789 28.4936C194.789 20.7226 188.197 16.0837 177.155 16.0837H154.328V64.2353H178.503C190.528 64.2353 197.15 59.6071 197.15 51.2006C197.148 45.4762 194.061 41.1763 188.676 39.3996ZM164.727 24.0984H175.806C182.791 24.0984 184.256 27.3154 184.256 29.9843C184.256 33.8579 181.333 35.8702 175.806 35.8702H164.727V24.0984V24.0984ZM164.727 35.8702H175.806H164.727ZM177.692 56.2154H164.727V43.8875H177.692C183.612 43.8875 186.615 45.9395 186.615 50.0515C186.615 54.1766 183.697 56.2154 177.692 56.2154Z" fill="white"/>
<path d="M232.381 24.0984L243.266 16.0811H206.83V64.2327H243.266V56.2153H217.229V43.8875H239.44V35.8702H217.229V24.0984H232.381Z" fill="white"/>
<path d="M294.051 64.2327L283.465 48.5899C289.711 45.868 293.312 40.5011 293.312 33.3125C293.312 22.6845 285.447 16.0811 272.788 16.0811H252.952V64.2327H263.35V50.5942H272.788C273.085 50.5942 273.377 50.5863 273.668 50.5783L282.908 64.2327H294.051ZM263.347 24.0984H272.563C279.225 24.0984 282.895 27.3789 282.895 33.3363C282.895 39.2937 279.225 42.5742 272.563 42.5742H263.347V24.0984Z" fill="white"/>
<path d="M458.788 16.5759V48.0912L434.908 16.5759H425.085V64.5326H435.046V33.0862L458.856 64.5326H468.679V16.5759H458.788Z" fill="white"/>
<path d="M490.938 45.1884H497.375L513.256 64.5307H526.631L505.461 39.7309L523.958 16.574H512.064L496.649 37.1273H490.935V16.574H480.583V64.5307H490.935V45.1884H490.938Z" fill="white"/>
<path d="M407.626 64.5307H418.519L398.307 16.574H387.755L367.064 64.5307H377.547L381.725 54.8705H403.718L407.626 64.5307ZM384.814 46.8532L392.828 27.6017L400.363 46.8532H384.814Z" fill="white"/>
<path d="M354.866 39.7978L354.369 39.635L354.829 39.3847C358.775 37.2443 360.95 33.5329 360.95 28.9328C360.95 21.194 354.387 16.572 343.4 16.572H320.685V64.5287H344.743C356.709 64.5287 363.3 59.9192 363.3 51.5452C363.3 45.8498 360.227 41.569 354.866 39.7978ZM331.033 24.558H342.058C349.008 24.558 350.466 27.7624 350.466 30.4192C350.466 34.2777 347.559 36.2804 342.058 36.2804H331.033V24.558ZM331.033 36.2835H342.058ZM343.939 56.5458H331.033V44.2695H343.939C349.831 44.2695 352.817 46.313 352.817 50.4093C352.817 54.5149 349.913 56.5458 343.939 56.5458Z" fill="white"/>
<defs>
<linearGradient id="paint0_linear_19_363" x1="6.15392" y1="0" x2="6.15392" y2="22.8259" gradientUnits="userSpaceOnUse">
<stop/>
<stop offset="1" stop-opacity="0"/>
</linearGradient>
</defs>
</svg>
