<svg width="393" height="179" viewBox="0 0 393 179" fill="none" xmlns="http://www.w3.org/2000/svg">
<path d="M121.112 65.1595C123.011 67.6106 124.634 70.2876 125.93 73.1454L89.2948 100.12L73.9905 90.5339V79.0018L89.2948 88.588L121.112 65.1595Z" fill="#21A038"/>
<path d="M58.3781 89.7166C58.3781 89.1982 58.3914 88.6851 58.418 88.172L49.1428 87.7095C49.1109 88.3741 49.0923 89.044 49.0923 89.7166C49.0923 100.81 53.5915 110.853 60.8686 118.121L67.4458 111.55C61.845 105.957 58.3781 98.234 58.3781 89.7166Z" fill="url(#paint0_linear_3_295)"/>
<path d="M89.295 120.612C88.7761 120.612 88.2626 120.599 87.7491 120.572L87.2861 129.839C87.9513 129.871 88.6218 129.89 89.295 129.89C100.398 129.89 110.45 125.394 117.725 118.124L111.147 111.552C105.549 117.145 97.8199 120.612 89.295 120.612Z" fill="url(#paint1_linear_3_295)"/>
<path d="M89.295 120.612C88.7761 120.612 88.2626 120.599 87.7491 120.572L87.2861 129.839C87.9513 129.871 88.6218 129.89 89.295 129.89C100.398 129.89 110.45 125.394 117.725 118.124L111.147 111.552C105.549 117.145 97.8199 120.612 89.295 120.612Z" fill="url(#paint2_linear_3_295)"/>
<path d="M89.2961 58.8263C89.8149 58.8263 90.3284 58.845 90.8419 58.8689L91.3049 49.5964C90.6397 49.5645 89.9692 49.5459 89.2961 49.5459C78.193 49.5459 68.1408 54.0412 60.8665 61.3119L67.4437 67.8835C73.0418 62.2902 80.7738 58.8263 89.2961 58.8263Z" fill="url(#paint3_linear_3_295)"/>
<path d="M89.2955 120.612C88.7766 120.612 88.2631 120.599 87.7496 120.572L87.2866 129.839C87.9518 129.871 88.6223 129.89 89.2955 129.89C100.399 129.89 110.451 125.394 117.725 118.124L111.148 111.552C105.55 117.145 97.8204 120.612 89.2955 120.612Z" fill="#A3CD39"/>
<path d="M111.148 111.552L117.725 118.124C116.401 119.447 114.985 120.678 113.488 121.807L110.221 112.441C110.536 112.151 110.845 111.855 111.148 111.552Z" fill="#21A038"/>
<mask id="mask0_3_295" style="mask-type:alpha" maskUnits="userSpaceOnUse" x="87" y="111" width="31" height="19">
<path d="M89.2955 120.612C88.7766 120.612 88.2631 120.599 87.7496 120.572L87.2866 129.839C87.9518 129.871 88.6223 129.89 89.2955 129.89C100.399 129.89 110.451 125.394 117.725 118.124L111.148 111.552C105.55 117.145 97.8204 120.612 89.2955 120.612Z" fill="#A3CD39"/>
</mask>
<g mask="url(#mask0_3_295)">
<mask id="mask1_3_295" style="mask-type:alpha" maskUnits="userSpaceOnUse" x="88" y="112" width="27" height="20">
<rect width="12.3488" height="22.9019" transform="matrix(0.329456 0.944171 -0.944337 0.328981 110.167 112.267)" fill="url(#paint4_linear_3_295)"/>
</mask>
<g mask="url(#mask1_3_295)">
<rect width="12.3488" height="22.9019" transform="matrix(0.329456 0.944171 -0.944337 0.328981 110.167 112.267)" fill="#21A038"/>
</g>
</g>
<path d="M106.726 64.2175L114.546 58.4595C107.644 52.8875 98.8614 49.5459 89.2961 49.5459V58.8263C95.759 58.8263 101.762 60.8175 106.726 64.2175Z" fill="url(#paint5_linear_3_295)"/>
<path d="M129.501 89.7184C129.501 87.2621 129.28 84.8562 128.857 82.5222L120.202 88.8943C120.21 89.1681 120.213 89.4419 120.213 89.7184C120.213 98.7888 116.28 106.958 110.028 112.615L116.267 119.506C124.395 112.158 129.501 101.535 129.501 89.7184Z" fill="#21A038"/>
<path d="M89.2951 120.607C80.2168 120.607 72.0404 116.678 66.3785 110.431L59.4819 116.665C66.8388 124.783 77.4709 129.885 89.2951 129.885V120.607Z" fill="url(#paint6_linear_3_295)"/>
<path d="M68.5633 66.8238L62.324 59.9332C54.1982 67.2837 49.0923 77.9066 49.0923 89.7205H58.3808C58.3781 80.6501 62.3107 72.4808 68.5633 66.8238Z" fill="url(#paint7_linear_3_295)"/>
<path d="M176.211 85.2326C170.603 83.9123 165.759 82.77 165.759 78.8649C165.759 73.6288 172.209 73.063 174.982 73.063C178.827 73.063 181.012 73.5916 183.876 74.8907C185.266 73.8679 191.604 69.2003 191.604 69.2003C187.428 66.5411 181.153 64.4611 175.051 64.4611C160.511 64.4611 155.329 72.189 155.329 79.4201C155.329 89.8337 164.393 92.0041 172.387 93.9168C178.005 95.2611 182.855 96.422 182.855 100.391C182.855 102.428 181.64 105.845 173.496 105.845C168.091 105.845 162.17 103.948 157.967 100.885L154.433 108.961C158.716 112.297 166.145 114.447 173.43 114.447C185.492 114.447 193.287 108.602 193.287 99.5567C193.287 89.2546 184.216 87.1187 176.211 85.2326Z" fill="#21A038"/>
<path d="M237.464 88.6941L236.964 88.5294L237.427 88.2797C241.407 86.1226 243.598 82.3822 243.598 77.7518C243.598 69.9549 236.983 65.3006 225.904 65.3006H203.002V113.613H227.258C239.323 113.613 245.967 108.969 245.967 100.534C245.964 94.7909 242.867 90.4767 237.464 88.6941ZM213.435 73.342H224.551C231.559 73.342 233.03 76.5697 233.03 79.2475C233.03 83.134 230.097 85.153 224.551 85.153H213.435V73.342V73.342ZM213.435 85.153H224.551H213.435ZM226.444 105.566H213.435V93.197H226.444C232.383 93.197 235.396 95.2558 235.396 99.3814C235.396 103.52 232.469 105.566 226.444 105.566Z" fill="#21A038"/>
<path d="M281.314 73.3419L292.236 65.2979H255.679V113.61H292.236V105.566H266.111V93.197H288.397V85.1529H266.111V73.3419H281.314Z" fill="#21A038"/>
<path d="M343.19 113.61L332.569 97.915C338.835 95.1841 342.448 89.7992 342.448 82.5867C342.448 71.9233 334.557 65.2979 321.857 65.2979H301.954V113.61H312.387V99.926H321.857C322.155 99.926 322.447 99.918 322.74 99.9101L332.01 113.61H343.19ZM312.384 73.3419H321.631C328.315 73.3419 331.997 76.6334 331.997 82.6106C331.997 88.5879 328.315 91.8793 321.631 91.8793H312.384V73.3419Z" fill="#21A038"/>
<defs>
<linearGradient id="paint0_linear_3_295" x1="62.7458" y1="116.961" x2="52.613" y2="87.6461" gradientUnits="userSpaceOnUse">
<stop offset="0.1444" stop-color="#F2E913"/>
<stop offset="0.3037" stop-color="#E7E518"/>
<stop offset="0.5823" stop-color="#CADB26"/>
<stop offset="0.891" stop-color="#A3CD39"/>
</linearGradient>
<linearGradient id="paint1_linear_3_295" x1="86.6743" y1="124.292" x2="116.23" y2="117.606" gradientUnits="userSpaceOnUse">
<stop offset="0.1226" stop-color="#A3CD39"/>
<stop offset="0.2846" stop-color="#86C339"/>
<stop offset="0.8693" stop-color="#21A038"/>
</linearGradient>
<linearGradient id="paint2_linear_3_295" x1="86.6743" y1="124.292" x2="116.23" y2="117.606" gradientUnits="userSpaceOnUse">
<stop offset="0.1226" stop-color="#A3CD39"/>
<stop offset="0.2846" stop-color="#86C339"/>
<stop offset="0.8693" stop-color="#21A038"/>
</linearGradient>
<linearGradient id="paint3_linear_3_295" x1="63.5197" y1="62.9555" x2="89.6523" y2="52.9882" gradientUnits="userSpaceOnUse">
<stop offset="0.0592" stop-color="#0FA8E0"/>
<stop offset="0.5385" stop-color="#0099F9"/>
<stop offset="0.9234" stop-color="#0291EB"/>
</linearGradient>
<linearGradient id="paint4_linear_3_295" x1="6.17441" y1="0" x2="6.17441" y2="22.9019" gradientUnits="userSpaceOnUse">
<stop/>
<stop offset="1" stop-opacity="0"/>
</linearGradient>
<linearGradient id="paint5_linear_3_295" x1="87.3531" y1="52.657" x2="112.621" y2="60.4599" gradientUnits="userSpaceOnUse">
<stop offset="0.0566" stop-color="#0291EB"/>
<stop offset="0.79" stop-color="#0C8ACB"/>
</linearGradient>
<linearGradient id="paint6_linear_3_295" x1="61.811" y1="115.537" x2="89.3134" y2="125.822" gradientUnits="userSpaceOnUse">
<stop offset="0.1324" stop-color="#F2E913"/>
<stop offset="0.2977" stop-color="#EBE716"/>
<stop offset="0.5306" stop-color="#D9E01F"/>
<stop offset="0.8023" stop-color="#BBD62D"/>
<stop offset="0.9829" stop-color="#A3CD39"/>
</linearGradient>
<linearGradient id="paint7_linear_3_295" x1="52.5497" y1="90.8462" x2="63.5749" y2="62.1404" gradientUnits="userSpaceOnUse">
<stop offset="0.0698" stop-color="#A3CD39"/>
<stop offset="0.2599" stop-color="#81C55F"/>
<stop offset="0.9216" stop-color="#0FA8E0"/>
</linearGradient>
</defs>
</svg>
